SplineFontDB: 3.0
FontName: AlinaScript
FullName: Alina Script
FamilyName: Alina Script
Weight: Book
Copyright: 
Version: 1.0
ItalicAngle: -10.4
UnderlinePosition: -83
UnderlineWidth: 44
Ascent: 1638
Descent: 410
InvalidEm: 0
sfntRevision: 0x00020000
woffMajor: 1
woffMinor: 0
LayerCount: 2
Layer: 0 1 "Back" 1
Layer: 1 1 "Fore" 0
XUID: [1021 42 -1432342499 30512]
BaseHoriz: 1 'romn'
BaseScript: 'cyrl' 0  0
BaseScript: 'latn' 0  0
BaseVert: 1 'romn'
BaseScript: 'cyrl' 0  0
BaseScript: 'latn' 0  0
FSType: 8
OS2Version: 3
OS2_WeightWidthSlopeOnly: 0
OS2_UseTypoMetrics: 1
CreationTime: 1315272840
ModificationTime: 1425691812
PfmFamily: 65
TTFWeight: 400
TTFWidth: 5
LineGap: 0
VLineGap: 0
Panose: 2 1 5 1 8 1 1 13 0 2
OS2TypoAscent: 1768
OS2TypoAOffset: 0
OS2TypoDescent: -787
OS2TypoDOffset: 0
OS2TypoLinegap: 0
OS2WinAscent: 1768
OS2WinAOffset: 0
OS2WinDescent: 787
OS2WinDOffset: 0
HheadAscent: 1768
HheadAOffset: 0
HheadDescent: -787
HheadDOffset: 0
OS2SubXSize: 1434
OS2SubYSize: 1331
OS2SubXOff: 0
OS2SubYOff: 287
OS2SupXSize: 1434
OS2SupYSize: 1331
OS2SupXOff: 0
OS2SupYOff: 977
OS2StrikeYSize: 57
OS2StrikeYPos: 458
OS2CapHeight: 0
OS2XHeight: 0
OS2Vendor: '    '
OS2CodePages: 20000115.40000000
OS2UnicodeRanges: 800002af.00000002.00000000.00000000
MarkAttachClasses: 1
DEI: 91125
ShortTable: maxp 16
  0
  0
  0
  0
  0
  0
  0
  2
  1
  2
  22
  0
  256
  0
  0
  0
EndShort
TtTable: prep
PUSHW_1
 511
SCANCTRL
PUSHB_1
 1
SCANTYPE
SVTCA[y-axis]
MPPEM
PUSHB_1
 8
LT
IF
PUSHB_2
 1
 1
INSTCTRL
EIF
PUSHB_2
 70
 6
CALL
IF
POP
PUSHB_1
 16
EIF
MPPEM
PUSHB_1
 20
GT
IF
POP
PUSHB_1
 128
EIF
SCVTCI
PUSHB_1
 6
CALL
NOT
IF
EIF
PUSHB_1
 20
CALL
EndTTInstrs
TtTable: fpgm
PUSHB_1
 0
FDEF
PUSHB_1
 0
SZP0
MPPEM
PUSHB_1
 42
LT
IF
PUSHB_1
 74
SROUND
EIF
PUSHB_1
 0
SWAP
MIAP[rnd]
RTG
PUSHB_1
 6
CALL
IF
RTDG
EIF
MPPEM
PUSHB_1
 42
LT
IF
RDTG
EIF
DUP
MDRP[rp0,rnd,grey]
PUSHB_1
 1
SZP0
MDAP[no-rnd]
RTG
ENDF
PUSHB_1
 1
FDEF
DUP
MDRP[rp0,min,white]
PUSHB_1
 12
CALL
ENDF
PUSHB_1
 2
FDEF
MPPEM
GT
IF
RCVT

StartChar: exclam
Encoding: 20 33 20
Width: 807
GlyphClass: 2
Flags: W
LayerCount: 2
Back
Fore
SplineSet
886 1279 m 1,0,1
 921 1273 921 1273 951 1273 c 0,2,3
 958 1273 958 1273 963 1274 c 0,4,5
 978 1275 978 1275 1006 1275 c 0,6,7
 1014 1275 1014 1275 1024 1276 c 0,8,9
 1045 1277 1045 1277 1060 1279 c 1,10,11
 973 1182 973 1182 902 1094 c 0,12,13
 732 878 732 878 671 789 c 2,14,-1
 346 331 l 2,15,16
 335 315 335 315 324.5 315 c 128,-1,17
 314 315 314 315 314 323 c 0,18,19
 314 339 314 339 338 383 c 2,20,-1
 500 662 l 1,21,-1
 784 1126 l 1,22,-1
 886 1279 l 1,0,1
137 16 m 128,-1,24
 120 34 120 34 120 56.5 c 128,-1,25
 120 79 120 79 128 95.5 c 128,-1,26
 136 112 136 112 150 125 c 0,27,28
 181 154 181 154 216 154 c 0,29,30
 282 154 282 154 282 91 c 0,31,32
 282 34 282 34 218 6 c 0,33,34
 200 -2 200 -2 177 -2 c 128,-1,23
 154 -2 154 -2 137 16 c 128,-1,24
EndSplineSet
Validated: 1
EndChar

StartChar: quotedbl
Encoding: 21 34 21
Width: 1430
GlyphClass: 2
Flags: W
LayerCount: 2
Back
Fore
SplineSet
1150 1175 m 0,0,1
 1150 1184 1150 1184 1176 1231 c 2,2,-1
 1294 1446 l 2,3,4
 1300 1458 1300 1458 1305 1468 c 2,5,-1
 1318 1495 l 1,6,7
 1366 1585 1366 1585 1393 1609 c 0,8,9
 1433 1643 1433 1643 1470.5 1644.5 c 128,-1,10
 1508 1646 1508 1646 1518.5 1634.5 c 128,-1,11
 1529 1623 1529 1623 1529 1607 c 128,-1,12
 1529 1591 1529 1591 1523.5 1577.5 c 128,-1,13
 1518 1564 1518 1564 1500 1540.5 c 128,-1,14
 1482 1517 1482 1517 1448 1478 c 2,15,-1
 1255 1255 l 1,16,-1
 1197 1192 l 2,17,18
 1169 1164 1169 1164 1159.5 1164 c 128,-1,19
 1150 1164 1150 1164 1150 1175 c 0,0,1
793 1175 m 0,20,21
 793 1181 793 1181 798 1192 c 2,22,-1
 936 1446 l 2,23,24
 943 1458 943 1458 948 1468 c 2,25,-1
 961 1495 l 1,26,27
 1009 1585 1009 1585 1036 1609 c 0,28,29
 1076 1643 1076 1643 1113.5 1644.5 c 128,-1,30
 1151 1646 1151 1646 1161 1634.5 c 128,-1,31
 1171 1623 1171 1623 1171 1607 c 128,-1,32
 1171 1591 1171 1591 1165.5 1577.5 c 128,-1,33
 1160 1564 1160 1564 1142 1540.5 c 128,-1,34
 1124 1517 1124 1517 1090 1478 c 2,35,-1
 898 1255 l 2,36,37
 817 1164 817 1164 805 1164 c 128,-1,38
 793 1164 793 1164 793 1175 c 0,20,21
EndSplineSet
Validated: 1
EndChar

StartChar: numbersign
Encoding: 22 35 22
Width: 1270
GlyphClass: 2
Flags: W
LayerCount: 2
Back
Fore
SplineSet
409 22 m 1,0,1
 399 24 399 24 386 24 c 0,2,3
 367 24 367 24 337 22 c 1,4,-1
 700 531 l 1,5,-1
 479 531 l 1,6,-1
 116 22 l 1,7,8
 106 24 106 24 94 24 c 0,9,10
 74 24 74 24 46 22 c 1,11,-1
 409 531 l 1,12,-1
 218 531 l 1,13,-1
 241 558 l 2,14,15
 250 569 250 569 258 584 c 1,16,-1
 447 584 l 1,17,-1
 617 823 l 1,18,-1
 398 823 l 1,19,-1
 421 851 l 2,20,21
 430 862 430 862 439 876 c 1,22,-1
 655 876 l 1,23,-1
 1009 1373 l 1,24,25
 1026 1368 1026 1368 1039 1368 c 0,26,27
 1069 1368 1069 1368 1078 1371 c 1,28,-1
 725 876 l 1,29,-1
 946 876 l 1,30,-1
 1301 1373 l 1,31,32
 1318 1368 1318 1368 1335 1368 c 0,33,34
 1361 1368 1361 1368 1370 1371 c 1,35,-1
 1017 876 l 1,36,-1
 1197 876 l 1,37,38
 1172 842 1172 842 1168 823 c 1,39,-1
 979 823 l 1,40,-1
 809 584 l 1,41,-1
 1017 584 l 1,42,43
 993 550 993 550 988 531 c 1,44,-1
 771 531 l 1,45,-1
 409 22 l 1,0,1
738 584 m 1,46,-1
 908 823 l 1,47,-1
 687 823 l 1,48,-1
 517 584 l 1,49,-1
 738 584 l 1,46,-1
EndSplineSet
Validated: 1
EndChar

StartChar: dollar
Encoding: 23 36 23
Width: 975
GlyphClass: 2
Flags: W
LayerCount: 2
Back
Fore
SplineSet
168 22 m 1,0,-1
 154 24 l 2,1,2
 134 24 134 24 130 22 c 2,3,-1
 330 291 l 1,4,5
 247 322 247 322 247 396 c 0,6,7
 247 434 247 434 268 464 c 0,8,9
 288 492 288 492 316 498 c 0,10,11
 326 500 326 500 335 500 c 0,12,13
 374 499 374 499 374 461 c 0,14,15
 374 439 374 439 360 423 c 128,-1,16
 346 407 346 407 324.5 403.5 c 128,-1,17
 303 400 303 400 287 416 c 1,18,-1
 287 401 l 2,19,20
 287 344 287 344 350 318 c 1,21,-1
 641 709 l 1,22,23
 638 718 638 718 628 740 c 0,24,25
 602 799 602 799 602 858 c 128,-1,26
 602 917 602 917 622 964 c 0,27,28
 642 1009 642 1009 680 1048 c 0,29,30
 765 1135 765 1135 883 1153 c 0,31,32
 903 1156 903 1156 924 1156 c 0,33,-1
 971 1152 l 1,34,-1
 1140 1379 l 1,35,36
 1149 1376 1149 1376 1158 1376 c 0,37,38
 1169 1376 1169 1376 1179 1378 c 1,39,-1
 1004 1144 l 1,40,41
 1099 1113 1099 1113 1099 1037 c 0,42,43
 1099 977 1099 977 1054 947 c 0,44,45
 1016 922 1016 922 994 936.5 c 128,-1,46
 972 951 972 951 972 972.5 c 128,-1,47
 972 994 972 994 985.5 1010 c 128,-1,48
 999 1026 999 1026 1020.5 1030 c 128,-1,49
 1042 1034 1042 1034 1059 1018 c 1,50,51
 1060 1022 1060 1022 1060 1040 c 128,-1,52
 1060 1058 1060 1058 1040 1081.5 c 128,-1,53
 1020 1105 1020 1105 985 1119 c 1,54,-1
 760 817 l 1,55,56
 800 730 800 730 800 665.5 c 128,-1,57
 800 601 800 601 770 534 c 0,58,59
 741 467 741 467 693 415 c 0,60,61
 584 298 584 298 454 280 c 0,62,63
 432 277 432 277 412 277 c 0,64,65
 386 277 386 277 361 282 c 1,66,-1
 168 22 l 1,0,-1
953 1128 m 1,67,68
 936 1131 936 1131 918 1131 c 0,69,70
 902 1131 902 1131 886 1129 c 0,71,72
 853 1125 853 1125 822 1106 c 0,73,74
 794 1090 794 1090 770 1064 c 0,75,76
 718 1008 718 1008 718 960 c 256,77,78
 718 910 718 910 746 848 c 1,79,-1
 953 1128 l 1,67,68
381 309 m 1,80,81
 399 305 399 305 418 305 c 0,82,83
 438 305 438 305 454 308 c 0,84,85
 497 316 497 316 532 333 c 0,86,87
 572 352 572 352 606 384 c 0,88,89
 684 457 684 457 684 552 c 0,90,91
 684 600 684 600 654 676 c 1,92,-1
 381 309 l 1,80,81
EndSplineSet
Validated: 1
EndChar

StartChar: percent
Encoding: 24 37 24
Width: 1594
GlyphClass: 2
Flags: W
LayerCount: 2
Back
Fore
SplineSet
559.5 849 m 128,-1,1
 507 830 507 830 461.5 830 c 128,-1,2
 416 830 416 830 388 842 c 128,-1,3
 360 854 360 854 342 874 c 0,4,5
 308 910 308 910 308 955.5 c 128,-1,6
 308 1001 308 1001 326.5 1047 c 128,-1,7
 345 1093 345 1093 378 1140 c 128,-1,8
 411 1187 411 1187 455.5 1231 c 128,-1,9
 500 1275 500 1275 552 1309 c 0,10,11
 665 1384 665 1384 772 1384 c 0,12,13
 831 1384 831 1384 862 1352 c 128,-1,14
 893 1320 893 1320 893 1270.5 c 128,-1,15
 893 1221 893 1221 875 1169.5 c 128,-1,16
 857 1118 857 1118 825.5 1069 c 128,-1,17
 794 1020 794 1020 751.5 976.5 c 128,-1,18
 709 933 709 933 660.5 900.5 c 128,-1,0
 612 868 612 868 559.5 849 c 128,-1,1
1236 1373 m 1,19,20
 1254 1368 1254 1368 1263 1368 c 0,21,22
 1289 1368 1289 1368 1298 1371 c 1,23,-1
 318 -5 l 1,24,25
 307 -2 307 -2 294 -2 c 0,26,27
 274 -2 274 -2 253 -5 c 1,28,-1
 1236 1373 l 1,19,20
416 928 m 0,29,30
 416 862 416 862 484 862 c 0,31,32
 558 862 558 862 650 928 c 0,33,34
 790 1028 790 1028 846 1174 c 0,35,36
 863 1221 863 1221 863 1265 c 0,37,38
 863 1347 863 1347 799 1347 c 0,39,40
 686 1347 686 1347 524 1159 c 0,41,42
 470 1096 470 1096 443 1033 c 128,-1,43
 416 970 416 970 416 928 c 0,29,30
702 84 m 0,44,45
 693 108 693 108 693 138.5 c 128,-1,46
 693 169 693 169 712 215 c 128,-1,47
 731 261 731 261 764 307.5 c 128,-1,48
 797 354 797 354 841.5 398.5 c 128,-1,49
 886 443 886 443 938 477 c 0,50,51
 1053 552 1053 552 1158 552 c 0,52,53
 1217 552 1217 552 1248 519.5 c 128,-1,54
 1279 487 1279 487 1279 437.5 c 128,-1,55
 1279 388 1279 388 1261 337 c 128,-1,56
 1243 286 1243 286 1211.5 237 c 128,-1,57
 1180 188 1180 188 1137.5 144.5 c 128,-1,58
 1095 101 1095 101 1046 68 c 0,59,60
 941 -2 941 -2 841 -2 c 0,61,62
 733 -2 733 -2 702 84 c 0,44,45
1248 432 m 0,63,64
 1248 514 1248 514 1186 514 c 0,65,66
 1082 514 1082 514 910 315 c 0,67,68
 801 188 801 188 801 93 c 0,69,70
 801 28 801 28 871 28 c 0,71,72
 944 28 944 28 1036 94 c 0,73,74
 1175 196 1175 196 1230 342 c 0,75,76
 1248 389 1248 389 1248 432 c 0,63,64
EndSplineSet
Validated: 1
EndChar

StartChar: ampersand
Encoding: 25 38 25
Width: 1452
GlyphClass: 2
Flags: W
LayerCount: 2
Back
Fore
SplineSet
471 18 m 1,0,1
 441 24 441 24 405 24 c 0,2,3
 350 24 350 24 310 19 c 1,4,-1
 394 159 l 1,5,6
 270 257 270 257 232 410 c 0,7,8
 220 460 220 460 220 515 c 128,-1,9
 220 570 220 570 234.5 618.5 c 128,-1,10
 249 667 249 667 275 703 c 0,11,12
 330 779 330 779 412 779 c 0,13,14
 475 779 475 779 520 724 c 0,15,16
 570 663 570 663 570 564 c 0,17,18
 570 481 570 481 505 322 c 0,19,20
 485 273 485 273 460 224 c 1,21,22
 699 593 699 593 958 853 c 1,23,-1
 1093 984 l 2,24,25
 1111 1000 1111 1000 1122 1000 c 128,-1,26
 1133 1000 1133 1000 1133 992 c 0,27,28
 1133 983 1133 983 1078.5 930.5 c 128,-1,29
 1024 878 1024 878 945 783.5 c 128,-1,30
 866 689 866 689 790 582 c 0,31,32
 630 354 630 354 517 119 c 1,33,34
 580 93 580 93 645 93 c 0,35,36
 776 93 776 93 872 174 c 0,37,38
 962 255 962 255 962 353 c 0,39,40
 962 358 962 358 960 368 c 1,41,42
 920 370 920 370 920 404 c 0,43,44
 920 415 920 415 928.5 424 c 128,-1,45
 937 433 937 433 954 433 c 128,-1,46
 971 433 971 433 984 416 c 128,-1,47
 997 399 997 399 997 352 c 128,-1,48
 997 305 997 305 968 249 c 128,-1,49
 939 193 939 193 888 152 c 0,50,51
 783 66 783 66 644 66 c 0,52,53
 575 66 575 66 505 94 c 1,54,-1
 471 18 l 1,0,1
409 188 m 1,55,56
 540 431 540 431 540 575 c 0,57,58
 540 689 540 689 466 728 c 0,59,60
 445 739 445 739 420.5 739 c 128,-1,61
 396 739 396 739 369.5 720 c 128,-1,62
 343 701 343 701 322 670 c 0,63,64
 277 600 277 600 277 506 c 0,65,66
 277 311 277 311 409 188 c 1,55,56
EndSplineSet
Validated: 1
EndChar

StartChar: quotesingle
Encoding: 26 39 26
Width: 1072
GlyphClass: 2
Flags: W
LayerCount: 2
Back
Fore
SplineSet
793 1175 m 0,0,1
 793 1181 793 1181 798 1192 c 2,2,-1
 936 1446 l 2,3,4
 943 1458 943 1458 948 1468 c 2,5,-1
 961 1495 l 1,6,7
 1009 1585 1009 1585 1036 1609 c 0,8,9
 1076 1643 1076 1643 1113.5 1644.5 c 128,-1,10
 1151 1646 1151 1646 1161 1634.5 c 128,-1,11
 1171 1623 1171 1623 1171 1607 c 128,-1,12
 1171 1591 1171 1591 1165.5 1577.5 c 128,-1,13
 1160 1564 1160 1564 1142 1540.5 c 128,-1,14
 1124 1517 1124 1517 1090 1478 c 2,15,-1
 898 1255 l 2,16,17
 817 1164 817 1164 805 1164 c 128,-1,18
 793 1164 793 1164 793 1175 c 0,0,1
EndSplineSet
Validated: 1
EndChar

StartChar: parenleft
Encoding: 27 40 27
Width: 1412
GlyphClass: 2
Flags: W
LayerCount: 2
Back
Fore
SplineSet
579 -165 m 0,0,1
 458 29 458 29 458 264 c 0,2,3
 459 371 459 371 483 484 c 0,4,5
 559 842 559 842 862 1120 c 0,6,7
 1057 1298 1057 1298 1304 1406 c 0,8,9
 1333 1419 1333 1419 1343 1419 c 128,-1,10
 1353 1419 1353 1419 1353 1412 c 128,-1,11
 1353 1405 1353 1405 1351 1403 c 0,12,13
 1348 1400 1348 1400 1335 1393 c 0,14,15
 937 1180 937 1180 732 840 c 0,16,17
 549 536 549 536 549 184 c 0,18,19
 548 166 548 166 549 147 c 0,20,21
 556 6 556 6 604 -146 c 0,22,23
 616 -187 616 -187 601 -187 c 0,24,25
 593 -187 593 -187 579 -165 c 0,0,1
EndSplineSet
Validated: 1
EndChar

StartChar: parenright
Encoding: 28 41 28
Width: 1412
GlyphClass: 2
Flags: W
LayerCount: 2
Back
Fore
SplineSet
880 -48 m 0,0,1
 768 -120 768 -120 691.5 -153.5 c 128,-1,2
 615 -187 615 -187 605 -187 c 128,-1,3
 595 -187 595 -187 595 -180 c 128,-1,4
 595 -173 595 -173 597 -171 c 128,-1,5
 599 -169 599 -169 613 -161 c 0,6,7
 1011 53 1011 53 1216 392 c 0,8,9
 1399.49261084 695.285714286 1399.49261084 695.285714286 1399.49261084 1048.28617535 c 0,10,11
 1399.49261084 1066.57635468 1399.49261084 1066.57635468 1399 1085 c 0,12,13
 1394 1218 1394 1218 1344 1378 c 0,14,15
 1333 1416 1333 1416 1347 1419 c 0,16,17
 1353 1419 1353 1419 1369 1397 c 0,18,19
 1482 1215 1482 1215 1487 994 c 0,20,21
 1487.56916996 976.403162055 1487.56916996 976.403162055 1487.56916996 958.918808293 c 0,22,23
 1487.56916996 607.774703557 1487.56916996 607.774703557 1258 302 c 0,24,25
 1108 101 1108 101 880 -48 c 0,0,1
EndSplineSet
Validated: 1
EndChar

StartChar: asterisk
Encoding: 29 42 29
Width: 1060
GlyphClass: 2
Flags: W
LayerCount: 2
Back
Fore
SplineSet
853 1352 m 1,0,1
 890 1287 890 1287 905 1270 c 1,2,3
 881 1258 881 1258 856 1246 c 0,4,5
 737 1191 737 1191 654 1143 c 1,6,7
 777 1078 777 1078 838 1065 c 1,8,9
 824 1048 824 1048 803.5 1026 c 128,-1,10
 783 1004 783 1004 765 978 c 1,11,-1
 702 1054 l 2,12,13
 671 1089 671 1089 633 1125 c 1,14,15
 622 1103 622 1103 610 1074 c 2,16,-1
 586 1016 l 2,17,18
 563 955 563 955 548 901 c 1,19,20
 540 902 540 902 527.5 904.5 c 128,-1,21
 515 907 515 907 501 909 c 0,22,23
 466 914 466 914 445 914 c 1,24,25
 559 1054 559 1054 610 1131 c 1,26,27
 568 1122 568 1122 515 1108 c 2,28,-1
 430 1084 l 2,29,30
 397 1075 397 1075 372 1066 c 1,31,-1
 382 1113 l 2,32,33
 389 1142 389 1142 390 1168 c 1,34,-1
 489 1161 l 2,35,36
 526.333333333 1158.33333333 526.333333333 1158.33333333 571.666666667 1158.33333333 c 0,37,38
 594.333333333 1158.33333333 594.333333333 1158.33333333 619 1159 c 1,39,40
 602 1254 602 1254 563 1342 c 1,41,42
 615 1365 615 1365 667 1393 c 1,43,-1
 662 1352 l 2,44,45
 651 1276 651 1276 644 1164 c 1,46,47
 739 1236 739 1236 785 1283 c 2,48,-1
 853 1352 l 1,0,1
EndSplineSet
Validated: 1
EndChar

StartChar: plus
Encoding: 30 43 30
Width: 937
GlyphClass: 2
Flags: W
LayerCount: 2
Back
Fore
SplineSet
329 172 m 1,0,1
 309 176 309 176 299 176 c 0,2,3
 280 176 280 176 264 172 c 1,4,-1
 444 465 l 1,5,-1
 172 465 l 1,6,7
 203 500 203 500 213 520 c 1,8,-1
 478 520 l 1,9,-1
 648 797 l 1,10,11
 668 793 668 793 677 793 c 0,12,13
 691 793 691 793 717 797 c 1,14,-1
 545 520 l 1,15,-1
 821 520 l 1,16,17
 807 506 807 506 800 494 c 2,18,-1
 781 465 l 1,19,-1
 511 465 l 1,20,-1
 329 172 l 1,0,1
EndSplineSet
Validated: 1
EndChar

StartChar: comma
Encoding: 31 44 31
Width: 726
GlyphClass: 2
Flags: W
LayerCount: 2
Back
Fore
SplineSet
-46 -213 m 0,0,1
 -60 -213 -60 -213 -60 -201 c 0,2,3
 -60 -190 -60 -190 -36 -183 c 128,-1,4
 -12 -176 -12 -176 17.5 -155.5 c 128,-1,5
 47 -135 47 -135 72 -110 c 0,6,7
 130 -54 130 -54 130 -29 c 0,8,9
 130 8 130 8 122 30 c 0,10,11
 111 65 111 65 111 85 c 128,-1,12
 111 105 111 105 118 121 c 128,-1,13
 125 137 125 137 138 150 c 0,14,15
 167 182 167 182 207 182 c 0,16,17
 271 182 271 182 271 105 c 0,18,19
 271 -14 271 -14 105 -143 c 0,20,21
 13 -213 13 -213 -46 -213 c 0,0,1
EndSplineSet
Validated: 1
EndChar

StartChar: hyphen
Encoding: 32 45 32
Width: 1068
GlyphClass: 2
Flags: W
LayerCount: 2
Back
Fore
SplineSet
326 461 m 1,0,1
 339 474 339 474 344.5 492 c 128,-1,2
 350 510 350 510 355 518 c 1,3,-1
 736 518 l 1,4,5
 712 487 712 487 708 461 c 1,6,-1
 326 461 l 1,0,1
EndSplineSet
Validated: 1
EndChar

StartChar: period
Encoding: 33 46 33
Width: 726
GlyphClass: 2
Flags: W
LayerCount: 2
Back
Fore
SplineSet
99 18.5 m 128,-1,1
 79 39 79 39 79 66 c 128,-1,2
 79 93 79 93 88.5 112.5 c 128,-1,3
 98 132 98 132 114 148 c 0,4,5
 150 182 150 182 191 182 c 0,6,7
 270 182 270 182 270 108 c 0,8,9
 270 66 270 66 242 41 c 0,10,11
 195 -2 195 -2 157 -2 c 128,-1,0
 119 -2 119 -2 99 18.5 c 128,-1,1
EndSplineSet
Validated: 1
EndChar

StartChar: slash
Encoding: 34 47 34
Width: 832
GlyphClass: 2
Flags: W
LayerCount: 2
Back
Fore
SplineSet
76 -106 m 1,0,1
 66 -104 66 -104 54 -104 c 0,2,3
 32 -104 32 -104 6 -106 c 1,4,-1
 1066 1382 l 1,5,6
 1080 1376 1080 1376 1099 1376 c 0,7,8
 1107 1376 1107 1376 1119.5 1377 c 128,-1,9
 1132 1378 1132 1378 1137 1378 c 1,10,-1
 76 -106 l 1,0,1
EndSplineSet
Validated: 1
EndChar

StartChar: zero
Encoding: 35 48 35
Width: 1273
GlyphClass: 2
Flags: W
LayerCount: 2
Back
Fore
SplineSet
237.5 78.5 m 128,-1,1
 179 162 179 162 179 295.5 c 128,-1,2
 179 429 179 429 219.5 556.5 c 128,-1,3
 260 684 260 684 329 806 c 128,-1,4
 398 928 398 928 489.5 1037 c 128,-1,5
 581 1146 581 1146 684 1228 c 0,6,7
 907 1408 907 1408 1100 1408 c 0,8,9
 1216 1408 1216 1408 1276 1318 c 0,10,11
 1332 1235 1332 1235 1332 1084 c 0,12,13
 1332 821 1332 821 1152 532 c 0,14,15
 976 246 976 246 732 98 c 0,16,17
 561 -5 561 -5 405 -5 c 0,18,0
 296 -5 296 -5 237.5 78.5 c 128,-1,1
288 225 m 0,19,20
 288 22 288 22 430 22 c 0,21,22
 588 22 588 22 818 227 c 0,23,24
 1055 439 1055 439 1183 724 c 0,25,26
 1277 932 1277 932 1277 1129 c 0,27,28
 1277 1331 1277 1331 1172 1372 c 0,29,30
 1140 1384 1140 1384 1093.5 1384 c 128,-1,31
 1047 1384 1047 1384 983.5 1349.5 c 128,-1,32
 920 1315 920 1315 853 1255.5 c 128,-1,33
 786 1196 786 1196 718 1116.5 c 128,-1,34
 650 1037 650 1037 587 945.5 c 128,-1,35
 524 854 524 854 469.5 756.5 c 128,-1,36
 415 659 415 659 374 564 c 0,37,38
 288 363 288 363 288 225 c 0,19,20
EndSplineSet
Validated: 1
EndChar

StartChar: one
Encoding: 36 49 36
Width: 987
GlyphClass: 2
Flags: W
LayerCount: 2
Back
Fore
SplineSet
1128 1414.5 m 128,-1,1
 1137 1424 1137 1424 1149 1424 c 128,-1,2
 1161 1424 1161 1424 1161 1409 c 128,-1,3
 1161 1394 1161 1394 1127.5 1350.5 c 128,-1,4
 1094 1307 1094 1307 1047 1232 c 2,5,-1
 940 1056 l 1,6,-1
 810 830 l 1,7,-1
 667 572 l 1,8,-1
 520 296 l 1,9,-1
 377 18 l 1,10,11
 368 18 368 18 354 19 c 2,12,-1
 292 23 l 2,13,14
 277 24 277 24 257 24 c 0,15,16
 205 24 205 24 172 13 c 1,17,-1
 493 484 l 1,18,-1
 813 972 l 1,19,20
 595 748 595 748 514.5 681.5 c 128,-1,21
 434 615 434 615 400 591 c 0,22,23
 325 537 325 537 302 537 c 128,-1,24
 279 537 279 537 279 557 c 256,25,26
 279 577 279 577 313 588 c 1,27,-1
 334 598 l 2,28,29
 425 641 425 641 608 816 c 1,30,-1
 757 964 l 1,31,-1
 900 1119 l 1,32,33
 1046 1284 1046 1284 1099 1373 c 0,34,0
 1119 1405 1119 1405 1128 1414.5 c 128,-1,1
EndSplineSet
Validated: 1
EndChar

StartChar: two
Encoding: 37 50 37
Width: 1444
GlyphClass: 2
Flags: W
LayerCount: 2
Back
Fore
SplineSet
1195 336 m 0,0,1
 1210 336 1210 336 1210 313.5 c 128,-1,2
 1210 291 1210 291 1200.5 265.5 c 128,-1,3
 1191 240 1191 240 1175 212 c 0,4,5
 1050 -2 1050 -2 847 -2 c 0,6,7
 751 -2 751 -2 660 72 c 0,8,9
 541 169 541 169 412 169 c 0,10,11
 314 169 314 169 204 109 c 256,12,13
 94 49 94 49 54 -23 c 0,14,15
 52 -27 52 -27 51 -33 c 128,-1,16
 50 -39 50 -39 47 -46 c 0,17,18
 42 -58 42 -58 22 -58 c 0,19,20
 11 -58 11 -58 11 -34 c 128,-1,21
 11 -10 11 -10 37.5 34.5 c 128,-1,22
 64 79 64 79 124 133 c 0,23,24
 266 262 266 262 565 409 c 0,25,26
 889 570 889 570 1068 790 c 0,27,28
 1232 992 1232 992 1232 1186 c 0,29,30
 1232 1348 1232 1348 1144 1374 c 0,31,32
 1116 1383 1116 1383 1062 1383 c 128,-1,33
 1008 1383 1008 1383 937 1350.5 c 128,-1,34
 866 1318 866 1318 800 1265 c 128,-1,35
 734 1212 734 1212 676 1146 c 128,-1,36
 618 1080 618 1080 575 1013 c 0,37,38
 482 868 482 868 482 779 c 0,39,40
 482 737 482 737 506 709.5 c 128,-1,41
 530 682 530 682 573 682 c 128,-1,42
 616 682 616 682 658 698.5 c 128,-1,43
 700 715 700 715 742 745 c 0,44,45
 832 808 832 808 903 911 c 0,46,47
 914 929 914 929 924.5 929 c 128,-1,48
 935 929 935 929 935 920.5 c 128,-1,49
 935 912 935 912 924 893.5 c 128,-1,50
 913 875 913 875 892 850 c 0,51,52
 847 794 847 794 787 746 c 0,53,54
 675 655 675 655 578 655 c 256,55,56
 481 655 481 655 439 710 c 0,57,58
 410 747 410 747 410 809 c 128,-1,59
 410 871 410 871 436.5 940 c 128,-1,60
 463 1009 463 1009 509 1075.5 c 128,-1,61
 555 1142 555 1142 619 1202.5 c 128,-1,62
 683 1263 683 1263 758 1310 c 0,63,64
 920 1410 920 1410 1085 1410 c 0,65,66
 1219 1410 1219 1410 1294 1330 c 0,67,68
 1363 1258 1363 1258 1363 1147.5 c 128,-1,69
 1363 1037 1363 1037 1316 937 c 128,-1,70
 1269 837 1269 837 1178 742 c 0,71,72
 993 549 993 549 653 399 c 0,73,74
 348 263 348 263 292 227 c 0,75,76
 208 172 208 172 157 123 c 1,77,78
 324 216 324 216 460 230 c 0,79,80
 506 234 506 234 566 234 c 0,81,82
 690 234 690 234 795 165 c 0,83,84
 882 108 882 108 931.5 108 c 128,-1,85
 981 108 981 108 1016.5 120 c 128,-1,86
 1052 132 1052 132 1083 156 c 0,87,88
 1151 207 1151 207 1181 294 c 0,89,90
 1187 308 1187 308 1187 322 c 128,-1,91
 1187 336 1187 336 1195 336 c 0,0,1
EndSplineSet
Validated: 1
EndChar

StartChar: three
Encoding: 38 51 38
Width: 1338
GlyphClass: 2
Flags: W
LayerCount: 2
Back
Fore
SplineSet
1035 1410 m 0,0,1
 1329 1410 1329 1410 1329 1159 c 0,2,3
 1329 1038 1329 1038 1204 898 c 0,4,5
 1063 738 1063 738 832 643 c 1,6,7
 868.3 650.2 868.3 650.2 900.82 650.2 c 0,8,9
 976.7 650.2 976.7 650.2 1032 611 c 0,10,11
 1113 553 1113 553 1113 435 c 0,12,13
 1113 306 1113 306 993 150 c 0,14,15
 868 -14 868 -14 683 -119 c 0,16,17
 474 -238 474 -238 258 -238 c 0,18,19
 120 -238 120 -238 5 -174 c 0,20,21
 -105 -114 -105 -114 -105 -49 c 0,22,23
 -105 -20 -105 -20 -87.5 -1 c 128,-1,24
 -70 18 -70 18 -42.5 18 c 128,-1,25
 -15 18 -15 18 2 -1 c 128,-1,26
 19 -20 19 -20 19 -50 c 128,-1,27
 19 -80 19 -80 14 -110 c 1,28,29
 58 -181 58 -181 184 -208 c 0,30,31
 220 -215 220 -215 281 -215 c 128,-1,32
 342 -215 342 -215 429.5 -186.5 c 128,-1,33
 517 -158 517 -158 596 -108 c 128,-1,34
 675 -58 675 -58 742.5 11 c 128,-1,35
 810 80 810 80 859 161 c 0,36,37
 964 335 964 335 964 515 c 0,38,39
 964 611 964 611 866 611 c 0,40,41
 781 611 781 611 715 578 c 0,42,43
 600 519 600 519 556 453 c 0,44,45
 549 442 549 442 546.5 434 c 128,-1,46
 544 426 544 426 538.5 410 c 128,-1,47
 533 394 533 394 515.5 394 c 128,-1,48
 498 394 498 394 498 415 c 0,49,50
 498 443 498 443 524.5 470.5 c 128,-1,51
 551 498 551 498 576 519.5 c 128,-1,52
 601 541 601 541 634 562 c 0,53,54
 691 600 691 600 806 658.5 c 128,-1,55
 921 717 921 717 994.5 783.5 c 128,-1,56
 1068 850 1068 850 1113 921 c 0,57,58
 1196 1052 1196 1052 1196 1203 c 0,59,60
 1196 1348 1196 1348 1100 1374 c 0,61,62
 1070 1383 1070 1383 1022.5 1383 c 128,-1,63
 975 1383 975 1383 912.5 1353.5 c 128,-1,64
 850 1324 850 1324 789.5 1276 c 128,-1,65
 729 1228 729 1228 674.5 1166 c 128,-1,66
 620 1104 620 1104 578 1039 c 0,67,68
 488 897 488 897 488 803.5 c 128,-1,69
 488 710 488 710 561 710 c 0,70,71
 630 710 630 710 722 784 c 0,72,73
 856 892 856 892 922 1056 c 0,74,75
 943 1106 943 1106 947.5 1139 c 128,-1,76
 952 1172 952 1172 961 1172 c 128,-1,77
 970 1172 970 1172 970 1133 c 128,-1,78
 970 1094 970 1094 949.5 1038 c 128,-1,79
 929 982 929 982 894.5 930.5 c 128,-1,80
 860 879 860 879 816.5 833.5 c 128,-1,81
 773 788 773 788 726 754 c 0,82,83
 627 683 627 683 552 683 c 0,84,85
 450 683 450 683 417 770 c 0,86,87
 406 798 406 798 406 845.5 c 128,-1,88
 406 893 406 893 432.5 958 c 128,-1,89
 459 1023 459 1023 505.5 1087 c 128,-1,90
 552 1151 552 1151 613.5 1209.5 c 128,-1,91
 675 1268 675 1268 745 1312 c 0,92,93
 898 1410 898 1410 1035 1410 c 0,0,1
EndSplineSet
Validated: 1
EndChar

StartChar: four
Encoding: 39 52 39
Width: 1577
GlyphClass: 2
Flags: W
LayerCount: 2
Back
Fore
SplineSet
1127 446 m 0,0,1
 1073 446 1073 446 1025 453 c 1,2,3
 834 181 834 181 767.5 63.5 c 128,-1,4
 701 -54 701 -54 673 -115 c 1,5,-1
 537 -43 l 1,6,7
 571 12 571 12 614 75 c 0,8,9
 740 250 740 250 803 330 c 2,10,-1
 921 477 l 1,11,12
 735 533 735 533 667.5 556 c 128,-1,13
 600 579 600 579 547 595 c 1,14,15
 410 502 410 502 299 494 c 0,16,17
 267 491 267 491 217 491 c 128,-1,18
 167 491 167 491 123.5 511 c 128,-1,19
 80 531 80 531 80 560 c 128,-1,20
 80 589 80 589 101.5 607.5 c 128,-1,21
 123 626 123 626 157 638 c 0,22,23
 221 659 221 659 317 659 c 128,-1,24
 413 659 413 659 505 640 c 1,25,26
 558 686 558 686 614 744 c 0,27,28
 766 907 766 907 831 988 c 2,29,-1
 948 1136 l 2,30,31
 998 1204 998 1204 1042 1268 c 2,32,-1
 1119 1386 l 1,33,34
 1161 1391 1161 1391 1195 1396 c 2,35,-1
 1258 1405 l 2,36,37
 1323 1414 1323 1414 1362.5 1414 c 128,-1,38
 1402 1414 1402 1414 1402 1402 c 0,39,40
 1402 1394 1402 1394 1371 1381.5 c 128,-1,41
 1340 1369 1340 1369 1322 1357.5 c 128,-1,42
 1304 1346 1304 1346 1285 1330 c 128,-1,43
 1266 1314 1266 1314 1244 1292 c 2,44,-1
 1190 1239 l 2,45,46
 1172 1221 1172 1221 1136 1181 c 2,47,-1
 950 974 l 1,48,49
 789 803 789 803 726 743 c 128,-1,50
 663 683 663 683 612 643 c 2,51,-1
 584 621 l 1,52,53
 727 583 727 583 800 562 c 2,54,-1
 955 518 l 1,55,-1
 1094 676 l 1,56,57
 1323 923 1323 923 1455 991 c 1,58,-1
 1478 1002 l 2,59,60
 1492 1008 1492 1008 1501 1008 c 128,-1,61
 1510 1008 1510 1008 1510 1001 c 0,62,63
 1510 992 1510 992 1481 971.5 c 128,-1,64
 1452 951 1452 951 1403 904 c 128,-1,65
 1354 857 1354 857 1297 793.5 c 128,-1,66
 1240 730 1240 730 1178 654 c 2,67,-1
 1055 494 l 1,68,69
 1116 480 1116 480 1171 480 c 128,-1,70
 1226 480 1226 480 1264.5 484.5 c 128,-1,71
 1303 489 1303 489 1337 496 c 0,72,73
 1437 519 1437 519 1491 563 c 0,74,75
 1508 577 1508 577 1518 577 c 128,-1,76
 1528 577 1528 577 1528 570.5 c 128,-1,77
 1528 564 1528 564 1519 556 c 2,78,-1
 1496 536 l 1,79,80
 1384 446 1384 446 1127 446 c 0,0,1
144 557 m 0,81,82
 144 516 144 516 251 516 c 0,83,84
 347 516 347 516 448 594 c 2,85,-1
 475 615 l 1,86,87
 388 635 388 635 309.5 635 c 128,-1,88
 231 635 231 635 187.5 613 c 128,-1,89
 144 591 144 591 144 557 c 0,81,82
EndSplineSet
Validated: 1
EndChar

StartChar: five
Encoding: 40 53 40
Width: 1231
GlyphClass: 2
Flags: W
LayerCount: 2
Back
Fore
SplineSet
498 789 m 1,0,1
 579 836 579 836 670.5 836 c 128,-1,2
 762 836 762 836 822 814.5 c 128,-1,3
 882 793 882 793 923 752 c 0,4,5
 1002.3956044 671.67032967 1002.3956044 671.67032967 1002.3956044 527.64967999 c 0,6,7
 1002.3956044 517.483516484 1002.3956044 517.483516484 1002 507 c 0,8,9
 994 312 994 312 850 118 c 0,10,11
 710 -72 710 -72 496 -192 c 0,12,13
 269 -317 269 -317 42 -317 c 0,14,15
 -123 -317 -123 -317 -225 -258 c 0,16,17
 -296 -213 -296 -213 -296 -165 c 0,18,19
 -296 -151 -296 -151 -288 -143 c 128,-1,20
 -280 -135 -280 -135 -268 -135 c 0,21,22
 -250 -135 -250 -135 -243 -152 c 0,23,24
 -230 -183 -230 -183 -215 -204 c 0,25,26
 -158 -288 -158 -288 48 -288 c 0,27,28
 253 -288 253 -288 450 -140 c 0,29,30
 629 -7 629 -7 748 200 c 0,31,32
 865 403 865 403 865 581 c 0,33,34
 865 747 865 747 746 784 c 0,35,36
 708 795 708 795 657 795 c 128,-1,37
 606 795 606 795 551 777.5 c 128,-1,38
 496 760 496 760 446 730 c 0,39,40
 342 667 342 667 285 575 c 0,41,42
 267 547 267 547 259 549 c 0,43,44
 243 553 243 553 246 564 c 128,-1,45
 249 575 249 575 262.5 595.5 c 128,-1,46
 276 616 276 616 296 640 c 0,47,48
 341 692 341 692 390 730 c 1,49,50
 665 1221 665 1221 748 1396 c 1,51,-1
 831 1400 l 2,52,53
 829 1397 829 1397 824 1387 c 2,54,-1
 814 1363 l 2,55,56
 807 1349 807 1349 798 1332 c 2,57,-1
 780 1297 l 1,58,59
 902 1410 902 1410 1026 1410 c 0,60,61
 1068 1410 1068 1410 1129 1390 c 128,-1,62
 1190 1370 1190 1370 1223.5 1370 c 128,-1,63
 1257 1370 1257 1370 1280 1373 c 128,-1,64
 1303 1376 1303 1376 1325 1386 c 0,65,66
 1381 1411 1381 1411 1421 1476 c 0,67,68
 1425 1483 1425 1483 1428.5 1491.5 c 128,-1,69
 1432 1500 1432 1500 1441 1500 c 256,70,71
 1450 1500 1450 1500 1450 1493 c 0,72,73
 1450 1478 1450 1478 1435 1449 c 128,-1,74
 1420 1420 1420 1420 1386.5 1381.5 c 128,-1,75
 1353 1343 1353 1343 1310 1315 c 0,76,77
 1216 1255 1216 1255 1099 1255 c 0,78,79
 1049 1255 1049 1255 1005 1268 c 0,80,81
 918 1295 918 1295 885 1295 c 128,-1,82
 852 1295 852 1295 813 1277.5 c 128,-1,83
 774 1260 774 1260 747 1231 c 1,84,-1
 524 832 l 2,85,86
 505 800 505 800 498 789 c 1,0,1
EndSplineSet
Validated: 1
EndChar

StartChar: six
Encoding: 41 54 41
Width: 1400
GlyphClass: 2
Flags: W
LayerCount: 2
Back
Fore
SplineSet
588.5 496.5 m 128,-1,1
 589 532 589 532 606.5 584 c 128,-1,2
 624 636 624 636 654 684.5 c 128,-1,3
 684 733 684 733 724.5 775.5 c 128,-1,4
 765 818 765 818 812 850 c 0,5,6
 913 917 913 917 1010 917 c 128,-1,7
 1107 917 1107 917 1155 863 c 0,8,9
 1201.08 811.16 1201.08 811.16 1201.08 718.3088 c 0,10,11
 1201.08 714.44 1201.08 714.44 1201 710.5 c 0,12,13
 1199 612 1199 612 1165.5 520.5 c 128,-1,14
 1132 429 1132 429 1077.5 349.5 c 128,-1,15
 1023 270 1023 270 952.5 204.5 c 128,-1,16
 882 139 882 139 806 92 c 0,17,18
 645 -5 645 -5 508 -5 c 0,19,20
 379 -5 379 -5 315 93 c 0,21,22
 259.746031746 178.222222222 259.746031746 178.222222222 259.746031746 321.329554044 c 0,23,24
 259.746031746 331.031746032 259.746031746 331.031746032 260 341 c 0,25,26
 266 582 266 582 456 866 c 0,27,28
 576 1047 576 1047 737 1184 c 0,29,30
 1000 1410 1000 1410 1245 1410 c 0,31,32
 1352 1410 1352 1410 1413 1364 c 0,33,34
 1465.07142857 1323.5 1465.07142857 1323.5 1465.07142857 1273.70153061 c 0,35,36
 1465.07142857 1271.85714286 1465.07142857 1271.85714286 1465 1270 c 0,37,38
 1465 1220 1465 1220 1443 1193 c 0,39,40
 1405 1147 1405 1147 1368.5 1147 c 128,-1,41
 1332 1147 1332 1147 1314.5 1166 c 128,-1,42
 1297 1185 1297 1185 1298 1218 c 128,-1,43
 1299 1251 1299 1251 1346 1279 c 0,44,45
 1379 1296 1379 1296 1380 1320.5 c 128,-1,46
 1381 1345 1381 1345 1347 1364 c 128,-1,47
 1313 1383 1313 1383 1240 1383 c 128,-1,48
 1167 1383 1167 1383 1084.5 1348 c 128,-1,49
 1002 1313 1002 1313 925 1252.5 c 128,-1,50
 848 1192 848 1192 778 1110.5 c 128,-1,51
 708 1029 708 1029 647.5 937 c 128,-1,52
 587 845 587 845 537.5 747 c 128,-1,53
 488 649 488 649 453 555 c 0,54,55
 379 356 379 356 377 242.5 c 0,56,57
 376.876923077 235.515384615 376.876923077 235.515384615 376.876923077 228.761775148 c 0,58,59
 376.876923077 125.769230769 376.876923077 125.769230769 405.5 76.5 c 0,60,61
 436 24 436 24 490.5 24 c 128,-1,62
 545 24 545 24 592 40.5 c 128,-1,63
 639 57 639 57 692 97 c 0,64,65
 802 180 802 180 933 366 c 0,66,67
 1045 528 1045 528 1084 684 c 0,68,69
 1097 733 1097 733 1098 776 c 0,70,71
 1098.01075269 777.23655914 1098.01075269 777.23655914 1098.01075269 778.459821945 c 0,72,73
 1098.01075269 891 1098.01075269 891 1007 891 c 0,74,75
 953 891 953 891 889 846.5 c 128,-1,76
 825 802 825 802 784.5 763.5 c 128,-1,77
 744 725 744 725 709 680 c 0,78,79
 631 580 631 580 616 488 c 0,80,81
 611 461 611 461 599.5 461 c 128,-1,0
 588 461 588 461 588.5 496.5 c 128,-1,1
EndSplineSet
Validated: 1
EndChar

StartChar: seven
Encoding: 42 55 42
Width: 1187
GlyphClass: 2
Flags: W
LayerCount: 2
Back
Fore
SplineSet
675 -520 m 0,0,1
 686 -531 686 -531 686 -538 c 128,-1,2
 686 -545 686 -545 678 -545 c 0,3,4
 671 -545 671 -545 642 -528 c 128,-1,5
 613 -511 613 -511 576 -470.5 c 128,-1,6
 539 -430 539 -430 508 -372 c 0,7,8
 439 -241 439 -241 439 -97 c 128,-1,9
 439 47 439 47 485 191 c 128,-1,10
 531 335 531 335 621 491 c 0,11,12
 805 810 805 810 1154 1147 c 1,13,-1
 1264 1251 l 1,14,15
 1168 1192 1168 1192 1065 1192 c 0,16,17
 1000 1192 1000 1192 964.5 1213 c 128,-1,18
 929 1234 929 1234 908 1248 c 2,19,-1
 871 1272 l 2,20,21
 821 1305 821 1305 782.5 1305 c 128,-1,22
 744 1305 744 1305 717.5 1303.5 c 128,-1,23
 691 1302 691 1302 662 1292 c 0,24,25
 592 1268 592 1268 545 1202 c 1,26,27
 423 1000 423 1000 342 926 c 0,28,29
 319 905 319 905 307.5 905 c 128,-1,30
 296 905 296 905 296 912 c 0,31,32
 296 920 296 920 321.5 946.5 c 128,-1,33
 347 973 347 973 381 1016.5 c 128,-1,34
 415 1060 415 1060 448 1115 c 0,35,36
 527 1247 527 1247 543 1366 c 0,37,38
 545 1386 545 1386 548.5 1395 c 128,-1,39
 552 1404 552 1404 563 1404 c 0,40,41
 581 1404 581 1404 581 1382 c 0,42,43
 581 1337 581 1337 561 1267 c 1,44,45
 679 1410 679 1410 846 1410 c 0,46,47
 931 1410 931 1410 1009 1360 c 2,48,-1
 1061 1325 l 2,49,50
 1126 1281 1126 1281 1205 1281 c 0,51,52
 1265 1281 1265 1281 1297.5 1301 c 128,-1,53
 1330 1321 1330 1321 1352 1342 c 2,54,-1
 1404 1389 l 2,55,56
 1426 1406 1426 1406 1445.5 1406 c 128,-1,57
 1465 1406 1465 1406 1465 1390 c 0,58,59
 1465 1381 1465 1381 1458 1374.5 c 128,-1,60
 1451 1368 1451 1368 1436 1357.5 c 128,-1,61
 1421 1347 1421 1347 1399 1329 c 2,62,-1
 1272 1216 l 1,63,-1
 1186 1134 l 1,64,65
 711 665 711 665 592 197 c 0,66,67
 555 49 555 49 555 -54.5 c 128,-1,68
 555 -158 555 -158 563.5 -220 c 128,-1,69
 572 -282 572 -282 586 -334 c 0,70,71
 619 -464 619 -464 675 -520 c 0,0,1
EndSplineSet
Validated: 1
EndChar

StartChar: eight
Encoding: 43 56 43
Width: 1310
GlyphClass: 2
Flags: W
LayerCount: 2
Back
Fore
SplineSet
677 791 m 1,0,1
 585 953 585 953 585 1059 c 0,2,3
 585 1190 585 1190 703 1296 c 0,4,5
 829 1410 829 1410 1004 1410 c 0,6,7
 1140 1410 1140 1410 1211 1342 c 0,8,9
 1273 1283 1273 1283 1273 1203 c 128,-1,10
 1273 1123 1273 1123 1240.5 1057 c 128,-1,11
 1208 991 1208 991 1152 935 c 0,12,13
 1035 817 1035 817 865 770 c 1,14,-1
 868 767 l 1,15,-1
 922 682 l 2,16,17
 1024 518 1024 518 1024 393 c 0,18,19
 1024 229 1024 229 876 110 c 0,20,21
 733 -5 733 -5 555 -5 c 0,22,23
 379 -5 379 -5 289 85 c 0,24,25
 207 167 207 167 207 301 c 0,26,27
 207 455 207 455 345 592 c 0,28,29
 475 720 475 720 677 791 c 1,0,1
850 793 m 1,30,31
 989 830 989 830 1094 948 c 0,32,33
 1203 1070 1203 1070 1203 1198 c 0,34,35
 1203 1323 1203 1323 1100 1367 c 0,36,37
 1062 1383 1062 1383 1013.5 1383 c 128,-1,38
 965 1383 965 1383 915 1365.5 c 128,-1,39
 865 1348 865 1348 822 1313 c 0,40,41
 723 1231 723 1231 723 1108 c 0,42,43
 723 984 723 984 850 793 c 1,30,31
307 326 m 0,44,45
 307 253 307 253 327 196 c 128,-1,46
 347 139 347 139 383 100 c 0,47,48
 455 23 455 23 576 23 c 0,49,50
 690 23 690 23 782 111 c 0,51,52
 880 206 880 206 880 337 c 0,53,54
 880 410 880 410 861 459 c 0,55,56
 829 542 829 542 783 616 c 2,57,-1
 692 765 l 1,58,59
 521 707 521 707 414 588 c 0,60,61
 307 468 307 468 307 326 c 0,44,45
EndSplineSet
Validated: 1
EndChar

StartChar: nine
Encoding: 44 57 44
Width: 1361
GlyphClass: 2
Flags: W
LayerCount: 2
Back
Fore
SplineSet
1141 830 m 1,0,1
 914 569 914 569 719 569 c 0,2,3
 591 569 591 569 516 645 c 0,4,5
 450.305263158 711.526315789 450.305263158 711.526315789 450.305263158 813.32033241 c 0,6,7
 450.305263158 833.936842105 450.305263158 833.936842105 453 856 c 0,8,9
 467 995 467 995 552 1128 c 0,10,11
 676 1321 676 1321 882 1387 c 0,12,13
 948 1408 948 1408 1024 1408 c 128,-1,14
 1100 1408 1100 1408 1161 1382 c 128,-1,15
 1222 1356 1222 1356 1260 1306 c 0,16,17
 1324.65671642 1222.05970149 1324.65671642 1222.05970149 1324.65671642 1084.72131878 c 0,18,19
 1324.65671642 979.910447761 1324.65671642 979.910447761 1287 844 c 0,20,21
 1204 545 1204 545 996 308 c 0,22,23
 852 142 852 142 678 56 c 0,24,25
 560 -2 560 -2 427 -2 c 0,26,27
 303 -2 303 -2 222 58 c 0,28,29
 146 114 146 114 146 185 c 0,30,31
 148 222 148 222 170 246 c 128,-1,32
 192 270 192 270 219 270 c 128,-1,33
 246 270 246 270 258.5 264.5 c 128,-1,34
 271 259 271 259 278 250 c 0,35,36
 293 233 293 233 293 216 c 0,37,38
 293 195 293 195 279.5 175 c 128,-1,39
 266 155 266 155 265.5 134 c 128,-1,40
 265 113 265 113 279.5 94 c 128,-1,41
 294 75 294 75 318 60 c 0,42,43
 371 24 371 24 453 24 c 128,-1,44
 535 24 535 24 636 81 c 128,-1,45
 737 138 737 138 828 243 c 0,46,47
 1016 458 1016 458 1141 830 c 1,0,1
829.5 618.5 m 128,-1,49
 887 644 887 644 942 687.5 c 128,-1,50
 997 731 997 731 1046 788.5 c 128,-1,51
 1095 846 1095 846 1132 910 c 0,52,53
 1213 1052 1213 1052 1215 1173 c 0,54,55
 1215.33027523 1182.19266055 1215.33027523 1182.19266055 1215.33027523 1190.96414443 c 0,56,57
 1215.33027523 1341.5412844 1215.33027523 1341.5412844 1118 1368 c 0,58,59
 1083 1378 1083 1378 1033 1378 c 128,-1,60
 983 1378 983 1378 926.5 1347.5 c 128,-1,61
 870 1317 870 1317 816 1267 c 128,-1,62
 762 1217 762 1217 714 1152 c 128,-1,63
 666 1087 666 1087 630 1018 c 0,64,65
 547.020576132 858.469135802 547.020576132 858.469135802 547.020576132 755.96528307 c 0,66,67
 547.020576132 683.057613169 547.020576132 683.057613169 589 639 c 0,68,69
 633 593 633 593 702.5 593 c 128,-1,48
 772 593 772 593 829.5 618.5 c 128,-1,49
EndSplineSet
Validated: 1
EndChar

StartChar: colon
Encoding: 45 58 45
Width: 726
GlyphClass: 2
Flags: W
LayerCount: 2
Back
Fore
SplineSet
106.5 477 m 128,-1,1
 85 468 85 468 58.5 468 c 128,-1,2
 32 468 32 468 12 488.5 c 128,-1,3
 -8 509 -8 509 -8 536 c 128,-1,4
 -8 563 -8 563 1.5 582.5 c 128,-1,5
 11 602 11 602 27 618 c 0,6,7
 63 652 63 652 104 652 c 0,8,9
 183 652 183 652 183 578 c 0,10,11
 183 536 183 536 155.5 511 c 128,-1,0
 128 486 128 486 106.5 477 c 128,-1,1
-50 185.5 m 128,-1,13
 -31 165 -31 165 -31 138 c 128,-1,14
 -31 111 -31 111 -41.5 91 c 128,-1,15
 -52 71 -52 71 -69 56 c 0,16,17
 -106 22 -106 22 -144 22 c 128,-1,18
 -182 22 -182 22 -202 42.5 c 128,-1,19
 -222 63 -222 63 -222 90 c 128,-1,20
 -222 117 -222 117 -212.5 136.5 c 128,-1,21
 -203 156 -203 156 -187 172 c 0,22,23
 -151 206 -151 206 -110 206 c 128,-1,12
 -69 206 -69 206 -50 185.5 c 128,-1,13
EndSplineSet
Validated: 1
EndChar

StartChar: semicolon
Encoding: 46 59 46
Width: 726
GlyphClass: 2
Flags: W
LayerCount: 2
Back
Fore
SplineSet
106.5 477 m 128,-1,1
 85 468 85 468 58.5 468 c 128,-1,2
 32 468 32 468 12 488.5 c 128,-1,3
 -8 509 -8 509 -8 536 c 128,-1,4
 -8 563 -8 563 1.5 582.5 c 128,-1,5
 11 602 11 602 27 618 c 0,6,7
 63 652 63 652 104 652 c 0,8,9
 183 652 183 652 183 578 c 0,10,11
 183 536 183 536 155.5 511 c 128,-1,0
 128 486 128 486 106.5 477 c 128,-1,1
-94 206 m 0,12,13
 -30 206 -30 206 -30 129 c 0,14,15
 -30 10 -30 10 -196 -119 c 0,16,17
 -256 -165 -256 -165 -294.5 -177 c 128,-1,18
 -333 -189 -333 -189 -347 -189 c 128,-1,19
 -361 -189 -361 -189 -361 -177 c 0,20,21
 -361 -166 -361 -166 -337 -159 c 128,-1,22
 -313 -152 -313 -152 -283.5 -131.5 c 128,-1,23
 -254 -111 -254 -111 -229 -86 c 0,24,25
 -171 -30 -171 -30 -171 -5 c 0,26,27
 -171 32 -171 32 -178 54 c 0,28,29
 -190 89 -190 89 -190 109 c 128,-1,30
 -190 129 -190 129 -183 145 c 128,-1,31
 -176 161 -176 161 -164 174 c 0,32,33
 -134 206 -134 206 -94 206 c 0,12,13
EndSplineSet
Validated: 1
EndChar

StartChar: less
Encoding: 47 60 47
Width: 902
GlyphClass: 2
Flags: W
LayerCount: 2
Back
Fore
SplineSet
699 752 m 1,0,1
 705 729 705 729 725 702 c 1,2,-1
 262 492 l 1,3,-1
 653 290 l 1,4,-1
 630 270 l 2,5,6
 618 258 618 258 610 250 c 1,7,-1
 145 494 l 1,8,-1
 699 752 l 1,0,1
EndSplineSet
Validated: 1
EndChar

StartChar: equal
Encoding: 48 61 48
Width: 1015
GlyphClass: 2
Flags: W
LayerCount: 2
Back
Fore
SplineSet
919 660 m 1,0,1
 895 629 895 629 890 603 c 1,2,-1
 285 603 l 1,3,4
 301 620 301 620 307 633 c 128,-1,5
 313 646 313 646 321 660 c 1,6,-1
 919 660 l 1,0,1
172 401 m 1,7,8
 181 411 181 411 207 457 c 1,9,-1
 804 457 l 1,10,11
 784 426 784 426 775 401 c 1,12,-1
 172 401 l 1,7,8
EndSplineSet
Validated: 1
EndChar

StartChar: greater
Encoding: 49 62 49
Width: 943
GlyphClass: 2
Flags: W
LayerCount: 2
Back
Fore
SplineSet
523 154 m 1,0,1
 517 177 517 177 497 204 c 1,2,-1
 959 414 l 1,3,-1
 569 616 l 1,4,-1
 592 636 l 2,5,6
 604 648 604 648 612 656 c 1,7,-1
 1077 412 l 1,8,-1
 523 154 l 1,0,1
EndSplineSet
Validated: 1
EndChar

StartChar: question
Encoding: 50 63 50
Width: 872
GlyphClass: 2
Flags: W
LayerCount: 2
Back
Fore
SplineSet
407 322 m 128,-1,1
 397 307 397 307 383 307 c 128,-1,2
 369 307 369 307 369 322 c 128,-1,3
 369 337 369 337 381 353 c 128,-1,4
 393 369 393 369 426 410 c 0,5,6
 528 535 528 535 568 580 c 0,7,8
 669 691 669 691 734 755 c 128,-1,9
 799 819 799 819 840 867 c 128,-1,10
 881 915 881 915 906 958 c 0,11,12
 955 1038 955 1038 955 1114 c 128,-1,13
 955 1190 955 1190 919.5 1225 c 128,-1,14
 884 1260 884 1260 840 1260 c 128,-1,15
 796 1260 796 1260 768 1252 c 128,-1,16
 740 1244 740 1244 716 1231 c 0,17,18
 673 1207 673 1207 648 1169 c 0,19,20
 617 1122 617 1122 615 1075 c 0,21,22
 610 985 610 985 543 985 c 0,23,24
 520 985 520 985 506 1001.5 c 128,-1,25
 492 1018 492 1018 492 1045 c 128,-1,26
 492 1072 492 1072 521.5 1114 c 128,-1,27
 551 1156 551 1156 600 1194 c 0,28,29
 719 1285 719 1285 850 1285 c 0,30,31
 937 1285 937 1285 1006 1235 c 0,32,33
 1080 1181 1080 1181 1080 1099 c 0,34,35
 1080 1027 1080 1027 1042 973 c 0,36,37
 973 875 973 875 783 724 c 0,38,39
 627 602 627 602 495 448 c 0,40,41
 426 368 426 368 421.5 352.5 c 128,-1,0
 417 337 417 337 407 322 c 128,-1,1
180.5 16 m 128,-1,43
 163 34 163 34 163 56.5 c 128,-1,44
 163 79 163 79 171 95.5 c 128,-1,45
 179 112 179 112 193 125 c 0,46,47
 224 154 224 154 259 154 c 0,48,49
 327 154 327 154 327 91 c 0,50,51
 327 35 327 35 262 6 c 0,52,53
 244 -2 244 -2 221 -2 c 128,-1,42
 198 -2 198 -2 180.5 16 c 128,-1,43
EndSplineSet
Validated: 1
EndChar

StartChar: at
Encoding: 51 64 51
Width: 1439
GlyphClass: 2
Flags: W
LayerCount: 2
Back
Fore
SplineSet
1115 193 m 1,0,-1
 1116 176 l 1,1,2
 1116 72 1116 72 1018 -38 c 0,3,4
 862 -210 862 -210 608 -270 c 0,5,6
 523 -290 523 -290 426.5 -290 c 128,-1,7
 330 -290 330 -290 254.5 -260 c 128,-1,8
 179 -230 179 -230 130 -182 c 0,9,10
 36 -87 36 -87 36 54 c 0,11,12
 36 219 36 219 150 394 c 0,13,14
 338 679 338 679 672 778 c 0,15,16
 787 812 787 812 890 812 c 128,-1,17
 993 812 993 812 1056 789 c 128,-1,18
 1119 766 1119 766 1164 727 c 0,19,20
 1256 646 1256 646 1256 531 c 0,21,22
 1256 352 1256 352 1115 193 c 1,0,-1
1103 239 m 1,23,24
 1199 373 1199 373 1199 516 c 0,25,26
 1199 708 1199 708 1032 770 c 0,27,28
 976 790 976 790 880 790 c 128,-1,29
 784 790 784 790 678.5 754.5 c 128,-1,30
 573 719 573 719 484 660 c 128,-1,31
 395 601 395 601 323.5 524.5 c 128,-1,32
 252 448 252 448 202 366 c 0,33,34
 99 199 99 199 99 54 c 0,35,36
 99 -77 99 -77 182 -164 c 0,37,38
 277 -263 277 -263 442 -263 c 0,39,40
 680 -263 680 -263 880 -126 c 0,41,42
 1003 -41 1003 -41 1056 61 c 0,43,44
 1083 112 1083 112 1085 162 c 1,45,46
 917 -2 917 -2 738 -2 c 0,47,48
 681 -2 681 -2 653.5 16.5 c 128,-1,49
 626 35 626 35 626 56 c 128,-1,50
 626 77 626 77 628.5 88.5 c 128,-1,51
 631 100 631 100 640 116 c 0,52,53
 658 149 658 149 710 210 c 1,54,-1
 705 213 l 1,55,56
 605 98 605 98 526 48 c 128,-1,57
 447 -2 447 -2 400 -2 c 128,-1,58
 353 -2 353 -2 327 26.5 c 128,-1,59
 301 55 301 55 301 105 c 0,60,61
 301 223 301 223 396 329 c 0,62,63
 574 534 574 534 777 534 c 0,64,65
 819 534 819 534 842 516 c 128,-1,66
 865 498 865 498 865 474.5 c 128,-1,67
 865 451 865 451 858 431 c 1,68,-1
 898 476 l 2,69,70
 916 496 916 496 931 515 c 1,71,72
 947 511 947 511 976 511 c 0,73,74
 1029 511 1029 511 1051 513 c 1,75,-1
 791 202 l 2,76,77
 720 117 720 117 711.5 93 c 128,-1,78
 703 69 703 69 703 59 c 0,79,80
 703 27 703 27 751 27 c 128,-1,81
 799 27 799 27 840 40 c 128,-1,82
 881 53 881 53 923 77 c 0,83,84
 1011 128 1011 128 1081 211 c 1,85,86
 1063 270 1063 270 1007 298 c 0,87,88
 996 304 996 304 996 313.5 c 128,-1,89
 996 323 996 323 1008 323 c 0,90,91
 1026 323 1026 323 1058 298 c 0,92,93
 1089 269 1089 269 1103 239 c 1,23,24
840 470 m 0,94,95
 840 508 840 508 791 508 c 0,96,97
 719 508 719 508 582 381 c 0,98,99
 534 337 534 337 480 272 c 0,100,101
 373 146 373 146 373 65 c 0,102,103
 373 22 373 22 408.5 22 c 128,-1,104
 444 22 444 22 480.5 44.5 c 128,-1,105
 517 67 517 67 562 106 c 0,106,107
 642 175 642 175 723 275 c 2,108,-1
 784 347 l 1,109,110
 840 424 840 424 840 470 c 0,94,95
EndSplineSet
Validated: 1
EndChar

StartChar: A
Encoding: 52 65 52
Width: 1632
GlyphClass: 2
Flags: W
LayerCount: 2
Back
Fore
SplineSet
1112 268 m 0,0,1
 974 268 974 268 854 338 c 1,2,3
 769 254 l 2,4,5
 512 0 512 0 310 0 c 0,6,7
 -114 0 -114 0 -114 354 c 0,8,9
 -114 921 -114 921 354 921 c 0,10,11
 606 921 606 921 606 680 c 0,12,13
 606 644 606 644 599 602 c 0,14,15
 541 255 541 255 253 255 c 0,16,17
 72 255 72 255 72 463 c 128,-1,18
 72 671 72 671 363 756 c 1,19,20
 134 649 134 649 134 435 c 0,21,22
 134 302 134 302 255 302 c 0,23,24
 502 303 502 303 569 620 c 0,25,26
 579 667 579 667 579 706 c 0,27,28
 578 893 578 893 352 893 c 0,29,30
 -93 893 -93 893 -93 355 c 0,31,32
 -93 20 -93 20 285 20 c 0,33,34
 496 20 496 20 709 242 c 2,35,-1
 822 360 l 1,36,37
 680 463 680 463 680 620 c 0,38,39
 680 853 680 853 912 853 c 0,40,41
 1078 853 1078 853 1160 702 c 1,42,43
 1517 1099 1517 1099 1610 1182 c 1,44,45
 1411 1328 1411 1328 1209 1328 c 0,46,47
 929 1328 929 1328 638 1050 c 1,48,49
 934 1358 934 1358 1226 1358 c 0,50,51
 1431 1358 1431 1358 1635 1207 c 1,52,-1
 1765 1305 l 2,53,54
 1826 1351 1826 1351 1914 1401 c 0,55,56
 1988 1443 1988 1443 2064 1444 c 1,57,-1
 2076 1444 l 1,58,59
 2082 1443 2082 1443 2087 1443 c 1,60,-1
 1761 1011 l 1,61,62
 1760 312 1760 312 1273 262 c 1,63,64
 1160 101 1160 101 1001 0 c 1,65,-1
 1160 270 l 1,66,67
 1136 268 1136 268 1112 268 c 0,0,1
1743 1084 m 1,68,-1
 1957 1351 l 1,69,70
 1777 1274 1777 1274 1677 1176 c 1,71,72
 1721 1140 1721 1140 1743 1084 c 1,68,-1
1220 355 m 1,73,74
 1511 807 1511 807 1721 1060 c 1,75,76
 1697 1122 1697 1122 1657 1158 c 1,77,78
 1590 1118 1590 1118 1176 668 c 1,79,80
 1226 579 1226 579 1227 451 c 0,81,82
 1227 405 1227 405 1220 355 c 1,73,74
1302 311 m 1,83,84
 1727 351 1727 351 1734 979 c 1,85,86
 1464 619 1464 619 1302 311 c 1,83,84
874 360 m 1,87,88
 983 292 983 292 1176 292 c 1,89,90
 1204 377 1204 377 1204 467 c 128,-1,91
 1204 557 1204 557 1160 648 c 1,92,-1
 874 360 l 1,87,88
  Spiro
    874 360 v
    1004 309 o
    1176 292 v
    1197 375.75 o
    1204 457 o
    1193 554.75 o
    1160 648 v
    0 0 z
  EndSpiro
850 378 m 1,93,-1
 1146 676 l 1,94,95
 1025 796 1025 796 919 796 c 0,96,97
 737 796 737 796 737 596 c 0,98,99
 737 491 737 491 850 378 c 1,93,-1
  Spiro
    850 378 v
    1146 676 v
    1028.75 766 o
    919 796 o
    782.5 746 o
    737 596 o
    765.25 489 o
    0 0 z
  EndSpiro
EndSplineSet
Validated: 3073
EndChar

StartChar: B
Encoding: 53 66 53
Width: 1599
GlyphClass: 2
Flags: W
LayerCount: 2
Back
Fore
SplineSet
1088.5 692.5 m 128,-1,1
 1118 698 1118 698 1168 698 c 128,-1,2
 1218 698 1218 698 1272 671 c 1,3,4
 1499 782 1499 782 1582 994 c 0,5,6
 1612 1069 1612 1069 1612 1146 c 128,-1,7
 1612 1223 1612 1223 1570 1277 c 1,8,9
 1547 1264 1547 1264 1524 1248 c 2,10,-1
 1476 1214 l 1,11,12
 1346 1116 1346 1116 1256 1020 c 0,13,14
 1104 859 1104 859 933.5 629.5 c 128,-1,15
 763 400 763 400 586.5 249 c 128,-1,16
 410 98 410 98 250 32 c 0,17,18
 163 -2 163 -2 30 -2 c 0,19,20
 -57 -2 -57 -2 -120 40 c 0,21,22
 -182 82 -182 82 -182 142 c 0,23,24
 -182 205 -182 205 -120 222 c 0,25,26
 -104 226 -104 226 -88 226 c 128,-1,27
 -72 226 -72 226 -55.5 215.5 c 128,-1,28
 -39 205 -39 205 -39 182.5 c 128,-1,29
 -39 160 -39 160 -55.5 145.5 c 128,-1,30
 -72 131 -72 131 -100.5 131 c 128,-1,31
 -129 131 -129 131 -143 141 c 1,32,-1
 -143 135 l 2,33,34
 -143 86 -143 86 -94.5 55 c 128,-1,35
 -46 24 -46 24 17 24 c 128,-1,36
 80 24 80 24 119.5 33.5 c 128,-1,37
 159 43 159 43 206 70 c 128,-1,38
 253 97 253 97 311.5 146 c 128,-1,39
 370 195 370 195 450 274 c 2,40,-1
 635 468 l 1,41,-1
 882 738 l 1,42,43
 1233 1136 1233 1136 1548 1303 c 1,44,45
 1433 1418 1433 1418 1168 1418 c 0,46,47
 859 1418 859 1418 558 1191 c 0,48,49
 413 1081 413 1081 318 958 c 0,50,51
 222 831 222 831 222 738 c 0,52,53
 222 653 222 653 306 629 c 0,54,55
 330 622 330 622 373 622 c 128,-1,56
 416 622 416 622 482.5 645 c 128,-1,57
 549 668 549 668 616.5 710 c 128,-1,58
 684 752 684 752 748 810.5 c 128,-1,59
 812 869 812 869 864 940 c 0,60,61
 979 1093 979 1093 1002 1260 c 0,62,63
 1008 1292 1008 1292 1017.5 1292 c 128,-1,64
 1027 1292 1027 1292 1027 1270 c 0,65,66
 1027 1086 1027 1086 921 924 c 0,67,68
 825 778 825 778 664 688 c 0,69,70
 507 600 507 600 349 600 c 0,71,72
 245 600 245 600 206 678 c 0,73,74
 192 704 192 704 192 763 c 128,-1,75
 192 822 192 822 231 905.5 c 128,-1,76
 270 989 270 989 338.5 1066.5 c 128,-1,77
 407 1144 407 1144 501 1212 c 128,-1,78
 595 1280 595 1280 704 1331 c 0,79,80
 939 1440 939 1440 1194 1440 c 128,-1,81
 1449 1440 1449 1440 1596 1328 c 1,82,83
 1746 1400 1746 1400 1846 1400 c 0,84,85
 1879 1400 1879 1400 1879 1390 c 0,86,87
 1879 1385 1879 1385 1861 1382.5 c 128,-1,88
 1843 1380 1843 1380 1809 1372 c 0,89,90
 1710 1351 1710 1351 1622 1305 c 1,91,92
 1716 1215 1716 1215 1716 1083 c 0,93,94
 1716 955 1716 955 1596 826 c 0,95,96
 1485 707 1485 707 1320 640 c 1,97,98
 1400 569 1400 569 1400 439 c 0,99,100
 1400 328 1400 328 1317 224 c 0,101,102
 1193 68 1193 68 976 15 c 0,103,104
 906 -2 906 -2 846 -2 c 128,-1,105
 786 -2 786 -2 754 8.5 c 128,-1,106
 722 19 722 19 703 35 c 0,107,108
 668 64 668 64 668 103.5 c 128,-1,109
 668 143 668 143 689 183.5 c 128,-1,110
 710 224 710 224 746.5 264 c 128,-1,111
 783 304 783 304 833 341 c 128,-1,112
 883 378 883 378 940 406 c 0,113,114
 1067 469 1067 469 1186 469 c 0,115,116
 1207 469 1207 469 1207 456 c 128,-1,117
 1207 443 1207 443 1165.5 443 c 128,-1,118
 1124 443 1124 443 1068.5 428 c 128,-1,119
 1013 413 1013 413 960 387 c 128,-1,120
 907 361 907 361 860 327 c 128,-1,121
 813 293 813 293 778 256 c 0,122,123
 701 176 701 176 701 108 c 0,124,125
 701 26 701 26 838 26 c 0,126,127
 934 26 934 26 1040 98 c 0,128,129
 1210 212 1210 212 1272 416 c 0,130,131
 1292 484 1292 484 1292 541.5 c 128,-1,132
 1292 599 1292 599 1277 623 c 1,133,134
 1174 588 1174 588 1103.5 588 c 128,-1,135
 1033 588 1033 588 1009.5 603 c 128,-1,136
 986 618 986 618 986 632 c 128,-1,137
 986 646 986 646 999.5 657.5 c 128,-1,138
 1013 669 1013 669 1036 678 c 128,-1,0
 1059 687 1059 687 1088.5 692.5 c 128,-1,1
1241 657 m 1,139,140
 1210 675 1210 675 1168.5 675 c 128,-1,141
 1127 675 1127 675 1106.5 672 c 128,-1,142
 1086 669 1086 669 1070 664 c 0,143,144
 1037 655 1037 655 1037 644 c 0,145,146
 1037 620 1037 620 1095 620 c 128,-1,147
 1153 620 1153 620 1241 657 c 1,139,140
EndSplineSet
Validated: 1
EndChar

StartChar: C
Encoding: 54 67 54
Width: 1350
GlyphClass: 2
Flags: W
LayerCount: 2
Back
Fore
SplineSet
1468 1401 m 0,0,1
 1561 1401 1561 1401 1561 1327 c 0,2,3
 1561 1217 1561 1217 1391 1080 c 0,4,5
 1229 951 1229 951 993 856 c 0,6,7
 745 758 745 758 536 748 c 1,8,9
 227 407 227 407 227 213 c 0,10,11
 227 59 227 59 373 29 c 1,12,13
 373 299 373 299 559 518 c 0,14,15
 674 653 674 653 820 706 c 0,16,17
 892 733 892 733 971.5 733 c 128,-1,18
 1051 733 1051 733 1095 694.5 c 128,-1,19
 1139 656 1139 656 1139 596 c 128,-1,20
 1139 536 1139 536 1113.5 469.5 c 128,-1,21
 1088 403 1088 403 1042 337 c 128,-1,22
 996 271 996 271 930.5 209.5 c 128,-1,23
 865 148 865 148 785 101 c 0,24,25
 610 -2 610 -2 420 -2 c 2,26,-1
 411 -2 l 2,27,28
 407 -2 407 -2 402 -1 c 1,29,30
 408 -175 408 -175 461 -244 c 0,31,32
 465 -249 465 -249 465 -252 c 2,33,-1
 465 -257 l 2,34,35
 465 -262 465 -262 456 -262 c 0,36,37
 418 -262 418 -262 385 -104 c 0,38,39
 375 -56 375 -56 373 1 c 1,40,41
 226 21 226 21 176 152 c 0,42,43
 160 195 160 195 160 251 c 0,44,45
 160 485 160 485 373 759 c 1,46,47
 205 797 205 797 159 932 c 0,48,49
 145 974 145 974 145 1022 c 128,-1,50
 145 1070 145 1070 171 1122.5 c 128,-1,51
 197 1175 197 1175 243.5 1224.5 c 128,-1,52
 290 1274 290 1274 354.5 1318 c 128,-1,53
 419 1362 419 1362 496 1395 c 0,54,55
 664 1467 664 1467 838 1467 c 0,56,57
 919 1467 919 1467 919 1450 c 0,58,59
 919 1442 919 1442 906 1442 c 2,60,-1
 833 1446 l 1,61,62
 622 1446 622 1446 411 1304 c 0,63,64
 275 1213 275 1213 218 1099 c 0,65,66
 188 1040 188 1040 188 993.5 c 128,-1,67
 188 947 188 947 201.5 916.5 c 128,-1,68
 215 886 215 886 240 860 c 0,69,70
 294 804 294 804 391 782 c 1,71,72
 601 1042 601 1042 900 1218 c 0,73,74
 1212 1401 1212 1401 1468 1401 c 0,0,1
1537 1324 m 0,75,76
 1537 1377 1537 1377 1459 1377 c 0,77,78
 1315 1377 1315 1377 1046 1192 c 0,79,80
 784 1014 784 1014 561 775 c 1,81,82
 838 805 838 805 1187 1002 c 0,83,84
 1394 1119 1394 1119 1490 1229 c 0,85,86
 1537 1283 1537 1283 1537 1324 c 0,75,76
402 25 m 1,87,88
 409 24 409 24 416 24 c 2,89,-1
 431 24 l 2,90,91
 558 24 558 24 710 138 c 0,92,93
 845 240 845 240 947 388 c 0,94,95
 1047 534 1047 534 1047 628 c 0,96,97
 1047 670 1047 670 1025 688 c 128,-1,98
 1003 706 1003 706 950.5 706 c 128,-1,99
 898 706 898 706 835 682 c 128,-1,100
 772 658 772 658 710.5 614 c 128,-1,101
 649 570 649 570 593 508 c 128,-1,102
 537 446 537 446 494 370 c 0,103,104
 402 206 402 206 402 26 c 2,105,-1
 402 25 l 1,87,88
EndSplineSet
Validated: 1
EndChar

StartChar: D
Encoding: 55 68 55
Width: 1733
GlyphClass: 2
Flags: W
LayerCount: 2
Back
Fore
SplineSet
504 49 m 1,0,1
 341 -6 341 -6 146 -6 c 0,2,3
 12 -6 12 -6 -24 41 c 0,4,5
 -34 54 -34 54 -34 68.5 c 128,-1,6
 -34 83 -34 83 -20.5 98 c 128,-1,7
 -7 113 -7 113 19 126 c 0,8,9
 78 154 78 154 138 154 c 128,-1,10
 198 154 198 154 225 151 c 128,-1,11
 252 148 252 148 284 142 c 0,12,13
 340 130 340 130 396 113.5 c 128,-1,14
 452 97 452 97 455 97 c 128,-1,15
 458 97 458 97 462 95 c 0,16,17
 564 150 564 150 663.5 246.5 c 128,-1,18
 763 343 763 343 842 431 c 2,19,-1
 1015 634 l 1,20,-1
 1183 836 l 1,21,-1
 1273 935 l 2,22,23
 1320 985 1320 985 1380.5 1042 c 128,-1,24
 1441 1099 1441 1099 1523 1154 c 1,25,26
 1389 1360 1389 1360 1054 1360 c 0,27,28
 867 1360 867 1360 680 1256 c 0,29,30
 511 1161 511 1161 400 1017 c 0,31,32
 291 875 291 875 291 757 c 0,33,34
 291 685 291 685 340.5 641 c 128,-1,35
 390 597 390 597 461 597 c 128,-1,36
 532 597 532 597 598.5 621 c 128,-1,37
 665 645 665 645 734.5 686.5 c 128,-1,38
 804 728 804 728 872 784 c 128,-1,39
 940 840 940 840 994 904 c 0,40,41
 1113 1045 1113 1045 1122 1173 c 0,42,43
 1125 1196 1125 1196 1133 1196 c 0,44,45
 1145 1196 1145 1196 1145 1175 c 0,46,47
 1145 1032 1145 1032 1048 890 c 0,48,49
 900 671 900 671 646 594 c 0,50,51
 564 569 564 569 498 569 c 128,-1,52
 432 569 432 569 388 584 c 128,-1,53
 344 599 344 599 310 627 c 0,54,55
 233 689 233 689 233 771.5 c 128,-1,56
 233 854 233 854 262 928 c 128,-1,57
 291 1002 291 1002 344 1069 c 128,-1,58
 397 1136 397 1136 471.5 1193.5 c 128,-1,59
 546 1251 546 1251 636 1294 c 0,60,61
 829 1384 829 1384 1048 1384 c 0,62,63
 1396 1384 1396 1384 1560 1178 c 1,64,65
 1788 1322 1788 1322 1969 1330 c 0,66,67
 1984 1330 1984 1330 1984 1322 c 128,-1,68
 1984 1314 1984 1314 1979 1311.5 c 128,-1,69
 1974 1309 1974 1309 1951 1305 c 0,70,71
 1775 1284 1775 1284 1594 1128 c 1,72,73
 1668 1005 1668 1005 1668 861 c 128,-1,74
 1668 717 1668 717 1635 607 c 128,-1,75
 1602 497 1602 497 1544 403.5 c 128,-1,76
 1486 310 1486 310 1405.5 235 c 128,-1,77
 1325 160 1325 160 1230 108 c 0,78,79
 1030 -2 1030 -2 811 -2 c 0,80,81
 675 -2 675 -2 504 49 c 1,0,1
551 67 m 1,82,83
 678 28 678 28 796 28 c 128,-1,84
 914 28 914 28 1010.5 55.5 c 128,-1,85
 1107 83 1107 83 1194.5 133.5 c 128,-1,86
 1282 184 1282 184 1357 256.5 c 128,-1,87
 1432 329 1432 329 1487 418 c 0,88,89
 1604 609 1604 609 1604 836 c 0,90,91
 1604 987 1604 987 1555 1094 c 1,92,93
 1443 990 1443 990 1345 849 c 2,94,-1
 1162 592 l 1,95,96
 869 192 869 192 551 67 c 1,82,83
417 73 m 1,97,98
 269 111 269 111 174 111 c 128,-1,99
 79 111 79 111 36.5 98 c 128,-1,100
 -6 85 -6 85 -6 68 c 0,101,102
 -6 26 -6 26 163 26 c 0,103,104
 311 26 311 26 417 73 c 1,97,98
EndSplineSet
Validated: 1
EndChar

StartChar: E
Encoding: 56 69 56
Width: 1127
GlyphClass: 2
Flags: W
LayerCount: 2
Back
Fore
SplineSet
511 864 m 1,0,1
 510 869 510 869 510 899 c 0,2,3
 510 1038 510 1038 604 1159 c 0,4,5
 737 1330 737 1330 977 1384 c 0,6,7
 1049 1401 1049 1401 1119 1401 c 0,8,9
 1281 1401 1281 1401 1371 1343.5 c 128,-1,10
 1461 1286 1461 1286 1461 1183 c 0,11,12
 1461 1030 1461 1030 1254 921 c 0,13,14
 1049 813 1049 813 764 813 c 0,15,16
 676 813 676 813 600 823 c 1,17,18
 610 784 610 784 633 748 c 1,19,20
 729 737 729 737 782 708 c 0,21,22
 833 680 833 680 833 648 c 0,23,24
 832 617 832 617 784 617 c 0,25,26
 677 617 677 617 584 716 c 1,27,28
 386 695 386 695 219 540 c 0,29,30
 52 386 52 386 52 224 c 0,31,32
 52 58 52 58 249 27 c 1,33,34
 265 211 265 211 396.5 358 c 128,-1,35
 528 505 528 505 689 505 c 0,36,37
 752 505 752 505 798.5 464 c 128,-1,38
 845 423 845 423 845 356 c 128,-1,39
 845 289 845 289 804 222 c 0,40,41
 752 154 752 154 691 104 c 0,42,43
 564 0 564 0 277 -1 c 1,44,45
 277 -135 277 -135 310 -219 c 0,46,47
 323 -252 323 -252 332 -262 c 0,48,49
 343 -272 343 -272 343 -278.5 c 128,-1,50
 343 -285 343 -285 331 -285 c 0,51,52
 290 -285 290 -285 264 -162 c 0,53,54
 247 -89 247 -89 247 1 c 1,55,56
 113 15 113 15 30 88 c 0,57,58
 -52 160 -52 160 -52 285 c 0,59,60
 -52 393 -52 393 25 504 c 0,61,62
 145 677 145 677 385 734 c 0,63,64
 463 752 463 752 549 752 c 2,65,-1
 555 752 l 1,66,67
 528 789 528 789 516 837 c 1,68,69
 359 871 359 871 260.5 943.5 c 128,-1,70
 162 1016 162 1016 119 1113 c 0,71,72
 113 1124 113 1124 113 1137 c 128,-1,73
 113 1150 113 1150 122 1150 c 128,-1,74
 131 1150 131 1150 142 1126 c 0,75,76
 236 921 236 921 511 864 c 1,0,1
596 850 m 1,77,78
 652 842 652 842 736 842 c 0,79,80
 1104 842 1104 842 1320 1019 c 0,81,82
 1424 1104 1424 1104 1424 1213 c 0,83,84
 1424 1284 1424 1284 1350.5 1330 c 128,-1,85
 1277 1376 1277 1376 1182 1376 c 0,86,87
 1025 1376 1025 1376 888 1288 c 0,88,89
 596 1101 596 1101 596 850 c 1,77,78
655 718 m 1,91,92
 724 640 724 640 796 640 c 0,93,94
 812 640 812 640 812 650 c 0,95,96
 812 669 812 669 764.5 691.5 c 128,-1,97
 717 714 717 714 655 718 c 1,91,92
799 394 m 0,98,99
 799 480 799 480 683 480 c 0,100,101
 555 480 555 480 432 355 c 0,102,103
 297 218 297 218 277 24 c 1,104,105
 543 26 543 26 722 237 c 0,106,107
 799 326 799 326 799 394 c 0,98,99
EndSplineSet
Validated: 3073
EndChar

StartChar: F
Encoding: 57 70 57
Width: 1293
GlyphClass: 2
Flags: W
LayerCount: 2
Back
Fore
SplineSet
398 961 m 0,0,1
 398 852 398 852 504 852 c 0,2,3
 639 852 639 852 788 980 c 0,4,5
 875 1055 875 1055 908 1115.5 c 128,-1,6
 941 1176 941 1176 944 1198 c 0,7,8
 948 1231 948 1231 954 1231 c 0,9,10
 964 1231 964 1231 964 1195.5 c 128,-1,11
 964 1160 964 1160 946 1111.5 c 128,-1,12
 928 1063 928 1063 896.5 1019 c 128,-1,13
 865 975 865 975 823.5 937.5 c 128,-1,14
 782 900 782 900 734 872 c 0,15,16
 633 814 633 814 546 814 c 128,-1,17
 459 814 459 814 414 849.5 c 128,-1,18
 369 885 369 885 369 949.5 c 128,-1,19
 369 1014 369 1014 406.5 1078 c 128,-1,20
 444 1142 444 1142 514 1200 c 0,21,22
 664 1325 664 1325 902 1382 c 0,23,24
 1043 1414 1043 1414 1263 1414 c 0,25,26
 1335 1414 1335 1414 1435 1402 c 0,27,28
 1628 1379 1628 1379 1697.5 1379 c 128,-1,29
 1767 1379 1767 1379 1825 1392 c 128,-1,30
 1883 1405 1883 1405 1928 1429 c 0,31,32
 2015 1475 2015 1475 2063 1557 c 0,33,34
 2074 1574 2074 1574 2084 1574 c 128,-1,35
 2094 1574 2094 1574 2094 1568 c 0,36,37
 2094 1557 2094 1557 2085 1547 c 0,38,39
 1924 1290 1924 1290 1571 1290 c 0,40,41
 1486 1290 1486 1290 1355 1306 c 0,42,43
 1101 1337 1101 1337 1021 1337 c 128,-1,44
 941 1337 941 1337 865.5 1321.5 c 128,-1,45
 790 1306 790 1306 721 1279 c 128,-1,46
 652 1252 652 1252 593 1215.5 c 128,-1,47
 534 1179 534 1179 490 1137 c 0,48,49
 398 1048 398 1048 398 961 c 0,0,1
-16 147 m 128,-1,51
 -33 132 -33 132 -59.5 132 c 128,-1,52
 -86 132 -86 132 -103 142 c 1,53,-1
 -103 137 l 2,54,55
 -103 89 -103 89 -45 57 c 0,56,57
 11 26 11 26 76 26 c 128,-1,58
 141 26 141 26 188.5 35 c 128,-1,59
 236 44 236 44 287 68 c 128,-1,60
 338 92 338 92 393.5 134.5 c 128,-1,61
 449 177 449 177 510 244 c 0,62,63
 639 384 639 384 784 628 c 0,64,65
 787 634 787 634 789 636 c 1,66,67
 451 561 451 561 302 426 c 0,68,69
 258 387 258 387 244 362 c 0,70,71
 224 328 224 328 217 328 c 128,-1,72
 210 328 210 328 210 333 c 0,73,74
 210 345 210 345 217 353 c 0,75,76
 255 444 255 444 418 536 c 0,77,78
 585 629 585 629 809 676 c 0,79,80
 812 676 812 676 814 677 c 0,81,82
 979 935 979 935 1200 1090 c 0,83,84
 1384 1219 1384 1219 1507 1219 c 0,85,86
 1530 1219 1530 1219 1530 1212 c 128,-1,87
 1530 1205 1530 1205 1522 1203.5 c 128,-1,88
 1514 1202 1514 1202 1471.5 1189.5 c 128,-1,89
 1429 1177 1429 1177 1365 1136 c 128,-1,90
 1301 1095 1301 1095 1234 1034 c 0,91,92
 1098 909 1098 909 971 715 c 1,93,94
 1112 751 1112 751 1182 776 c 1,95,96
 1203 790 1203 790 1216 816 c 1,97,98
 1256 816 1256 816 1307.5 810 c 128,-1,99
 1359 804 1359 804 1368 801 c 1,100,101
 1252 748 1252 748 1156 606 c 0,102,103
 1125 561 1125 561 1113.5 532 c 128,-1,104
 1102 503 1102 503 1098.5 500 c 128,-1,105
 1095 497 1095 497 1090 497 c 0,106,107
 1078 497 1078 497 1078 511 c 0,108,109
 1078 533 1078 533 1113 609.5 c 128,-1,110
 1148 686 1148 686 1173 724 c 1,111,112
 1133 711 1133 711 1070 697 c 2,113,-1
 942 669 l 1,114,115
 847 502 847 502 729 359 c 128,-1,116
 611 216 611 216 510 140 c 0,117,118
 323 -1 323 -1 89 -1 c 0,119,120
 -1 -1 -1 -1 -70 42 c 0,121,122
 -143 87 -143 87 -143 145 c 0,123,124
 -143 207 -143 207 -82 224 c 0,125,126
 -65 228 -65 228 -49 228 c 128,-1,127
 -33 228 -33 228 -16 217 c 128,-1,128
 1 206 1 206 1 184 c 128,-1,50
 1 162 1 162 -16 147 c 128,-1,51
EndSplineSet
Validated: 1
EndChar

StartChar: G
Encoding: 58 71 58
Width: 1133
GlyphClass: 2
Flags: W
LayerCount: 2
Back
Fore
SplineSet
1200 961 m 0,0,1
 1224 961 1224 961 1224 950 c 0,2,3
 1224 941 1224 941 1201.5 930.5 c 128,-1,4
 1179 920 1179 920 1148 893.5 c 128,-1,5
 1117 867 1117 867 1079 822 c 128,-1,6
 1041 777 1041 777 994 710 c 2,7,-1
 885 548 l 1,8,9
 532 -3 532 -3 99 -3 c 0,10,11
 1 -3 1 -3 -71 39.5 c 128,-1,12
 -143 82 -143 82 -143 141 c 0,13,14
 -143 204 -143 204 -82 220 c 0,15,16
 -65 225 -65 225 -49 225 c 128,-1,17
 -33 225 -33 225 -16 214.5 c 128,-1,18
 1 204 1 204 1 181.5 c 128,-1,19
 1 159 1 159 -16 144.5 c 128,-1,20
 -33 130 -33 130 -60.5 130 c 128,-1,21
 -88 130 -88 130 -103 139 c 1,22,-1
 -103 133 l 2,23,24
 -103 58 -103 58 20 32 c 0,25,26
 59 23 59 23 113.5 23 c 128,-1,27
 168 23 168 23 230 45 c 128,-1,28
 292 67 292 67 360 118 c 0,29,30
 497 223 497 223 677 462 c 0,31,32
 744 547 744 547 782 591 c 0,33,34
 879 702 879 702 910 736 c 1,35,36
 621 529 621 529 446 529 c 0,37,38
 372 529 372 529 346 548 c 0,39,40
 299 581 299 581 299 645 c 0,41,42
 299 663 299 663 304 698 c 1,43,44
 266 695 266 695 216 695 c 0,45,46
 108 695 108 695 22 743 c 0,47,48
 -5 756 -5 756 -5 765 c 128,-1,49
 -5 774 -5 774 2 774 c 128,-1,50
 9 774 9 774 26.5 764 c 128,-1,51
 44 754 44 754 68.5 744.5 c 128,-1,52
 93 735 93 735 120 728 c 0,53,54
 169 715 169 715 222 715 c 128,-1,55
 275 715 275 715 308 718 c 1,56,57
 345 874 345 874 510 1048 c 0,58,59
 664 1212 664 1212 868 1324 c 0,60,61
 1076 1440 1076 1440 1233 1440 c 0,62,63
 1299 1440 1299 1440 1326.5 1419 c 128,-1,64
 1354 1398 1354 1398 1354 1346.5 c 128,-1,65
 1354 1295 1354 1295 1308.5 1227.5 c 128,-1,66
 1263 1160 1263 1160 1180 1089 c 0,67,68
 1009 941 1009 941 730 812 c 0,69,70
 572 742 572 742 413 712 c 1,71,72
 381 650 381 650 381 624.5 c 128,-1,73
 381 599 381 599 385 589.5 c 128,-1,74
 389 580 389 580 398 572 c 0,75,76
 419 555 419 555 462.5 555 c 128,-1,77
 506 555 506 555 561 571.5 c 128,-1,78
 616 588 616 588 686 625 c 0,79,80
 833 702 833 702 1047 868 c 0,81,82
 1162 961 1162 961 1200 961 c 0,0,1
1330 1363 m 0,83,84
 1330 1417 1330 1417 1252 1417 c 0,85,86
 1078 1417 1078 1417 799 1174 c 0,87,88
 621 1018 621 1018 493 841 c 0,89,90
 454 787 454 787 427 739 c 1,91,92
 565 772 565 772 717.5 850.5 c 128,-1,93
 870 929 870 929 978 1004.5 c 128,-1,94
 1086 1080 1086 1080 1164 1150 c 0,95,96
 1330 1297 1330 1297 1330 1363 c 0,83,84
EndSplineSet
Validated: 1
EndChar

StartChar: H
Encoding: 59 72 59
Width: 1586
GlyphClass: 2
Flags: W
LayerCount: 2
Back
Fore
SplineSet
-203 135.5 m 128,-1,1
 -220 121 -220 121 -247.5 121 c 128,-1,2
 -275 121 -275 121 -290 130 c 1,3,-1
 -290 124 l 2,4,5
 -290 80 -290 80 -247.5 52 c 128,-1,6
 -205 24 -205 24 -147 24 c 0,7,8
 -14 24 -14 24 112 118 c 0,9,10
 205 187 205 187 303 299 c 2,11,-1
 490 523 l 1,12,13
 461 515 461 515 434 506 c 2,14,-1
 383 490 l 1,15,16
 101 392 101 392 9 250 c 0,17,18
 4 241 4 241 -2.5 241 c 128,-1,19
 -9 241 -9 241 -7.5 246.5 c 128,-1,20
 -6 252 -6 252 -5.5 255.5 c 128,-1,21
 -5 259 -5 259 3.5 276.5 c 128,-1,22
 12 294 12 294 39 320.5 c 128,-1,23
 66 347 66 347 100 372 c 0,24,25
 210 452 210 452 312.5 489 c 128,-1,26
 415 526 415 526 515 555 c 1,27,28
 576 639 576 639 634 712 c 0,29,30
 782 890 782 890 831 943 c 2,31,32
 831 943 831 943 912 1029 c 1,33,34
 736 920 736 920 628 920 c 0,35,36
 577 920 577 920 543.5 944.5 c 128,-1,37
 510 969 510 969 510 1006.5 c 128,-1,38
 510 1044 510 1044 516 1068 c 128,-1,39
 522 1092 522 1092 538 1118 c 0,40,41
 569 1169 569 1169 648 1231 c 0,42,43
 699 1271 699 1271 703 1282 c 128,-1,44
 707 1293 707 1293 707 1298 c 0,45,46
 707 1328 707 1328 675.5 1347 c 128,-1,47
 644 1366 644 1366 572 1366 c 0,48,49
 413 1366 413 1366 294 1257 c 0,50,51
 278 1243 278 1243 268 1243 c 128,-1,52
 258 1243 258 1243 258 1250 c 0,53,54
 258 1260 258 1260 276 1278 c 0,55,56
 400 1387 400 1387 576 1387 c 0,57,58
 660 1387 660 1387 705.5 1356.5 c 128,-1,59
 751 1326 751 1326 751 1273 c 0,60,61
 751 1212 751 1212 726 1174 c 0,62,63
 683 1106 683 1106 597 1051 c 0,64,65
 565 1031 565 1031 556 1020.5 c 128,-1,66
 547 1010 547 1010 547 999.5 c 128,-1,67
 547 989 547 989 551.5 980.5 c 128,-1,68
 556 972 556 972 567 964 c 0,69,70
 593 947 593 947 632.5 947 c 128,-1,71
 672 947 672 947 713 959 c 128,-1,72
 754 971 754 971 800 994 c 0,73,74
 899 1044 899 1044 979 1115 c 0,75,76
 1208 1314 1208 1314 1253 1343.5 c 128,-1,77
 1298 1373 1298 1373 1318 1383 c 2,78,-1
 1348 1397 l 2,79,80
 1356 1401 1356 1401 1365.5 1401 c 128,-1,81
 1375 1401 1375 1401 1375 1396.5 c 128,-1,82
 1375 1392 1375 1392 1370.5 1389.5 c 128,-1,83
 1366 1387 1366 1387 1358 1382 c 128,-1,84
 1350 1377 1350 1377 1344.5 1374 c 128,-1,85
 1339 1371 1339 1371 1331 1366 c 2,86,-1
 1281 1330 l 1,87,88
 1186 1252 1186 1252 1096 1139 c 2,89,-1
 939 936 l 1,90,-1
 798 741 l 1,91,-1
 688 602 l 1,92,-1
 1075 698 l 1,93,-1
 1126 759 l 2,94,95
 1345 1016 1345 1016 1615 1216 c 0,96,97
 1879 1410 1879 1410 2004 1410 c 0,98,99
 2049 1410 2049 1410 2071.5 1389.5 c 128,-1,100
 2094 1369 2094 1369 2094 1337.5 c 128,-1,101
 2094 1306 2094 1306 2066.5 1259 c 128,-1,102
 2039 1212 2039 1212 1986.5 1157.5 c 128,-1,103
 1934 1103 1934 1103 1858 1044 c 128,-1,104
 1782 985 1782 985 1686 927 c 0,105,106
 1470 797 1470 797 1226 718 c 1,107,108
 968 405 968 405 879 212 c 0,109,110
 850 150 850 150 850 108 c 128,-1,111
 850 66 850 66 869 44.5 c 128,-1,112
 888 23 888 23 938.5 23 c 128,-1,113
 989 23 989 23 1049.5 55.5 c 128,-1,114
 1110 88 1110 88 1166 148 c 0,115,116
 1290 281 1290 281 1350 480 c 0,117,118
 1359 510 1359 510 1374 510 c 0,119,120
 1382 510 1382 510 1385.5 477.5 c 0,121,122
 1386.1125 471.8125 1386.1125 471.8125 1386.1125 465.5890625 c 0,123,124
 1386.1125 436.25 1386.1125 436.25 1372.5 395 c 0,125,126
 1356 345 1356 345 1325 291.5 c 128,-1,127
 1294 238 1294 238 1249.5 185.5 c 128,-1,128
 1205 133 1205 133 1153 91 c 0,129,130
 1038 -2 1038 -2 926 -2 c 0,131,132
 836 -2 836 -2 806 81 c 0,133,134
 797 104 797 104 797 139.5 c 128,-1,135
 797 175 797 175 809 230.5 c 128,-1,136
 821 286 821 286 850 352 c 0,137,138
 914 493 914 493 1050 667 c 1,139,140
 959 641 959 641 858 617 c 2,141,-1
 660 568 l 1,142,-1
 512 397 l 1,143,144
 370 241 370 241 280.5 172 c 128,-1,145
 191 103 191 103 128 67 c 0,146,147
 6 -2 6 -2 -139 -2 c 0,148,149
 -218 -2 -218 -2 -274 37 c 0,150,151
 -329 76 -329 76 -329 132 c 0,152,153
 -329 194 -329 194 -268 210 c 0,154,155
 -251 215 -251 215 -236 215 c 0,156,157
 -186 215 -186 215 -186 170 c 0,158,0
 -186 150 -186 150 -203 135.5 c 128,-1,1
1256 753 m 1,159,160
 1576 876 1576 876 1826 1078 c 0,161,162
 1974 1198 1974 1198 2031 1285 c 0,163,164
 2059 1328 2059 1328 2059 1355 c 0,165,166
 2059 1389 2059 1389 2015.5 1389 c 128,-1,167
 1972 1389 1972 1389 1920 1364 c 128,-1,168
 1868 1339 1868 1339 1806.5 1295.5 c 128,-1,169
 1745 1252 1745 1252 1676.5 1191.5 c 128,-1,170
 1608 1131 1608 1131 1537 1060.5 c 128,-1,171
 1466 990 1466 990 1394 912 c 2,172,-1
 1256 753 l 1,159,160
EndSplineSet
Validated: 1
EndChar

StartChar: I
Encoding: 60 73 60
Width: 1110
GlyphClass: 2
Flags: W
LayerCount: 2
Back
Fore
SplineSet
-317 144 m 0,0,1
 -317 235 -317 235 -220 235 c 0,2,3
 -198 235 -198 235 -186.5 217.5 c 128,-1,4
 -175 200 -175 200 -175 187.5 c 128,-1,5
 -175 175 -175 175 -192.5 156.5 c 128,-1,6
 -210 138 -210 138 -236 138 c 128,-1,7
 -262 138 -262 138 -276 145 c 1,8,9
 -276 95 -276 95 -224 58 c 0,10,11
 -178 24 -178 24 -106 24 c 0,12,13
 26 24 26 24 144 99.5 c 128,-1,14
 262 175 262 175 421 363 c 1,15,16
 288 425 288 425 288 609.5 c 128,-1,17
 288 794 288 794 442 977.5 c 128,-1,18
 596 1161 596 1161 852.5 1276.5 c 128,-1,19
 1109 1392 1109 1392 1402 1392 c 1,20,-1
 1577 1378 l 1,21,-1
 1679 1385 l 1,22,23
 1716 1385 1716 1385 1716 1371 c 0,24,25
 1716 1350 1716 1350 1628 1350 c 1,26,-1
 1560 1351 l 1,27,28
 1531 1344 1531 1344 1510 1336 c 2,29,-1
 1466 1320 l 1,30,31
 1169 1189 1169 1189 813 673 c 0,32,33
 691 498 691 498 560 365 c 1,34,-1
 568 365 l 2,35,36
 710 365 710 365 867.5 457 c 128,-1,37
 1025 549 1025 549 1126 696 c 0,38,39
 1177 771 1177 771 1207 857 c 128,-1,40
 1237 943 1237 943 1237 1004.5 c 128,-1,41
 1237 1066 1237 1066 1248.5 1066 c 128,-1,42
 1260 1066 1260 1066 1260 994 c 128,-1,43
 1260 922 1260 922 1230 834 c 0,44,45
 1141 573 1141 573 882 430 c 0,46,47
 716 337 716 337 556 337 c 2,48,-1
 533 337 l 1,49,50
 186 -2 186 -2 -109 -2 c 0,51,52
 -193 -2 -193 -2 -255 40.5 c 128,-1,53
 -317 83 -317 83 -317 144 c 0,0,1
1509 1358 m 1,54,55
 1457 1366 1457 1366 1392 1366 c 0,56,57
 1260 1366 1260 1366 1072.5 1292 c 128,-1,58
 885 1218 885 1218 715 1093.5 c 128,-1,59
 545 969 545 969 440.5 832.5 c 128,-1,60
 336 696 336 696 336 583 c 0,61,62
 336 429 336 429 439 384 c 1,63,64
 543 515 543 515 598 592 c 0,65,66
 863 957 863 957 1093 1139.5 c 128,-1,67
 1323 1322 1323 1322 1509 1358 c 1,54,55
EndSplineSet
Validated: 3073
EndChar

StartChar: J
Encoding: 61 74 61
Width: 1082
GlyphClass: 2
Flags: W
LayerCount: 2
Back
Fore
SplineSet
376 347 m 1,0,1
 235 423 235 423 235 594 c 0,2,3
 235 688 235 688 277.5 790.5 c 128,-1,4
 320 893 320 893 396 984 c 0,5,6
 550 1168 550 1168 808 1284.5 c 128,-1,7
 1066 1401 1066 1401 1346 1401 c 1,8,-1
 1530 1387 l 1,9,-1
 1632 1394 l 1,10,11
 1670 1394 1670 1394 1670 1381 c 0,12,13
 1670 1359 1670 1359 1578 1359 c 1,14,-1
 1513 1360 l 1,15,16
 1340 1318 1340 1318 1147.5 1139.5 c 128,-1,17
 955 961 955 961 756 658 c 1,18,-1
 522 340 l 1,19,20
 658 340 658 340 815 453.5 c 128,-1,21
 972 567 972 567 1081.5 731 c 128,-1,22
 1191 895 1191 895 1191 1035 c 0,23,24
 1191 1066 1191 1066 1202 1066 c 128,-1,25
 1213 1066 1213 1066 1213 1002 c 128,-1,26
 1213 938 1213 938 1184.5 853.5 c 128,-1,27
 1156 769 1156 769 1106 690 c 0,28,29
 1004 530 1004 530 839.5 421.5 c 128,-1,30
 675 313 675 313 511 313 c 2,31,-1
 501 313 l 1,32,33
 377 149 377 149 330 92 c 1,34,-1
 450 124 l 2,35,36
 589 161 589 161 666 191.5 c 128,-1,37
 743 222 743 222 751 226.5 c 128,-1,38
 759 231 759 231 765.5 228.5 c 128,-1,39
 772 226 772 226 771 216 c 0,40,41
 770 205 770 205 632 153 c 1,42,-1
 574 132 l 2,43,44
 544 121 544 121 505 109 c 2,45,-1
 296 49 l 1,46,47
 -164 -521 -164 -521 -446 -671 c 0,48,49
 -578 -741 -578 -741 -697 -741 c 0,50,51
 -742 -741 -742 -741 -765.5 -713 c 128,-1,52
 -789 -685 -789 -685 -789 -638 c 0,53,54
 -789 -536 -789 -536 -663 -401 c 0,55,56
 -538 -266 -538 -266 -324 -146.5 c 128,-1,57
 -110 -27 -110 -27 155 46 c 1,58,-1
 376 347 l 1,0,1
1463 1367 m 1,59,60
 1411 1375 1411 1375 1346 1375 c 0,61,62
 1210 1375 1210 1375 1022 1298 c 0,63,64
 836 1222 836 1222 669 1099 c 128,-1,65
 502 976 502 976 396 833 c 128,-1,66
 290 690 290 690 290 561.5 c 128,-1,67
 290 433 290 433 394 373 c 1,68,-1
 515 545 l 1,69,70
 770 910 770 910 1051 1138 c 0,71,72
 1281 1325 1281 1325 1463 1367 c 1,59,60
121 1 m 1,73,74
 -50 -57 -50 -57 -268 -190 c 0,75,76
 -594 -387 -594 -387 -717 -560 c 0,77,78
 -757 -616 -757 -616 -757 -649 c 128,-1,79
 -757 -682 -757 -682 -739.5 -699 c 128,-1,80
 -722 -716 -722 -716 -694 -716 c 0,81,82
 -424 -716 -424 -716 121 1 c 1,73,74
EndSplineSet
EndChar

StartChar: K
Encoding: 62 75 62
Width: 1693
GlyphClass: 2
Flags: W
LayerCount: 2
Back
Fore
SplineSet
985 1321 m 0,0,1
 985 1383 985 1383 876 1383 c 0,2,3
 700 1383 700 1383 555 1244 c 0,4,5
 473 1164 473 1164 439.5 1095 c 128,-1,6
 406 1026 406 1026 400 1000 c 0,7,8
 390 962 390 962 384 962 c 0,9,10
 373 962 373 962 373 974 c 2,11,-1
 373 988 l 2,12,13
 373 1004 373 1004 396 1056 c 128,-1,14
 419 1108 419 1108 449 1154 c 128,-1,15
 479 1200 479 1200 521 1246 c 128,-1,16
 563 1292 563 1292 617 1328 c 0,17,18
 739 1411 739 1411 883 1411 c 0,19,20
 991 1411 991 1411 1030 1350 c 0,21,22
 1042 1332 1042 1332 1042 1296 c 128,-1,23
 1042 1260 1042 1260 1008.5 1205 c 128,-1,24
 975 1150 975 1150 894 1099 c 2,25,-1
 850 1070 l 2,26,27
 834 1060 834 1060 834 1044 c 0,28,29
 834 1011 834 1011 889 1011 c 0,30,31
 1089 1011 1089 1011 1377 1255 c 1,32,33
 1617 1446 1617 1446 1679 1446 c 0,34,35
 1693 1446 1693 1446 1693 1437.5 c 128,-1,36
 1693 1429 1693 1429 1677.5 1424.5 c 128,-1,37
 1662 1420 1662 1420 1630.5 1403.5 c 128,-1,38
 1599 1387 1599 1387 1554.5 1353.5 c 128,-1,39
 1510 1320 1510 1320 1451 1264.5 c 128,-1,40
 1392 1209 1392 1209 1316 1125 c 128,-1,41
 1240 1041 1240 1041 1145 924 c 2,42,-1
 933 651 l 1,43,44
 688 325 688 325 437 152 c 0,45,46
 212 -2 212 -2 25 -2 c 0,47,48
 -116 -2 -116 -2 -160 80 c 0,49,50
 -174 104 -174 104 -174 129.5 c 128,-1,51
 -174 155 -174 155 -165 171 c 128,-1,52
 -156 187 -156 187 -142 196 c 0,53,54
 -116 215 -116 215 -91 215 c 0,55,56
 -31 215 -31 215 -31 170 c 0,57,58
 -31 150 -31 150 -48 135.5 c 128,-1,59
 -65 121 -65 121 -92.5 121 c 128,-1,60
 -120 121 -120 121 -135 130 c 1,61,-1
 -135 124 l 2,62,63
 -135 80 -135 80 -92.5 52 c 128,-1,64
 -50 24 -50 24 15.5 24 c 128,-1,65
 81 24 81 24 149.5 50.5 c 128,-1,66
 218 77 218 77 300 139 c 0,67,68
 475 270 475 270 689 560 c 0,69,70
 769 668 769 668 877 778 c 2,71,-1
 1066 962 l 1,72,-1
 1229 1115 l 1,73,74
 1030 983 1030 983 889 983 c 0,75,76
 789 983 789 983 789 1064 c 0,77,78
 789 1160 789 1160 938 1267 c 0,79,80
 985 1299 985 1299 985 1321 c 0,0,1
1518 521 m 0,81,82
 1530 521 1530 521 1530 478.5 c 128,-1,83
 1530 436 1530 436 1507.5 380.5 c 128,-1,84
 1485 325 1485 325 1447.5 269.5 c 128,-1,85
 1410 214 1410 214 1360.5 163 c 128,-1,86
 1311 112 1311 112 1257 72 c 0,87,88
 1139 -14 1139 -14 1043 -14 c 0,89,90
 907 -14 907 -14 907 90 c 0,91,92
 907 164 907 164 951 237 c 0,93,94
 1034 374 1034 374 1203 540 c 0,95,96
 1253 587 1253 587 1269 656 c 0,97,98
 1273 673 1273 673 1273 684 c 128,-1,99
 1273 695 1273 695 1270 704 c 1,100,101
 1210 685 1210 685 1158 684 c 0,102,103
 1153 683 1153 683 1150 683 c 0,104,105
 1094 689 1094 689 1077 698 c 0,106,107
 1047 714 1047 714 1047 734 c 0,108,109
 1047 752 1047 752 1072 766 c 0,110,111
 1102 782 1102 782 1144 782 c 0,112,113
 1150 782 1150 782 1156 782 c 0,114,115
 1161.29787234 782.191489362 1161.29787234 782.191489362 1166.43684925 782.191489362 c 0,116,117
 1241.80851064 782.191489362 1241.80851064 782.191489362 1283 741 c 1,118,119
 1390 794 1390 794 1556 983 c 1,120,121
 1751 1195 1751 1195 1960 1308 c 0,122,123
 2150 1412 2150 1412 2294 1412 c 0,124,125
 2368 1412 2368 1412 2406 1374 c 0,126,127
 2435 1345 2435 1345 2435 1304 c 0,128,129
 2435 1293 2435 1293 2433 1281 c 0,130,131
 2422 1212 2422 1212 2366 1188 c 0,132,133
 2350 1181 2350 1181 2327.5 1181 c 128,-1,134
 2305 1181 2305 1181 2293 1199.5 c 128,-1,135
 2281 1218 2281 1218 2284.5 1238.5 c 128,-1,136
 2288 1259 2288 1259 2308 1275.5 c 128,-1,137
 2328 1292 2328 1292 2354 1292 c 128,-1,138
 2380 1292 2380 1292 2397 1277 c 1,139,140
 2401 1294 2401 1294 2401 1308 c 0,141,142
 2401 1334 2401 1334 2388 1348 c 0,143,144
 2350 1389 2350 1389 2299 1389 c 0,145,146
 2249 1389 2249 1389 2206.5 1376 c 128,-1,147
 2164 1363 2164 1363 2112 1331 c 0,148,149
 2025 1277 2025 1277 1837 1102 c 1,150,151
 1529 798 1529 798 1303 715 c 1,152,153
 1321 679 1321 679 1321 637.5 c 128,-1,154
 1321 596 1321 596 1311 550 c 128,-1,155
 1301 504 1301 504 1272 450 c 0,156,157
 1209 332 1209 332 1053 193 c 0,158,159
 960 110 960 110 960 67 c 0,160,161
 960 41 960 41 980 27.5 c 128,-1,162
 1000 14 1000 14 1043.5 14 c 128,-1,163
 1087 14 1087 14 1127.5 29 c 128,-1,164
 1168 44 1168 44 1212 73 c 128,-1,165
 1256 102 1256 102 1300 143.5 c 128,-1,166
 1344 185 1344 185 1384 238 c 0,167,168
 1470 354 1470 354 1504 490 c 0,169,170
 1512 521 1512 521 1518 521 c 0,81,82
1112 750 m 0,171,172
 1096 742 1096 742 1096 734.5 c 128,-1,173
 1096 727 1096 727 1113 718 c 0,174,175
 1128 711 1128 711 1161 712 c 0,176,177
 1214 714 1214 714 1254 729 c 1,178,179
 1221 761 1221 761 1166 761 c 0,180,181
 1158 761 1158 761 1151 760 c 0,182,183
 1122 756 1122 756 1112 750 c 0,171,172
EndSplineSet
Validated: 1
EndChar

StartChar: L
Encoding: 63 76 63
Width: 1347
GlyphClass: 2
Flags: W
LayerCount: 2
Back
Fore
SplineSet
286 67 m 1,0,1
 128 -2 128 -2 -60 -2 c 0,2,3
 -220 -2 -220 -2 -267 50 c 0,4,5
 -280 65 -280 65 -280 84 c 128,-1,6
 -280 103 -280 103 -264 122 c 128,-1,7
 -248 141 -248 141 -218 154 c 0,8,9
 -158 182 -158 182 -42.5 182 c 128,-1,10
 73 182 73 182 271 112 c 1,11,12
 413 205 413 205 619 486 c 1,13,14
 415 492 415 492 286 576 c 0,15,16
 160 659 160 659 160 790 c 256,17,18
 160 921 160 921 280 1032 c 0,19,20
 402 1145 402 1145 553 1145 c 0,21,22
 575 1145 575 1145 575 1133 c 0,23,24
 575 1124 575 1124 520 1118.5 c 128,-1,25
 465 1113 465 1113 407.5 1083 c 128,-1,26
 350 1053 350 1053 312 1010 c 0,27,28
 235 923 235 923 235 830 c 128,-1,29
 235 737 235 737 263.5 681 c 128,-1,30
 292 625 292 625 345 588 c 0,31,32
 449 517 449 517 640 515 c 1,33,-1
 776 712 l 1,34,35
 1024 1082 1024 1082 1232 1244 c 0,36,37
 1435 1401 1435 1401 1653 1401 c 0,38,39
 1769 1401 1769 1401 1807 1330 c 0,40,41
 1819 1307 1819 1307 1819 1267 c 128,-1,42
 1819 1227 1819 1227 1792.5 1168.5 c 128,-1,43
 1766 1110 1766 1110 1718.5 1049 c 128,-1,44
 1671 988 1671 988 1606 927 c 128,-1,45
 1541 866 1541 866 1464 809 c 128,-1,46
 1387 752 1387 752 1300.5 701 c 128,-1,47
 1214 650 1214 650 1124 608 c 0,48,49
 935 521 935 521 769 496 c 1,50,51
 549 202 549 202 332 89 c 1,52,53
 514 24 514 24 767 24 c 0,54,55
 991 24 991 24 1094 127 c 0,56,57
 1109 142 1109 142 1113 133 c 0,58,59
 1120 117 1120 117 1098 95 c 0,60,61
 961 -25 961 -25 777 -25 c 128,-1,62
 593 -25 593 -25 286 67 c 1,0,1
793 528 m 1,63,64
 1003 564 1003 564 1238 700 c 0,65,66
 1454 824 1454 824 1601 988 c 0,67,68
 1752 1155 1752 1155 1752 1286 c 0,69,70
 1752 1344 1752 1344 1688 1370 c 0,71,72
 1669 1378 1669 1378 1647 1378 c 0,73,74
 1329 1378 1329 1378 1026 880 c 1,75,-1
 906 692 l 2,76,77
 849 604 849 604 793 528 c 1,63,64
-48 131 m 0,78,79
 -252 131 -252 131 -252 81 c 0,80,81
 -252 47 -252 47 -149 28 c 0,82,83
 -116 22 -116 22 -52 22 c 0,84,85
 110 22 110 22 226 85 c 1,86,87
 52 131 52 131 -48 131 c 0,78,79
EndSplineSet
Validated: 1
EndChar

StartChar: M
Encoding: 64 77 64
Width: 1750
GlyphClass: 2
Flags: W
LayerCount: 2
Back
Fore
SplineSet
1140 67 m 0,0,1
 1140 25 1140 25 1198 25 c 0,2,3
 1285 25 1285 25 1405 96 c 0,4,5
 1444 119 1444 119 1474 148 c 1,6,7
 1479 145 1479 145 1479 135 c 0,8,9
 1479 117 1479 117 1474 112 c 0,10,11
 1378 33 1378 33 1242 6 c 0,12,13
 1206 -2 1206 -2 1162.5 -2 c 128,-1,14
 1119 -2 1119 -2 1089.5 25 c 128,-1,15
 1060 52 1060 52 1060 80 c 128,-1,16
 1060 108 1060 108 1065.5 130 c 128,-1,17
 1071 152 1071 152 1086 185 c 0,18,19
 1154 334 1154 334 1334 564 c 1,20,-1
 1491 756 l 1,21,-1
 1656 943 l 1,22,-1
 1818 1118 l 1,23,-1
 1971 1274 l 1,24,-1
 2104 1407 l 1,25,26
 2074 1386 2074 1386 2040 1359 c 2,27,-1
 1965 1296 l 1,28,-1
 1746 1097 l 1,29,-1
 1387 757 l 2,30,31
 1107 491 1107 491 769 96 c 0,32,33
 692 7 692 7 667 7 c 0,34,35
 660 7 660 7 652.5 16.5 c 128,-1,36
 645 26 645 26 645 65.5 c 128,-1,37
 645 105 645 105 671.5 185.5 c 128,-1,38
 698 266 698 266 747.5 365 c 128,-1,39
 797 464 797 464 867.5 578.5 c 128,-1,40
 938 693 938 693 1026 817 c 0,41,42
 1211 1076 1211 1076 1441 1335 c 1,43,-1
 1362 1259 l 1,44,-1
 1236 1130 l 1,45,-1
 1058 941 l 1,46,-1
 825 687 l 2,47,48
 393 213 393 213 93 59 c 0,49,50
 -25 -1 -25 -1 -119 -1 c 128,-1,51
 -213 -1 -213 -1 -260 34.5 c 128,-1,52
 -307 70 -307 70 -307 127 c 0,53,54
 -307 169 -307 169 -284 188 c 0,55,56
 -249 218 -249 218 -224 218 c 0,57,58
 -163 218 -163 218 -163 172 c 0,59,60
 -163 152 -163 152 -180 137 c 128,-1,61
 -197 122 -197 122 -224.5 122 c 128,-1,62
 -252 122 -252 122 -268 133 c 1,63,-1
 -269 121 l 2,64,65
 -269 77 -269 77 -231.5 51.5 c 128,-1,66
 -194 26 -194 26 -132.5 26 c 128,-1,67
 -71 26 -71 26 -12.5 44.5 c 128,-1,68
 46 63 46 63 118 105.5 c 128,-1,69
 190 148 190 148 278.5 217 c 128,-1,70
 367 286 367 286 475 386 c 128,-1,71
 583 486 583 486 714 620 c 2,72,-1
 1003 926 l 1,73,74
 1260 1207 1260 1207 1441 1368 c 0,75,76
 1572 1484 1572 1484 1595 1484 c 0,77,78
 1622 1484 1622 1484 1622 1474 c 0,79,80
 1622 1468 1622 1468 1610 1457 c 2,81,-1
 1582 1433 l 2,82,83
 1535 1391 1535 1391 1485 1321 c 2,84,-1
 1377 1164 l 1,85,-1
 1114 758 l 1,86,87
 748 163 748 163 701 65 c 1,88,-1
 868 256 l 1,89,-1
 1013 418 l 1,90,-1
 1151 566 l 1,91,-1
 1295 712 l 1,92,-1
 1458 872 l 1,93,-1
 1655 1060 l 1,94,95
 2110 1487 2110 1487 2228 1487 c 0,96,97
 2238 1487 2238 1487 2238 1479 c 256,98,99
 2238 1471 2238 1471 2212 1453.5 c 128,-1,100
 2186 1436 2186 1436 2138 1394 c 128,-1,101
 2090 1352 2090 1352 2016 1271 c 128,-1,102
 1942 1190 1942 1190 1864 1094 c 2,103,-1
 1706 891 l 1,104,-1
 1546 674 l 1,105,106
 1186 168 1186 168 1166 132 c 0,107,108
 1140 85 1140 85 1140 67 c 0,0,1
EndSplineSet
Validated: 1
EndChar

StartChar: N
Encoding: 65 78 65
Width: 1432
GlyphClass: 2
Flags: W
LayerCount: 2
Back
Fore
SplineSet
687 -8 m 128,-1,1
 687 3 687 3 693 8 c 0,2,3
 741 45 741 45 780 150 c 0,4,5
 795 193 795 193 813 250 c 2,6,-1
 855 388 l 2,7,8
 974 776 974 776 1228 1209 c 1,9,-1
 960 878 l 1,10,-1
 768 655 l 1,11,-1
 649 522 l 1,12,13
 287 126 287 126 84 32 c 0,14,15
 10 -2 10 -2 -46.5 -2 c 128,-1,16
 -103 -2 -103 -2 -141 8.5 c 128,-1,17
 -179 19 -179 19 -204 38 c 0,18,19
 -253 75 -253 75 -253 133 c 0,20,21
 -253 173 -253 173 -230 190 c 0,22,23
 -196 217 -196 217 -170 217 c 0,24,25
 -109 217 -109 217 -109 171 c 0,26,27
 -109 151 -109 151 -126 136 c 128,-1,28
 -143 121 -143 121 -169.5 121 c 128,-1,29
 -196 121 -196 121 -213 131 c 1,30,-1
 -213 125 l 2,31,32
 -213 81 -213 81 -174.5 53 c 128,-1,33
 -136 25 -136 25 -72 25 c 128,-1,34
 -8 25 -8 25 57 53 c 128,-1,35
 122 81 122 81 209 146 c 0,36,37
 396 284 396 284 658 578 c 1,38,-1
 935 896 l 1,39,40
 1276 1304 1276 1304 1319 1368 c 0,41,42
 1337 1390 1337 1390 1345 1390 c 128,-1,43
 1353 1390 1353 1390 1353 1383 c 128,-1,44
 1353 1376 1353 1376 1349 1368 c 2,45,-1
 1335 1342 l 2,46,47
 1298 1281 1298 1281 1278.5 1211.5 c 128,-1,48
 1259 1142 1259 1142 1248.5 1101.5 c 128,-1,49
 1238 1061 1238 1061 1224 1014 c 2,50,-1
 1192 908 l 2,51,52
 1121 684 1121 684 1020 491 c 1,53,54
 1020 491 1020 491 846 178 c 1,55,-1
 1149 538 l 1,56,-1
 1282 690 l 1,57,-1
 1420 842 l 1,58,-1
 1555 986 l 1,59,60
 1937 1382 1937 1382 2197 1466 c 0,61,62
 2285 1495 2285 1495 2380.5 1495.5 c 0,63,64
 2381.51595745 1495.50531915 2381.51595745 1495.50531915 2382.52716161 1495.50531915 c 0,65,66
 2476.56914894 1495.50531915 2476.56914894 1495.50531915 2529.5 1449.5 c 0,67,68
 2583 1403 2583 1403 2584 1318 c 0,69,70
 2584.04 1316.1 2584.04 1316.1 2584.04 1314.1912 c 0,71,72
 2584.04 1220.66 2584.04 1220.66 2488 1106 c 0,73,74
 2386 986 2386 986 2232 912 c 0,75,76
 2196 895 2196 895 2180.5 895 c 128,-1,77
 2165 895 2165 895 2165 902.5 c 128,-1,78
 2165 910 2165 910 2203.5 925.5 c 128,-1,79
 2242 941 2242 941 2302.5 982 c 128,-1,80
 2363 1023 2363 1023 2412 1074 c 0,81,82
 2521 1191 2521 1191 2521 1301 c 0,83,84
 2521 1380 2521 1380 2478.5 1423.5 c 128,-1,85
 2436 1467 2436 1467 2355.5 1467 c 128,-1,86
 2275 1467 2275 1467 2181 1432 c 128,-1,87
 2087 1397 2087 1397 1976 1320 c 0,88,89
 1757 1169 1757 1169 1447 830 c 1,90,-1
 1214 569 l 1,91,-1
 1020 341 l 1,92,-1
 757 28 l 2,93,94
 718 -19 718 -19 702.5 -19 c 128,-1,0
 687 -19 687 -19 687 -8 c 128,-1,1
512 1150 m 1,95,96
 494 1129 494 1129 474 1129 c 128,-1,97
 454 1129 454 1129 439 1141.5 c 128,-1,98
 424 1154 424 1154 424 1172.5 c 128,-1,99
 424 1191 424 1191 436.5 1205 c 128,-1,100
 449 1219 449 1219 470 1219 c 128,-1,101
 491 1219 491 1219 508.5 1209.5 c 128,-1,102
 526 1200 526 1200 540 1182 c 0,103,104
 570 1143 570 1143 570 1083.5 c 128,-1,105
 570 1024 570 1024 543 974.5 c 128,-1,106
 516 925 516 925 472 890 c 0,107,108
 378 815 378 815 255 815 c 0,109,110
 130 815 130 815 49 884 c 0,111,112
 -41 959 -41 959 -41 1091 c 0,113,114
 -41 1233 -41 1233 84 1328 c 0,115,116
 210 1424 210 1424 409 1424 c 0,117,118
 528 1424 528 1424 589.5 1405.5 c 128,-1,119
 651 1387 651 1387 696 1368.5 c 128,-1,120
 741 1350 741 1350 786 1328 c 2,121,-1
 888 1281 l 2,122,123
 966 1249 966 1249 1015 1249 c 0,124,125
 1110 1249 1110 1249 1184 1315 c 0,126,127
 1189 1319 1189 1319 1195.5 1319 c 128,-1,128
 1202 1319 1202 1319 1202 1312 c 0,129,130
 1202 1304 1202 1304 1188 1288 c 0,131,132
 1129 1229 1129 1229 1010 1204 c 0,133,134
 978 1198 978 1198 951 1198 c 128,-1,135
 924 1198 924 1198 887 1204 c 128,-1,136
 850 1210 850 1210 812 1220 c 0,137,138
 735 1242 735 1242 672.5 1278 c 128,-1,139
 610 1314 610 1314 565.5 1334.5 c 128,-1,140
 521 1355 521 1355 486 1366 c 0,141,142
 428 1385 428 1385 356 1385 c 128,-1,143
 284 1385 284 1385 217.5 1362.5 c 128,-1,144
 151 1340 151 1340 100 1300 c 0,145,146
 -9 1212 -9 1212 -9 1085 c 0,147,148
 -9 978 -9 978 62 909 c 0,149,150
 134 839 134 839 251 839 c 0,151,152
 362 839 362 839 446 904 c 0,153,154
 539 974 539 974 539 1081 c 0,155,156
 539 1121 539 1121 512 1150 c 1,95,96
EndSplineSet
Validated: 1
EndChar

StartChar: O
Encoding: 66 79 66
Width: 1269
GlyphClass: 2
Flags: W
LayerCount: 2
Back
Fore
SplineSet
1228 925 m 0,0,1
 1228 1093 1228 1093 1058 1093 c 0,2,3
 931 1093 931 1093 793 994 c 0,4,5
 577 840 577 840 498 576 c 0,6,7
 472 489 472 489 472 432 c 0,8,9
 472 285 472 285 508 230 c 0,10,11
 523 207 523 207 523 202.5 c 128,-1,12
 523 198 523 198 515 198 c 0,13,14
 500 198 500 198 471 259 c 128,-1,15
 442 320 442 320 442 412 c 0,16,17
 442 593 442 593 534 758 c 128,-1,18
 626 923 626 923 771.5 1022 c 128,-1,19
 917 1121 917 1121 1068 1121 c 0,20,21
 1155 1121 1155 1121 1216 1065 c 128,-1,22
 1277 1009 1277 1009 1277 906 c 0,23,24
 1277 712 1277 712 1132 498.5 c 128,-1,25
 987 285 987 285 764.5 141.5 c 128,-1,26
 542 -2 542 -2 323 -2 c 0,27,28
 132 -2 132 -2 64 167 c 0,29,30
 41 224 41 224 41 309 c 0,31,32
 41 483 41 483 147 678 c 0,33,34
 252 873 252 873 429.5 1037.5 c 128,-1,35
 607 1202 607 1202 820 1301.5 c 128,-1,36
 1033 1401 1033 1401 1234 1401 c 128,-1,37
 1435 1401 1435 1401 1488 1274 c 0,38,39
 1504 1236 1504 1236 1504 1195.5 c 128,-1,40
 1504 1155 1504 1155 1487.5 1095.5 c 128,-1,41
 1471 1036 1471 1036 1454.5 1019.5 c 128,-1,42
 1438 1003 1438 1003 1431.5 1003 c 128,-1,43
 1425 1003 1425 1003 1425 1010.5 c 128,-1,44
 1425 1018 1425 1018 1442 1040.5 c 128,-1,45
 1459 1063 1459 1063 1467.5 1114.5 c 128,-1,46
 1476 1166 1476 1166 1476 1198 c 0,47,48
 1476 1274 1476 1274 1413.5 1323.5 c 128,-1,49
 1351 1373 1351 1373 1246 1373 c 0,50,51
 1065 1373 1065 1373 873 1257.5 c 128,-1,52
 681 1142 681 1142 507.5 960 c 128,-1,53
 334 778 334 778 224 581.5 c 128,-1,54
 114 385 114 385 114 236 c 128,-1,55
 114 87 114 87 238 39 c 0,56,57
 279 23 279 23 352 23 c 128,-1,58
 425 23 425 23 526 63 c 128,-1,59
 627 103 627 103 726 171 c 0,60,61
 933 312 933 312 1080.5 524.5 c 128,-1,62
 1228 737 1228 737 1228 925 c 0,0,1
EndSplineSet
Validated: 3073
EndChar

StartChar: P
Encoding: 67 80 67
Width: 1276
GlyphClass: 2
Flags: W
LayerCount: 2
Back
Fore
SplineSet
744 582 m 1,0,1
 309 -2 309 -2 -14 -2 c 0,2,3
 -171 -2 -171 -2 -214 82 c 0,4,5
 -226 106 -226 106 -226 131.5 c 128,-1,6
 -226 157 -226 157 -217 173 c 128,-1,7
 -208 189 -208 189 -194 199 c 0,8,9
 -169 218 -169 218 -132 218 c 0,10,11
 -117 218 -117 218 -99.5 207 c 128,-1,12
 -82 196 -82 196 -82 174 c 128,-1,13
 -82 152 -82 152 -99 137 c 128,-1,14
 -116 122 -116 122 -142.5 122 c 128,-1,15
 -169 122 -169 122 -186 132 c 1,16,-1
 -186 127 l 2,17,18
 -186 82 -186 82 -143.5 54 c 128,-1,19
 -101 26 -101 26 -42.5 26 c 128,-1,20
 16 26 16 26 55 34.5 c 128,-1,21
 94 43 94 43 135.5 66.5 c 128,-1,22
 177 90 177 90 224.5 132 c 128,-1,23
 272 174 272 174 330.5 240.5 c 128,-1,24
 389 307 389 307 462 402 c 2,25,-1
 629 626 l 1,26,27
 573 663 573 663 573 714 c 0,28,29
 573 757 573 757 612 788 c 0,30,31
 648 817 648 817 683.5 817 c 128,-1,32
 719 817 719 817 719 807 c 0,33,34
 719 802 719 802 707 799 c 0,35,36
 660 791 660 791 636.5 762.5 c 128,-1,37
 613 734 613 734 613 703 c 128,-1,38
 613 672 613 672 646 650 c 1,39,-1
 660 669 l 2,40,41
 824 890 824 890 930 998 c 0,42,43
 1101 1174 1101 1174 1264 1286 c 2,44,-1
 1305 1313 l 1,45,46
 1189 1384 1189 1384 948 1384 c 0,47,48
 708 1384 708 1384 478 1290 c 0,49,50
 271 1205 271 1205 139 1065 c 0,51,52
 14 932 14 932 14 803 c 0,53,54
 14 799 14 799 14 795 c 0,55,56
 14 722 14 722 62 681 c 0,57,58
 100 649 100 649 155 649 c 128,-1,59
 210 649 210 649 271.5 681 c 128,-1,60
 333 713 333 713 390 763.5 c 128,-1,61
 447 814 447 814 497.5 876.5 c 128,-1,62
 548 939 548 939 586 1001 c 0,63,64
 668 1133 668 1133 677 1207 c 0,65,66
 680 1241 680 1241 689.5 1241 c 128,-1,67
 699 1241 699 1241 700 1234 c 0,68,69
 702 1218 702 1218 702 1189 c 0,70,71
 702 1187 702 1187 702 1185 c 128,-1,72
 702 1183 702 1183 702 1181 c 128,-1,73
 702 1179 702 1179 702 1178 c 0,74,75
 702 1176 702 1176 702 1175 c 0,76,77
 702 1172 702 1172 702 1172 c 0,78,79
 702 1170 702 1170 702 1169 c 128,-1,80
 702 1168 702 1168 702 1167 c 128,-1,81
 702 1166 702 1166 702 1165 c 128,-1,82
 702 1164 702 1164 702 1163 c 128,-1,83
 702 1162 702 1162 702 1161 c 128,-1,84
 702 1160 702 1160 702 1159 c 128,-1,85
 702 1158 702 1158 702 1157 c 128,-1,86
 702 1156 702 1156 702 1156 c 0,87,88
 702.058823529 1155.52941176 702.058823529 1155.52941176 702.058823529 1154.87197232 c 0,89,90
 702.058823529 1144.35294118 702.058823529 1144.35294118 687 1086 c 0,91,92
 667 1007 667 1007 638 954 c 0,93,94
 606 889 606 889 557.5 829 c 128,-1,95
 509 769 509 769 447 723 c 0,96,97
 311 622 311 622 147 622 c 0,98,99
 86 622 86 622 38 668 c 0,100,101
 -18 722 -18 722 -18 795 c 0,102,103
 -18 800 -18 800 -18 804 c 0,104,105
 -11 889 -11 889 18 948 c 0,106,107
 56 1025 56 1025 124.5 1093.5 c 128,-1,108
 193 1162 193 1162 286.5 1219.5 c 128,-1,109
 380 1277 380 1277 488 1318 c 0,110,111
 716 1406 716 1406 952.5 1406 c 128,-1,112
 1189 1406 1189 1406 1339 1333 c 1,113,114
 1460 1400 1460 1400 1520 1400 c 0,115,116
 1539 1400 1539 1400 1539.5 1392 c 128,-1,117
 1540 1384 1540 1384 1535.5 1380 c 128,-1,118
 1531 1376 1531 1376 1506 1372 c 0,119,120
 1447 1361 1447 1361 1375 1314 c 1,121,122
 1536 1219 1536 1219 1536 1054 c 0,123,124
 1536 932 1536 932 1442 817 c 0,125,126
 1351 707 1351 707 1203 638 c 0,127,128
 1051 568 1051 568 890 568 c 0,129,130
 811 568 811 568 744 582 c 1,0,1
763 607 m 1,131,132
 826 594 826 594 882.5 594 c 128,-1,133
 939 594 939 594 999.5 609 c 128,-1,134
 1060 624 1060 624 1118.5 653.5 c 128,-1,135
 1177 683 1177 683 1231 727 c 128,-1,136
 1285 771 1285 771 1326 830 c 0,137,138
 1416 958 1416 958 1416 1119 c 0,139,140
 1416 1225 1416 1225 1339 1289 c 1,141,142
 1229 1209 1229 1209 1110 1068 c 128,-1,143
 991 927 991 927 912 815 c 2,144,-1
 763 607 l 1,131,132
EndSplineSet
Validated: 1
EndChar

StartChar: Q
Encoding: 68 81 68
Width: 1412
GlyphClass: 2
Flags: W
LayerCount: 2
Back
Fore
SplineSet
1610 -93 m 0,0,1
 1622 -93 1622 -93 1622 -105 c 0,2,3
 1622 -126 1622 -126 1537 -174 c 0,4,5
 1512 -188 1512 -188 1478 -200 c 0,6,7
 1393 -230 1393 -230 1316 -230 c 128,-1,8
 1239 -230 1239 -230 1169 -222 c 128,-1,9
 1099 -214 1099 -214 1020 -194 c 0,10,11
 862 -154 862 -154 651 -52 c 2,12,-1
 455 39 l 1,13,14
 305 1 305 1 187.5 1 c 128,-1,15
 70 1 70 1 11 10 c 128,-1,16
 -48 19 -48 19 -86 34 c 0,17,18
 -157 63 -157 63 -157 104 c 0,19,20
 -157 136 -157 136 -96 164 c 0,21,22
 -32 193 -32 193 55 193 c 0,23,24
 251 193 251 193 514 104 c 1,25,26
 556 122 556 122 596 144 c 2,27,-1
 678 188 l 1,28,29
 933 336 933 336 1149 608 c 0,30,31
 1291 786 1291 786 1351 957 c 0,32,33
 1381 1043 1381 1043 1381 1121 c 0,34,35
 1381 1240 1381 1240 1312 1308.5 c 128,-1,36
 1243 1377 1243 1377 1096 1377 c 0,37,38
 838 1377 838 1377 561 1088 c 0,39,40
 384 902 384 902 320 742 c 0,41,42
 300 691 300 691 300 659 c 128,-1,43
 300 627 300 627 307.5 599.5 c 128,-1,44
 315 572 315 572 334 550 c 0,45,46
 379 500 379 500 471 500 c 0,47,48
 569 500 569 500 704 606 c 0,49,50
 833 707 833 707 936 852 c 0,51,52
 1043 1003 1043 1003 1069 1135 c 0,53,54
 1075 1165 1075 1165 1080 1165 c 0,55,56
 1096 1165 1096 1165 1096 1134 c 0,57,58
 1096 985 1096 985 997 828 c 0,59,60
 902 677 902 677 758 580 c 0,61,62
 607 477 607 477 466 477 c 0,63,64
 360 477 360 477 300 541 c 0,65,66
 242 602 242 602 242 684 c 128,-1,67
 242 766 242 766 268 838.5 c 128,-1,68
 294 911 294 911 348 986 c 0,69,70
 464 1151 464 1151 673 1280 c 0,71,72
 813 1367 813 1367 1000 1393 c 0,73,74
 1056 1401 1056 1401 1114.5 1401 c 128,-1,75
 1173 1401 1173 1401 1232.5 1383 c 128,-1,76
 1292 1365 1292 1365 1337 1326 c 0,77,78
 1434 1240 1434 1240 1434 1073 c 0,79,80
 1434 755 1434 755 1182 474 c 0,81,82
 940 205 940 205 585 78 c 1,83,84
 646 53 646 53 721.5 17.5 c 128,-1,85
 797 -18 797 -18 904.5 -63.5 c 128,-1,86
 1012 -109 1012 -109 1095 -137 c 0,87,88
 1252 -190 1252 -190 1334 -190 c 0,89,90
 1478 -190 1478 -190 1560 -130 c 1,91,-1
 1597 -99 l 2,92,93
 1601 -97 1601 -97 1603.5 -95 c 128,-1,94
 1606 -93 1606 -93 1610 -93 c 0,0,1
401 63 m 1,95,96
 170 165 170 165 44 165 c 0,97,98
 -27 165 -27 165 -59 149.5 c 128,-1,99
 -91 134 -91 134 -91 113 c 0,100,101
 -91 50 -91 50 53 32 c 0,102,103
 97 26 97 26 158 26 c 0,104,105
 280 26 280 26 401 63 c 1,95,96
EndSplineSet
Validated: 1
EndChar

StartChar: R
Encoding: 69 82 69
Width: 1503
GlyphClass: 2
Flags: W
LayerCount: 2
Back
Fore
SplineSet
1447 1029 m 0,0,1
 1447 907 1447 907 1336 792 c 128,-1,2
 1225 677 1225 677 1037 622 c 1,3,4
 1068 590 1068 590 1068 550 c 2,5,-1
 1068 547 l 2,6,7
 1068 467 1068 467 1032 397 c 128,-1,8
 996 327 996 327 866 197 c 1,9,10
 809 150 809 150 809 102 c 2,11,-1
 809 99 l 2,12,13
 809 26 809 26 922.5 26 c 128,-1,14
 1036 26 1036 26 1168 157 c 128,-1,15
 1300 288 1300 288 1365 480 c 0,16,17
 1374 510 1374 510 1379 510 c 0,18,19
 1397 510 1397 510 1397 466 c 0,20,21
 1397 371 1397 371 1317 257.5 c 128,-1,22
 1237 144 1237 144 1121 71 c 128,-1,23
 1005 -2 1005 -2 915.5 -2 c 128,-1,24
 826 -2 826 -2 782 33.5 c 128,-1,25
 738 69 738 69 738 125.5 c 128,-1,26
 738 182 738 182 758 245 c 128,-1,27
 778 308 778 308 849 386 c 2,28,-1
 911 453 l 1,29,30
 982 511 982 511 991 556 c 0,31,32
 993 569 993 569 993 583 c 256,33,34
 993 597 993 597 987 609 c 1,35,36
 941 598 941 598 896.5 598 c 128,-1,37
 852 598 852 598 829 610.5 c 128,-1,38
 806 623 806 623 806 635.5 c 0,39,40
 806 671 806 671 883 671 c 128,-1,41
 960 671 960 671 1005 646 c 1,42,43
 1144 705 1144 705 1251 851.5 c 128,-1,44
 1358 998 1358 998 1358 1117 c 0,45,46
 1358 1203 1358 1203 1295 1263 c 1,47,48
 1049 1097 1049 1097 787 716 c 1,49,50
 383 151 383 151 80 34 c 0,51,52
 -13 -2 -13 -2 -105.5 -2 c 128,-1,53
 -198 -2 -198 -2 -252 36.5 c 128,-1,54
 -306 75 -306 75 -306 136 c 128,-1,55
 -306 197 -306 197 -245 214 c 0,56,57
 -228 218 -228 218 -212 218 c 128,-1,58
 -196 218 -196 218 -179.5 207 c 128,-1,59
 -163 196 -163 196 -163 174 c 128,-1,60
 -163 152 -163 152 -179.5 137 c 128,-1,61
 -196 122 -196 122 -223 122 c 128,-1,62
 -250 122 -250 122 -266 133 c 1,63,-1
 -266 127 l 2,64,65
 -266 82 -266 82 -224 54 c 128,-1,66
 -182 26 -182 26 -122.5 26 c 128,-1,67
 -63 26 -63 26 -23 35 c 0,68,69
 59 53 59 53 149.5 135 c 128,-1,70
 240 217 240 217 395 416 c 1,71,-1
 568 648 l 1,72,73
 782 948 782 948 1052 1152 c 0,74,75
 1196 1261 1196 1261 1258 1292 c 1,76,77
 1137 1373 1137 1373 909 1373 c 128,-1,78
 681 1373 681 1373 480.5 1280 c 128,-1,79
 280 1187 280 1187 163.5 1050.5 c 128,-1,80
 47 914 47 914 47 792 c 0,81,82
 47 713 47 713 96 675.5 c 128,-1,83
 145 638 145 638 204 638 c 0,84,85
 316 638 316 638 433.5 744.5 c 128,-1,86
 551 851 551 851 636 988.5 c 128,-1,87
 721 1126 721 1126 730 1203 c 0,88,89
 733 1237 733 1237 743 1237 c 128,-1,90
 753 1237 753 1237 754.5 1225.5 c 128,-1,91
 756 1214 756 1214 756 1178 c 0,92,93
 756 1076 756 1076 689.5 940 c 128,-1,94
 623 804 623 804 494.5 708 c 128,-1,95
 366 612 366 612 201 612 c 0,96,97
 133 612 133 612 72.5 660.5 c 128,-1,98
 12 709 12 709 12 788 c 0,99,100
 12 942 12 942 146.5 1083.5 c 128,-1,101
 281 1225 281 1225 494 1313 c 128,-1,102
 707 1401 707 1401 927.5 1401 c 128,-1,103
 1148 1401 1148 1401 1289 1309 c 1,104,105
 1437 1384 1437 1384 1506 1384 c 0,106,107
 1526 1384 1526 1384 1526 1375 c 0,108,109
 1525 1367 1525 1367 1519 1363.5 c 128,-1,110
 1513 1360 1513 1360 1468.5 1352 c 128,-1,111
 1424 1344 1424 1344 1325 1283 c 1,112,113
 1447 1184 1447 1184 1447 1029 c 0,0,1
964 632 m 1,114,115
 936 648 936 648 890 648 c 128,-1,116
 844 648 844 648 844 640 c 0,117,118
 844 621 844 621 885 621 c 128,-1,119
 926 621 926 621 964 632 c 1,114,115
EndSplineSet
EndChar

StartChar: S
Encoding: 70 83 70
Width: 1162
GlyphClass: 2
Flags: W
LayerCount: 2
Back
Fore
SplineSet
10 137 m 128,-1,1
 -7 122 -7 122 -33 122 c 128,-1,2
 -59 122 -59 122 -76 132 c 1,3,-1
 -76 127 l 2,4,5
 -76 84 -76 84 -26 53 c 128,-1,6
 24 22 24 22 96.5 22 c 128,-1,7
 169 22 169 22 230 47 c 0,8,9
 348 95 348 95 442 210 c 128,-1,10
 536 325 536 325 630 484 c 1,11,-1
 739 660 l 1,12,13
 496 668 496 668 347 755 c 128,-1,14
 198 842 198 842 198 971 c 0,15,16
 198 1069 198 1069 260.5 1148 c 128,-1,17
 323 1227 323 1227 420 1284 c 0,18,19
 619 1401 619 1401 905 1401 c 0,20,21
 1020 1401 1020 1401 1075 1374 c 0,22,23
 1090 1366 1090 1366 1090 1360.5 c 128,-1,24
 1090 1355 1090 1355 1080.5 1355 c 128,-1,25
 1071 1355 1071 1355 1064.5 1356.5 c 128,-1,26
 1058 1358 1058 1358 1013.5 1368 c 128,-1,27
 969 1378 969 1378 898 1378 c 0,28,29
 750 1378 750 1378 604 1326 c 128,-1,30
 458 1274 458 1274 362 1177 c 128,-1,31
 266 1080 266 1080 266 954 c 0,32,33
 266 862 266 862 392 777 c 128,-1,34
 518 692 518 692 755 685 c 1,35,36
 1103 1235 1103 1235 1390 1360 c 0,37,38
 1484 1401 1484 1401 1559 1401 c 0,39,40
 1701 1401 1701 1401 1701 1286 c 0,41,42
 1701 1179 1701 1179 1586 1040 c 0,43,44
 1407 824 1407 824 1114 718 c 0,45,46
 1013 681 1013 681 905 667 c 1,47,-1
 790 496 l 1,48,49
 447 -2 447 -2 128 -2 c 0,50,51
 7 -2 7 -2 -54.5 37.5 c 128,-1,52
 -116 77 -116 77 -116 137 c 128,-1,53
 -116 197 -116 197 -54 214 c 0,54,55
 -38 218 -38 218 -22 218 c 128,-1,56
 -6 218 -6 218 10.5 207 c 128,-1,57
 27 196 27 196 27 174 c 128,-1,0
 27 152 27 152 10 137 c 128,-1,1
1650 1291 m 0,58,59
 1650 1375 1650 1375 1563 1375 c 0,60,61
 1354 1375 1354 1375 995 805 c 0,62,63
 937 716 937 716 924 695 c 1,64,65
 1204 742 1204 742 1426 937 c 0,66,67
 1560 1055 1560 1055 1616 1172 c 0,68,69
 1650 1243 1650 1243 1650 1291 c 0,58,59
EndSplineSet
Validated: 1
EndChar

StartChar: T
Encoding: 71 84 71
Width: 1145
GlyphClass: 2
Flags: W
LayerCount: 2
Back
Fore
SplineSet
979 1246 m 0,0,1
 990 1246 990 1246 990 1205.5 c 128,-1,2
 990 1165 990 1165 970.5 1110.5 c 128,-1,3
 951 1056 951 1056 918 1006.5 c 128,-1,4
 885 957 885 957 841 914.5 c 128,-1,5
 797 872 797 872 748 841 c 0,6,7
 642 775 642 775 556 775 c 128,-1,8
 470 775 470 775 427.5 817 c 128,-1,9
 385 859 385 859 385 919.5 c 128,-1,10
 385 980 385 980 417.5 1038 c 128,-1,11
 450 1096 450 1096 508 1152 c 0,12,13
 639 1275 639 1275 823 1337 c 0,14,15
 964 1384 964 1384 1189 1384 c 0,16,17
 1332 1384 1332 1384 1465 1355 c 1,18,19
 1577 1335 1577 1335 1654 1335 c 128,-1,20
 1731 1335 1731 1335 1786.5 1349.5 c 128,-1,21
 1842 1364 1842 1364 1890 1388 c 0,22,23
 1992 1440 1992 1440 2036 1509 c 0,24,25
 2046 1526 2046 1526 2056 1526 c 128,-1,26
 2066 1526 2066 1526 2066 1514 c 128,-1,27
 2066 1502 2066 1502 2030.5 1459 c 128,-1,28
 1995 1416 1995 1416 1936.5 1378 c 128,-1,29
 1878 1340 1878 1340 1806 1312 c 0,30,31
 1654 1254 1654 1254 1488 1254 c 0,32,33
 1384 1254 1384 1254 1261 1280 c 0,34,35
 1070 1319 1070 1319 981.5 1319 c 128,-1,36
 893 1319 893 1319 830 1301.5 c 128,-1,37
 767 1284 767 1284 707 1254.5 c 128,-1,38
 647 1225 647 1225 593.5 1186 c 128,-1,39
 540 1147 540 1147 500 1103 c 0,40,41
 413 1007 413 1007 413 923 c 0,42,43
 413 845 413 845 483 816 c 0,44,45
 506 807 506 807 541 807 c 128,-1,46
 576 807 576 807 620.5 828.5 c 128,-1,47
 665 850 665 850 710 885.5 c 128,-1,48
 755 921 755 921 798 965.5 c 128,-1,49
 841 1010 841 1010 876 1056 c 0,50,51
 952 1157 952 1157 967 1221 c 0,52,53
 973 1246 973 1246 979 1246 c 0,0,1
-123.5 168 m 128,-1,55
 -140 153 -140 153 -167 153 c 128,-1,56
 -194 153 -194 153 -211 163 c 1,57,-1
 -211 157 l 2,58,59
 -211 61 -211 61 -74 34 c 0,60,61
 -32 26 -32 26 29.5 26 c 128,-1,62
 91 26 91 26 171 53.5 c 128,-1,63
 251 81 251 81 330 136 c 0,64,65
 498 253 498 253 637 472 c 0,66,67
 681 541 681 541 737 612 c 2,68,-1
 860 763 l 1,69,70
 1016 943 1016 943 1172 1074 c 0,71,72
 1307 1187 1307 1187 1344 1187 c 0,73,74
 1358 1187 1358 1187 1358 1178 c 0,75,76
 1358 1168 1358 1168 1330 1150 c 128,-1,77
 1302 1132 1302 1132 1274.5 1112 c 128,-1,78
 1247 1092 1247 1092 1222.5 1069 c 128,-1,79
 1198 1046 1198 1046 1174 1017.5 c 128,-1,80
 1150 989 1150 989 1121 949 c 128,-1,81
 1092 909 1092 909 1056 854 c 2,82,-1
 972 726 l 1,83,84
 500 -2 500 -2 8 -2 c 0,85,86
 -99 -2 -99 -2 -172 42 c 0,87,88
 -251 90 -251 90 -251 165 c 0,89,90
 -251 205 -251 205 -228 222 c 0,91,92
 -194 249 -194 249 -168 249 c 0,93,94
 -107 249 -107 249 -107 203 c 0,95,54
 -107 183 -107 183 -123.5 168 c 128,-1,55
EndSplineSet
Validated: 1
EndChar

StartChar: U
Encoding: 72 85 72
Width: 1225
GlyphClass: 2
Flags: W
LayerCount: 2
Back
Fore
SplineSet
894 480 m 2,0,1
 659 212 659 212 659 98 c 0,2,3
 659 24 659 24 746 24 c 0,4,5
 875 24 875 24 1027 181 c 1,6,7
 1029 145 l 0,8,9
 862 -2 862 -2 730 -2 c 0,10,11
 688 -2 688 -2 653 23.5 c 128,-1,12
 618 49 618 49 618 129 c 128,-1,13
 618 209 618 209 688 322 c 1,14,15
 394 71 394 71 202 14 c 0,16,17
 148 -2 148 -2 112 -2 c 0,18,19
 13 -2 13 -2 13 98 c 0,20,21
 13 324 13 324 546 832 c 0,22,23
 861 1132 861 1132 861 1246 c 0,24,25
 861 1371 861 1371 647.5 1371 c 128,-1,26
 434 1371 434 1371 221 1208 c 0,27,28
 21 1054 21 1054 21 919 c 0,29,30
 21 809 21 809 120 809 c 0,31,32
 240 809 240 809 419 973 c 128,-1,33
 598 1137 598 1137 668 1298 c 0,34,35
 681 1328 681 1328 688.5 1328 c 128,-1,36
 696 1328 696 1328 696 1291 c 128,-1,37
 696 1254 696 1254 657 1170 c 0,38,39
 579 1001 579 1001 434.5 890 c 128,-1,40
 290 779 290 779 148 779 c 0,41,42
 -8 779 -8 779 -8 900 c 0,43,44
 -8 1142 -8 1142 358 1321 c 0,45,46
 522 1401 522 1401 685 1401 c 0,47,48
 895 1401 895 1401 895 1244 c 0,49,50
 895 1244 895 1244 895 1243 c 0,51,52
 895 1017 895 1017 384 488 c 0,53,54
 105 199 105 199 61 122 c 0,55,56
 47 98 47 98 47 58 c 0,57,58
 47 23 47 23 120 23 c 0,59,60
 160 23 160 23 234 52.5 c 128,-1,61
 308 82 308 82 398 142 c 0,62,63
 602 286 602 286 788 505 c 2,64,-1
 1420 1249 l 1,65,-1
 1565 1249 l 1,66,-1
 894 480 l 2,0,1
EndSplineSet
Validated: 3073
EndChar

StartChar: V
Encoding: 73 86 73
Width: 1048
GlyphClass: 2
Flags: W
LayerCount: 2
Back
Fore
SplineSet
1420 836 m 1,0,-1
 1478 847 l 1,1,2
 1488 847 1488 847 1488 839 c 0,3,4
 1488 813 1488 813 1421 813 c 128,-1,5
 1354 813 1354 813 1306 848 c 128,-1,6
 1258 883 1258 883 1233 940 c 1,7,8
 813 579 813 579 -98 -6 c 0,9,10
 -157 -43 -157 -43 -173.5 -43 c 128,-1,11
 -190 -43 -190 -43 -190 -34 c 128,-1,12
 -190 -25 -190 -25 -168 -14 c 0,13,14
 -145 -4 -145 -4 -124.5 10.5 c 128,-1,15
 -104 25 -104 25 -43 94.5 c 128,-1,16
 18 164 18 164 176 414 c 128,-1,17
 334 664 334 664 375 727 c 1,18,-1
 466 856 l 1,19,20
 562 987 562 987 647 1081 c 1,21,22
 452 942 452 942 329 942 c 0,23,24
 254 942 254 942 224 995 c 0,25,26
 212 1016 212 1016 212 1045 c 0,27,28
 213 1104 213 1104 291 1184 c 1,29,-1
 341 1238 l 2,30,31
 411 1313 411 1313 411 1340 c 0,32,33
 410 1384 410 1384 373 1399.5 c 128,-1,34
 336 1415 336 1415 276 1415 c 0,35,36
 143 1415 143 1415 26 1311 c 0,37,38
 8 1295 8 1295 -1 1295 c 0,39,40
 -11 1295 -11 1295 -11 1308 c 0,41,42
 -11 1320 -11 1320 29.5 1351 c 128,-1,43
 70 1382 70 1382 145.5 1409 c 128,-1,44
 221 1436 221 1436 277 1436 c 0,45,46
 479 1436 479 1436 479 1312 c 0,47,48
 479 1254 479 1254 411 1162 c 0,49,50
 391 1135 391 1135 366 1110 c 2,51,-1
 327 1069 l 2,52,53
 283 1022 283 1022 283 1003 c 0,54,55
 283 968 283 968 322 968 c 0,56,57
 512 968 512 968 844 1277 c 1,58,-1
 870 1300 l 1,59,60
 938 1357 938 1357 954 1357 c 0,61,62
 971 1357 971 1357 971 1348 c 128,-1,63
 971 1339 971 1339 963.5 1335 c 128,-1,64
 956 1331 956 1331 946 1324 c 0,65,66
 881 1282 881 1282 853.5 1243 c 128,-1,67
 826 1204 826 1204 810 1176 c 0,68,69
 478 563 478 563 157 234 c 1,70,-1
 22 102 l 1,71,-1
 194 220 l 1,72,-1
 390 362 l 1,73,-1
 601 520 l 1,74,-1
 815 686 l 1,75,76
 1103 920 1103 920 1213 1018 c 1,77,78
 1213 1196 1213 1196 1327 1378 c 0,79,80
 1386 1469 1386 1469 1478 1514 c 0,81,82
 1519 1534 1519 1534 1553 1534 c 0,83,84
 1632 1534 1632 1534 1632 1453 c 0,85,86
 1632 1287 1632 1287 1266 968 c 1,87,88
 1298 871 1298 871 1376 844 c 0,89,90
 1399 836 1399 836 1420 836 c 1,0,-1
1252 1053 m 1,91,-1
 1392 1184 l 1,92,93
 1597 1387 1597 1387 1597 1465 c 0,94,95
 1597 1486 1597 1486 1582.5 1497.5 c 128,-1,96
 1568 1509 1568 1509 1556 1509 c 0,97,98
 1505 1509 1505 1509 1451 1472 c 128,-1,99
 1397 1435 1397 1435 1353 1373 c 0,100,101
 1252 1231 1252 1231 1252 1053 c 1,91,-1
EndSplineSet
Validated: 1
EndChar

StartChar: W
Encoding: 74 87 74
Width: 1244
GlyphClass: 2
Flags: W
LayerCount: 2
Back
Fore
SplineSet
1099.5 1436 m 128,-1,1
 1124 1436 1124 1436 1124 1427.5 c 128,-1,2
 1124 1419 1124 1419 1115.5 1415 c 128,-1,3
 1107 1411 1107 1411 1096 1404 c 2,4,-1
 1069 1386 l 2,5,6
 1052 1374 1052 1374 1029 1350 c 0,7,8
 974 1291 974 1291 949 1261 c 0,9,10
 876 1170 876 1170 832 1110 c 2,11,-1
 609 803 l 2,12,13
 355 449 355 449 84 198 c 1,14,-1
 -91 43 l 1,15,-1
 -14 88 l 2,16,17
 72 140 72 140 146 200 c 2,18,-1
 288 318 l 1,19,-1
 440 458 l 1,20,-1
 872 876 l 1,21,22
 1121 1105 1121 1105 1206 1176 c 0,23,24
 1366 1307 1366 1307 1409 1338 c 0,25,26
 1555 1446 1555 1446 1571.5 1446 c 128,-1,27
 1588 1446 1588 1446 1588 1432 c 0,28,29
 1588 1423 1588 1423 1568 1413 c 2,30,-1
 1531 1393 l 2,31,32
 1442 1348 1442 1348 1379 1252 c 128,-1,33
 1316 1156 1316 1156 1261 1061 c 2,34,-1
 1146 864 l 1,35,-1
 1023 662 l 2,36,37
 960 562 960 562 922 510 c 2,38,-1
 676 190 l 1,39,-1
 911 433 l 1,40,-1
 1127 646 l 1,41,-1
 1451 955 l 2,42,43
 1812 1297 1812 1297 2044 1380 c 0,44,45
 2128 1410 2128 1410 2216 1410 c 128,-1,46
 2304 1410 2304 1410 2363 1375 c 128,-1,47
 2422 1340 2422 1340 2422 1271 c 0,48,49
 2422 1187 2422 1187 2346 1130 c 0,50,51
 2275 1076 2275 1076 2169 1076 c 0,52,53
 2110 1076 2110 1076 2068 1096 c 0,54,55
 1992 1134 1992 1134 1992 1166 c 128,-1,56
 1992 1198 1992 1198 2017 1198 c 0,57,58
 2031 1198 2031 1198 2035.5 1191.5 c 128,-1,59
 2040 1185 2040 1185 2043.5 1165.5 c 128,-1,60
 2047 1146 2047 1146 2062 1133 c 128,-1,61
 2077 1120 2077 1120 2096 1112 c 0,62,63
 2131 1096 2131 1096 2164 1096 c 128,-1,64
 2197 1096 2197 1096 2232.5 1107 c 128,-1,65
 2268 1118 2268 1118 2298 1140 c 0,66,67
 2368 1190 2368 1190 2368 1269 c 0,68,69
 2368 1327 2368 1327 2314 1356 c 0,70,71
 2270 1379 2270 1379 2210.5 1379 c 128,-1,72
 2151 1379 2151 1379 2105 1369 c 128,-1,73
 2059 1359 2059 1359 2004.5 1334.5 c 128,-1,74
 1950 1310 1950 1310 1886 1270 c 128,-1,75
 1822 1230 1822 1230 1744 1170 c 0,76,77
 1583 1048 1583 1048 1440 909 c 2,78,-1
 1082 562 l 1,79,-1
 910 392 l 1,80,-1
 697 171 l 2,81,82
 549 17 549 17 432 -31 c 0,83,84
 403 -43 403 -43 391 -43 c 0,85,86
 372 -43 372 -43 372 -27 c 0,87,88
 372 -15 372 -15 399 -6 c 128,-1,89
 426 3 426 3 444.5 11.5 c 128,-1,90
 463 20 463 20 480 33 c 128,-1,91
 497 46 497 46 514.5 67 c 128,-1,92
 532 88 532 88 553 120.5 c 128,-1,93
 574 153 574 153 602 201 c 0,94,95
 753 465 753 465 805 548 c 0,96,97
 923 729 923 729 954 772 c 2,98,-1
 1326 1236 l 1,99,-1
 1205 1144 l 2,100,101
 1139 1093 1139 1093 1080 1036 c 2,102,-1
 604 571 l 1,103,-1
 356 341 l 1,104,105
 86 97 86 97 -106 9 c 2,106,-1
 -144 -8 l 2,107,108
 -217 -43 -217 -43 -240 -43 c 128,-1,109
 -263 -43 -263 -43 -263 -28 c 0,110,111
 -263 -16 -263 -16 -218 -3 c 1,112,113
 -167 3 -167 3 -126 42 c 0,114,115
 -55 109 -55 109 22 221 c 2,116,-1
 212 494 l 1,117,-1
 294 603 l 2,118,119
 420 764 420 764 477 829 c 0,120,121
 613 980 613 980 687 1054 c 0,122,123
 1016 1379 1016 1379 1045.5 1407.5 c 128,-1,0
 1075 1436 1075 1436 1099.5 1436 c 128,-1,1
-567 881 m 0,124,125
 -581 881 -581 881 -581 897 c 0,126,127
 -581 951 -581 951 -524 1040 c 0,128,129
 -463 1134 -463 1134 -354 1208 c 0,130,131
 -178 1328 -178 1328 13 1328 c 0,132,133
 149 1328 149 1328 325 1267 c 2,134,-1
 408 1238 l 2,135,136
 508 1204 508 1204 564 1204 c 128,-1,137
 620 1204 620 1204 656 1211.5 c 128,-1,138
 692 1219 692 1219 732 1234 c 0,139,140
 822 1267 822 1267 873 1309.5 c 128,-1,141
 924 1352 924 1352 931 1352 c 128,-1,142
 938 1352 938 1352 938 1346 c 0,143,144
 938 1337 938 1337 902 1305 c 128,-1,145
 866 1273 866 1273 813.5 1239 c 128,-1,146
 761 1205 761 1205 709 1184 c 0,147,148
 614 1147 614 1147 538.5 1147 c 128,-1,149
 463 1147 463 1147 425.5 1151 c 128,-1,150
 388 1155 388 1155 350 1162 c 0,151,152
 287 1175 287 1175 216.5 1198 c 128,-1,153
 146 1221 146 1221 118.5 1228.5 c 128,-1,154
 91 1236 91 1236 66 1240 c 0,155,156
 17 1249 17 1249 -41.5 1249 c 128,-1,157
 -100 1249 -100 1249 -162.5 1234.5 c 128,-1,158
 -225 1220 -225 1220 -284 1193 c 0,159,160
 -457 1113 -457 1113 -527 976 c 0,161,162
 -546 938 -546 938 -546 916 c 0,163,164
 -546 881 -546 881 -567 881 c 0,124,125
EndSplineSet
Validated: 1
EndChar

StartChar: X
Encoding: 75 88 75
Width: 1586
GlyphClass: 2
Flags: W
LayerCount: 2
Back
Fore
SplineSet
851 1436 m 0,0,1
 1116 1436 1116 1436 1116 1172 c 0,2,3
 1115 989 1115 989 1020 784 c 1,4,5
 1435 1252 1435 1252 1762 1382 c 0,6,7
 1868 1424 1868 1424 1938 1424 c 0,8,9
 2065 1424 2065 1424 2065 1344 c 0,10,11
 2065 1313 2065 1313 2048 1296.5 c 128,-1,12
 2031 1280 2031 1280 2010 1280 c 0,13,14
 1988 1280 1988 1280 1977 1299 c 0,15,16
 1965 1319 1965 1319 1965 1342 c 128,-1,17
 1965 1365 1965 1365 1996 1387 c 1,18,19
 1972 1393 1972 1393 1963 1393 c 0,20,21
 1648 1393 1648 1393 1149 885 c 1,22,-1
 1059 786 l 2,23,24
 1039 763 1039 763 1020 738 c 2,25,-1
 979 683 l 1,26,27
 857 480 857 480 800 274 c 0,28,29
 783 212 783 212 783 150.5 c 128,-1,30
 783 89 783 89 824 55 c 128,-1,31
 865 21 865 21 922 21 c 0,32,33
 1083 21 1083 21 1259 171 c 0,34,35
 1372 267 1372 267 1426 402 c 0,36,37
 1455 474 1455 474 1455 553 c 128,-1,38
 1455 632 1455 632 1422.5 671.5 c 128,-1,39
 1390 711 1390 711 1346 711 c 0,40,41
 1269 711 1269 711 1214 649 c 128,-1,42
 1159 587 1159 587 1159 520 c 128,-1,43
 1159 453 1159 453 1196 427 c 0,44,45
 1215 414 1215 414 1207.5 401.5 c 128,-1,46
 1200 389 1200 389 1192 389 c 0,47,48
 1160 389 1160 389 1138 424 c 0,49,50
 1117 457 1117 457 1117 524 c 0,51,52
 1118 602 1118 602 1188 670 c 0,53,54
 1256 736 1256 736 1334 736 c 0,55,56
 1492 736 1492 736 1492 569 c 0,57,58
 1492 354 1492 354 1292 170 c 0,59,60
 1107 -2 1107 -2 920 -2 c 0,61,62
 677 -2 677 -2 677 211 c 0,63,64
 677 283 677 283 707.5 379.5 c 128,-1,65
 738 476 738 476 778 548 c 1,66,67
 568 292 568 292 337.5 145 c 128,-1,68
 107 -2 107 -2 -42 -2 c 0,69,70
 -137 -2 -137 -2 -201.5 43.5 c 128,-1,71
 -266 89 -266 89 -266 161 c 0,72,73
 -266 204 -266 204 -236.5 226.5 c 128,-1,74
 -207 249 -207 249 -181 249 c 0,75,76
 -122 249 -122 249 -122 206 c 0,77,78
 -122 183 -122 183 -139 168 c 128,-1,79
 -156 153 -156 153 -184 153 c 128,-1,80
 -212 153 -212 153 -226 163 c 1,81,82
 -226 60 -226 60 -111 34 c 0,83,84
 -76 26 -76 26 -30 26 c 0,85,86
 68 26 68 26 228 114.5 c 128,-1,87
 388 203 388 203 553 356.5 c 128,-1,88
 718 510 718 510 837 691 c 1,89,90
 1040 1078 1040 1078 1040 1258 c 0,91,92
 1040 1323 1040 1323 993.5 1366.5 c 128,-1,93
 947 1410 947 1410 868 1410 c 0,94,95
 731 1410 731 1410 590 1316 c 128,-1,96
 449 1222 449 1222 349 1088.5 c 128,-1,97
 249 955 249 955 249 855 c 0,98,99
 249 772 249 772 339 772 c 0,100,101
 470 772 470 772 622 924 c 0,102,103
 729 1031 729 1031 873 1319 c 0,104,105
 881 1335 881 1335 888 1335 c 0,106,107
 902 1335 902 1335 902 1294 c 0,108,109
 902 1204 902 1204 813 1072.5 c 128,-1,110
 724 941 724 941 591 844.5 c 128,-1,111
 458 748 458 748 338 748 c 128,-1,112
 218 748 218 748 218 855.5 c 128,-1,113
 218 963 218 963 326 1104 c 0,114,115
 493 1323 493 1323 715 1408 c 0,116,117
 788 1436 788 1436 851 1436 c 0,0,1
EndSplineSet
Validated: 1
EndChar

StartChar: Y
Encoding: 76 89 76
Width: 1195
GlyphClass: 2
Flags: W
LayerCount: 2
Back
Fore
SplineSet
445 350 m 0,0,1
 340 350 340 350 340 470 c 0,2,3
 340 546 340 546 429 687 c 0,4,5
 517 828 517 828 628 943 c 2,6,-1
 784 1104 l 2,7,8
 874 1197 874 1197 884.5 1223.5 c 128,-1,9
 895 1250 895 1250 895 1264 c 0,10,11
 895 1373 895 1373 699 1373 c 0,12,13
 551 1373 551 1373 387 1286.5 c 128,-1,14
 223 1200 223 1200 112 1078 c 128,-1,15
 1 956 1 956 1 861 c 0,16,17
 1 776 1 776 93.5 776 c 128,-1,18
 186 776 186 776 319 888 c 0,19,20
 579 1106 579 1106 626 1264 c 24,21,22
 632 1284 632 1284 638.5 1284 c 128,-1,23
 645 1284 645 1284 645 1243 c 128,-1,24
 645 1202 645 1202 624 1153.5 c 128,-1,25
 603 1105 603 1105 558 1046 c 0,26,27
 468 926 468 926 328.5 830 c 128,-1,28
 189 734 189 734 90 734 c 0,29,30
 -28 734 -28 734 -28 852 c 0,31,32
 -28 961 -28 961 87 1093 c 0,33,34
 266 1299 266 1299 530 1376 c 0,35,36
 616 1401 616 1401 683 1401 c 0,37,38
 946 1401 946 1401 946 1253 c 0,39,40
 946 1166 946 1166 900 1091 c 0,41,42
 815 952 815 952 644 795 c 1,43,-1
 535 684 l 2,44,45
 381 527 381 527 381 445 c 0,46,47
 381 416 381 416 397 395 c 128,-1,48
 413 374 413 374 441.5 374 c 128,-1,49
 470 374 470 374 503 385 c 128,-1,50
 536 396 536 396 584 424 c 0,51,52
 689 484 689 484 855 633.5 c 128,-1,53
 1021 783 1021 783 1235 1024 c 0,54,55
 1383 1191 1383 1191 1507 1240 c 0,56,57
 1540 1253 1540 1253 1558.5 1253 c 128,-1,58
 1577 1253 1577 1253 1577 1241 c 0,59,60
 1577 1235 1577 1235 1561 1229 c 2,61,-1
 1532 1219 l 1,62,63
 1293 1125 1293 1125 1014 600 c 0,64,65
 887 359 887 359 764.5 207.5 c 128,-1,66
 642 56 642 56 512 -49 c 0,67,68
 246 -264 246 -264 7 -264 c 0,69,70
 -176 -264 -176 -264 -242 -163 c 0,71,72
 -263 -131 -263 -131 -263 -100 c 0,73,74
 -263 -50 -263 -50 -234.5 -22.5 c 128,-1,75
 -206 5 -206 5 -182 5 c 128,-1,76
 -158 5 -158 5 -140.5 -6 c 128,-1,77
 -123 -17 -123 -17 -123 -39 c 128,-1,78
 -123 -61 -123 -61 -140 -76 c 128,-1,79
 -157 -91 -157 -91 -181.5 -91 c 128,-1,80
 -206 -91 -206 -91 -220 -85 c 1,81,82
 -223 -96 -223 -96 -223 -114.5 c 128,-1,83
 -223 -133 -223 -133 -205 -157 c 128,-1,84
 -187 -181 -187 -181 -137 -209.5 c 128,-1,85
 -87 -238 -87 -238 -2 -238 c 0,86,87
 158 -238 158 -238 349 -88 c 0,88,89
 540 61 540 61 728 336 c 2,90,-1
 883 562 l 1,91,-1
 1034 768 l 1,92,93
 632 350 632 350 445 350 c 0,0,1
EndSplineSet
Validated: 1
EndChar

StartChar: Z
Encoding: 77 90 77
Width: 1623
GlyphClass: 2
Flags: W
LayerCount: 2
Back
Fore
SplineSet
501 90 m 1,0,1
 336 -2 336 -2 177 -2 c 0,2,3
 66 -2 66 -2 12 26 c 128,-1,4
 -42 54 -42 54 -42 82 c 0,5,6
 -42 135 -42 135 27.5 166 c 128,-1,7
 97 197 97 197 209 197 c 128,-1,8
 321 197 321 197 487 156 c 1,9,10
 634 282 634 282 880 619 c 0,11,12
 1030 825 1030 825 1142 943 c 0,13,14
 1342 1155 1342 1155 1542 1299 c 1,15,16
 1403 1232 1403 1232 1308 1232 c 128,-1,17
 1213 1232 1213 1232 1152 1246 c 0,18,19
 1070 1266 1070 1266 993 1289 c 0,20,21
 896 1318 896 1318 796 1318 c 128,-1,22
 696 1318 696 1318 627 1285 c 0,23,24
 496 1222 496 1222 429 1098 c 0,25,26
 391 1028 391 1028 391 976 c 0,27,28
 391 925 391 925 421.5 887 c 128,-1,29
 452 849 452 849 498.5 849 c 128,-1,30
 545 849 545 849 586 869.5 c 128,-1,31
 627 890 627 890 664 923 c 0,32,33
 734 986 734 986 784 1075 c 128,-1,34
 834 1164 834 1164 841 1224 c 0,35,36
 843 1239 843 1239 852 1239 c 0,37,38
 855 1239 855 1239 862 1226 c 0,39,40
 873 1206 873 1206 873 1171 c 0,41,42
 873 1137 873 1137 862 1095 c 128,-1,43
 851 1053 851 1053 826 1012 c 0,44,45
 774 927 774 927 688 876 c 128,-1,46
 602 825 602 825 522 825 c 0,47,48
 443 825 443 825 404 872 c 0,49,50
 366 918 366 918 366 980 c 0,51,52
 366 1041 366 1041 411 1127 c 0,53,54
 495 1287 495 1287 684 1364 c 0,55,56
 776 1401 776 1401 861.5 1401 c 128,-1,57
 947 1401 947 1401 999 1393.5 c 128,-1,58
 1051 1386 1051 1386 1095.5 1375 c 128,-1,59
 1140 1364 1140 1364 1179.5 1351 c 128,-1,60
 1219 1338 1219 1338 1286.5 1319.5 c 128,-1,61
 1354 1301 1354 1301 1410 1301 c 0,62,63
 1494 1301 1494 1301 1555.5 1326.5 c 128,-1,64
 1617 1352 1617 1352 1647 1380.5 c 128,-1,65
 1677 1409 1677 1409 1693 1409 c 128,-1,66
 1709 1409 1709 1409 1709 1398.5 c 128,-1,67
 1709 1388 1709 1388 1694.5 1378 c 128,-1,68
 1680 1368 1680 1368 1658 1354.5 c 128,-1,69
 1636 1341 1636 1341 1613 1326 c 0,70,71
 1556 1287 1556 1287 1418.5 1125 c 128,-1,72
 1281 963 1281 963 1142 753 c 0,73,74
 858 323 858 323 571 133 c 1,75,-1
 759 80 l 2,76,77
 885 45 885 45 975 45 c 128,-1,78
 1065 45 1065 45 1119 52 c 0,79,80
 1300 75 1300 75 1372 172 c 0,81,82
 1409 221 1409 221 1409 296.5 c 128,-1,83
 1409 372 1409 372 1344 414 c 0,84,85
 1321 429 1321 429 1290 435 c 1,86,87
 1288 412 1288 412 1271 397 c 128,-1,88
 1254 382 1254 382 1232 378 c 128,-1,89
 1210 374 1210 374 1190 381.5 c 128,-1,90
 1170 389 1170 389 1165 404 c 0,91,92
 1157 429 1157 429 1178.5 450.5 c 128,-1,93
 1200 472 1200 472 1241 472 c 0,94,95
 1325 472 1325 472 1381.5 421 c 128,-1,96
 1438 370 1438 370 1438 292 c 0,97,98
 1438 138 1438 138 1314.5 45.5 c 128,-1,99
 1191 -47 1191 -47 1005 -47 c 0,100,101
 895 -47 895 -47 791 -14 c 128,-1,102
 687 19 687 19 624 43 c 2,103,-1
 501 90 l 1,0,1
435 114 m 1,104,105
 288 163 288 163 174 163 c 0,106,107
 58 163 58 163 8 123 c 0,108,109
 -12 107 -12 107 -12 90 c 0,110,111
 -13 79 -13 79 -2 66 c 0,112,113
 35 22 35 22 172.5 22 c 128,-1,114
 310 22 310 22 435 114 c 1,104,105
EndSplineSet
Validated: 1
EndChar

StartChar: bracketleft
Encoding: 78 91 78
Width: 1412
GlyphClass: 2
Flags: W
LayerCount: 2
Back
Fore
SplineSet
602 -179 m 1,0,1
 598 -184 598 -184 589 -206 c 1,2,-1
 184 -206 l 1,3,-1
 1112 1144 l 1,4,-1
 1282 1401 l 1,5,-1
 1675 1401 l 1,6,7
 1664 1387 1664 1387 1659 1374 c 1,8,-1
 1411 1374 l 1,9,-1
 1256 1163 l 1,10,-1
 1006 804 l 1,11,-1
 535 106 l 1,12,-1
 355 -179 l 1,13,-1
 602 -179 l 1,0,1
EndSplineSet
Validated: 1
EndChar

StartChar: backslash
Encoding: 79 92 79
Width: 869
GlyphClass: 2
Flags: W
LayerCount: 2
Back
Fore
SplineSet
708 -106 m 1,0,1
 680 -104 680 -104 668 -104 c 128,-1,2
 656 -104 656 -104 646 -106 c 1,3,-1
 -316 1378 l 1,4,-1
 -278 1376 l 2,5,6
 -268 1376 -268 1376 -254 1382 c 1,7,-1
 708 -106 l 1,0,1
EndSplineSet
Validated: 1
EndChar

StartChar: bracketright
Encoding: 80 93 80
Width: 1412
GlyphClass: 2
Flags: W
LayerCount: 2
Back
Fore
SplineSet
451 -203 m 1,0,1
 462 -189 462 -189 467 -176 c 1,2,-1
 714 -176 l 1,3,-1
 868 35 l 1,4,-1
 1120 394 l 1,5,-1
 1590 1092 l 1,6,-1
 1771 1377 l 1,7,-1
 1524 1377 l 1,8,9
 1528 1382 1528 1382 1537 1404 c 1,10,-1
 1942 1404 l 1,11,-1
 1014 54 l 1,12,-1
 844 -203 l 1,13,-1
 451 -203 l 1,0,1
EndSplineSet
Validated: 1
EndChar

StartChar: asciicircum
Encoding: 81 94 81
Width: 1101
GlyphClass: 2
Flags: W
LayerCount: 2
Back
Fore
SplineSet
356 950 m 2,0,1
 347 957 347 957 339 962 c 1,2,-1
 637 1384 l 1,3,-1
 935 962 l 1,4,5
 918 950 918 950 903 935 c 1,6,-1
 637 1308 l 1,7,-1
 373 935 l 1,8,-1
 356 950 l 2,0,1
EndSplineSet
Validated: 1
EndChar

StartChar: underscore
Encoding: 82 95 82
Width: 1106
GlyphClass: 2
Flags: W
LayerCount: 2
Back
Fore
SplineSet
1151 -106 m 1,0,-1
 1151 -149 l 1,1,-1
 -314 -149 l 1,2,-1
 -317 -105 l 1,3,-1
 1151 -106 l 1,0,-1
EndSplineSet
Validated: 1
EndChar

StartChar: grave
Encoding: 83 96 83
Width: 612
GlyphClass: 2
Flags: W
LayerCount: 2
Back
Fore
SplineSet
49 1149 m 128,-1,1
 92 1149 92 1149 102 1086 c 0,2,3
 118 976 118 976 143 936 c 0,4,5
 187 866 187 866 268 820 c 0,6,7
 280 811 280 811 286 807.5 c 128,-1,8
 292 804 292 804 292 796 c 128,-1,9
 292 788 292 788 282 788 c 128,-1,10
 272 788 272 788 261 794 c 2,11,-1
 231 811 l 2,12,13
 138 867 138 867 71 954 c 0,14,15
 6 1038 6 1038 6 1093.5 c 128,-1,0
 6 1149 6 1149 49 1149 c 128,-1,1
EndSplineSet
Validated: 1
EndChar

StartChar: a
Encoding: 84 97 84
Width: 899
GlyphClass: 2
Flags: W
LayerCount: 2
Back
Fore
SplineSet
399 -2 m 0,0,1
 299 -2 299 -2 299 60 c 0,2,3
 299 111 299 111 357 188 c 2,4,-1
 420 268 l 1,5,-1
 410 272 l 1,6,7
 242 65 242 65 93 12 c 0,8,9
 52 -2 52 -2 22 -2 c 0,10,11
 -101 -2 -101 -2 -101 129 c 0,12,13
 -101 283 -101 283 22 423 c 0,14,15
 204 635 204 635 388 674 c 0,16,17
 443 685 443 685 482 685 c 128,-1,18
 521 685 521 685 543.5 679.5 c 128,-1,19
 566 674 566 674 583 664 c 0,20,21
 619 641 619 641 619 607.5 c 128,-1,22
 619 574 619 574 607 544 c 1,23,-1
 705 665 l 1,24,25
 732 657 732 657 755 657 c 0,26,27
 814 657 814 657 840 661 c 1,28,-1
 503 255 l 2,29,30
 383 115 383 115 383 58 c 0,31,32
 383 26 383 26 421 26 c 128,-1,33
 459 26 459 26 508.5 49 c 128,-1,34
 558 72 558 72 607 108 c 128,-1,35
 656 144 656 144 702.5 188 c 128,-1,36
 749 232 749 232 788.5 274 c 128,-1,37
 828 316 828 316 858 352 c 2,38,-1
 906 406 l 1,39,-1
 927 389 l 1,40,-1
 876 331 l 2,41,42
 588 -2 588 -2 399 -2 c 0,0,1
122 358 m 0,43,44
 -19 187 -19 187 -19 78 c 0,45,46
 -19 28 -19 28 26 28 c 0,47,48
 172 28 172 28 447 351 c 1,49,-1
 531 452 l 1,50,51
 591 543 591 543 591 584 c 0,52,53
 591 654 591 654 521 654 c 0,54,55
 426 654 426 654 248 492 c 0,56,57
 187 436 187 436 122 358 c 0,43,44
EndSplineSet
Validated: 1
EndChar

StartChar: b
Encoding: 85 98 85
Width: 797
GlyphClass: 2
Flags: W
LayerCount: 2
Back
Fore
SplineSet
473 256 m 1,0,1
 447 222 447 222 409 185 c 0,2,3
 277 36 277 36 113 0 c 0,4,5
 68 -10 68 -10 33.5 -10 c 128,-1,6
 -1 -10 -1 -10 -25 0.5 c 128,-1,7
 -49 11 -49 11 -65 28 c 0,8,9
 -96 62 -96 62 -96 114.5 c 128,-1,10
 -96 167 -96 167 -79 220.5 c 128,-1,11
 -62 274 -62 274 -30 336.5 c 128,-1,12
 2 399 2 399 48 471 c 2,13,-1
 149 628 l 1,14,-1
 242 760 l 2,15,16
 296 832 296 832 360 910 c 2,17,-1
 493 1067 l 1,18,19
 825 1447 825 1447 1040 1551 c 0,20,21
 1097 1579 1097 1579 1142 1579 c 0,22,23
 1215 1579 1215 1579 1215 1524.5 c 128,-1,24
 1215 1470 1215 1470 1187.5 1405 c 128,-1,25
 1160 1340 1160 1340 1108.5 1268.5 c 128,-1,26
 1057 1197 1057 1197 982 1122.5 c 128,-1,27
 907 1048 907 1048 812 977 c 0,28,29
 610 826 610 826 358 727 c 1,30,31
 135 454 135 454 66 342.5 c 128,-1,32
 -3 231 -3 231 -22 182 c 128,-1,33
 -41 133 -41 133 -41 100 c 0,34,35
 -41 15 -41 15 34 15 c 0,36,37
 196 15 196 15 334 160 c 0,38,39
 381 208 381 208 418 274 c 1,40,41
 469 337 469 337 484 461 c 0,42,43
 487 486 487 486 487 492 c 2,44,-1
 475 579 l 1,45,46
 481 655 481 655 537 655 c 0,47,48
 594 655 594 655 594 573 c 0,49,50
 594 557 594 557 592 536 c 0,51,52
 587 486 587 486 558 411 c 0,53,54
 530 339 530 339 501 294 c 0,55,56
 499 287 499 287 499.5 279.5 c 128,-1,57
 500 272 500 272 500 264 c 0,58,59
 500 214 500 214 556 211 c 0,60,61
 611 211 611 211 700 292 c 0,62,63
 759 346 759 346 804 406 c 1,64,-1
 825 389 l 1,65,66
 808 371 808 371 778.5 337 c 128,-1,67
 749 303 749 303 712 270 c 0,68,69
 622 186 622 186 551 186 c 128,-1,70
 480 186 480 186 473 256 c 1,0,1
1181 1520 m 0,71,72
 1181 1558 1181 1558 1142 1558 c 0,73,74
 1059 1558 1059 1558 868 1342 c 1,75,-1
 748 1200 l 1,76,-1
 391 767 l 1,77,78
 587 843 587 843 784 1000 c 0,79,80
 955 1138 955 1138 1070 1292 c 0,81,82
 1181 1441 1181 1441 1181 1520 c 0,71,72
EndSplineSet
Validated: 1
EndChar

StartChar: c
Encoding: 86 99 86
Width: 665
GlyphClass: 2
Flags: W
LayerCount: 2
Back
Fore
SplineSet
464 482 m 0,0,1
 390 482 390 482 390 543 c 0,2,3
 390 571 390 571 414 590 c 128,-1,4
 438 609 438 609 464 609 c 0,5,6
 491 609 491 609 516 597 c 1,7,-1
 516 601 l 1,8,9
 514 659 514 659 443 659 c 0,10,11
 298 659 298 659 68 357 c 0,12,13
 -27 231 -27 231 -27 129 c 0,14,15
 -27 85 -27 85 6 54 c 128,-1,16
 39 23 39 23 104.5 23 c 128,-1,17
 170 23 170 23 243.5 50 c 128,-1,18
 317 77 317 77 380 118 c 128,-1,19
 443 159 443 159 495 207.5 c 128,-1,20
 547 256 547 256 585 298.5 c 128,-1,21
 623 341 623 341 645 371 c 128,-1,22
 667 401 667 401 671 406 c 1,23,-1
 693 389 l 1,24,-1
 666 353 l 1,25,26
 477 105 477 105 246 22 c 0,27,28
 168 -6 168 -6 99 -6 c 0,29,30
 -18 -6 -18 -6 -71 44.5 c 128,-1,31
 -124 95 -124 95 -124 168 c 0,32,33
 -124 311 -124 311 -13 443.5 c 128,-1,34
 98 576 98 576 216 630.5 c 128,-1,35
 334 685 334 685 432 685 c 0,36,37
 562 685 562 685 562 577 c 0,38,39
 562 549 562 549 528.5 515.5 c 128,-1,40
 495 482 495 482 464 482 c 0,0,1
EndSplineSet
Validated: 1
EndChar

StartChar: d
Encoding: 87 100 87
Width: 872
GlyphClass: 2
Flags: W
LayerCount: 2
Back
Fore
SplineSet
369 -2 m 0,0,1
 271 -2 271 -2 271 62 c 128,-1,2
 271 126 271 126 390 268 c 1,3,-1
 382 272 l 1,4,5
 137 -2 137 -2 -8 -2 c 0,6,7
 -135 -2 -135 -2 -135 129 c 0,8,9
 -135 281 -135 281 -10 423 c 0,10,11
 215 685 215 685 465 685 c 0,12,13
 543 685 543 685 576 639 c 0,14,15
 586 625 586 625 586 594 c 0,16,17
 586 591 586 591 586 586 c 1,18,-1
 1292 1595 l 1,19,20
 1329 1579 1329 1579 1361 1579 c 128,-1,21
 1393 1579 1393 1579 1419 1582 c 1,22,-1
 469 250 l 1,23,24
 411 172 411 172 381.5 126.5 c 128,-1,25
 352 81 352 81 352 54.5 c 128,-1,26
 352 28 352 28 377 28 c 0,27,28
 569 28 569 28 844 364 c 0,29,30
 876 403 876 403 879 406 c 1,31,-1
 901 389 l 1,32,33
 890 378 890 378 862.5 345 c 128,-1,34
 835 312 835 312 794 269 c 0,35,36
 539 -2 539 -2 369 -2 c 0,0,1
92 356 m 1,37,38
 -51 182 -51 182 -51 78 c 0,39,40
 -51 28 -51 28 -1 28 c 0,41,42
 88 28 88 28 247 173 c 1,43,-1
 329 252 l 1,44,45
 400 322 400 322 445 386 c 2,46,-1
 534 513 l 1,47,48
 557 559 557 559 557 592 c 128,-1,49
 557 625 557 625 533 639.5 c 128,-1,50
 509 654 509 654 483 654 c 0,51,52
 425 654 425 654 322 579 c 128,-1,53
 219 504 219 504 92 356 c 1,37,38
EndSplineSet
Validated: 1
EndChar

StartChar: e
Encoding: 88 101 88
Width: 674
GlyphClass: 2
Flags: W
LayerCount: 2
Back
Fore
SplineSet
78 506 m 0,0,1
 282 685 282 685 455 685 c 0,2,3
 564 685 564 685 564 614 c 0,4,5
 564 509 564 509 304 386 c 0,6,7
 209 341 209 341 57 291 c 1,8,9
 -2 195 -2 195 -2 134.5 c 128,-1,10
 -2 74 -2 74 29.5 48.5 c 128,-1,11
 61 23 61 23 121.5 23 c 128,-1,12
 182 23 182 23 252.5 49 c 128,-1,13
 323 75 323 75 384.5 115 c 128,-1,14
 446 155 446 155 496 202 c 128,-1,15
 546 249 546 249 584.5 292 c 128,-1,16
 623 335 623 335 647.5 366.5 c 128,-1,17
 672 398 672 398 681 406 c 1,18,-1
 702 389 l 1,19,20
 689 378 689 378 662.5 344 c 128,-1,21
 636 310 636 310 595.5 266.5 c 128,-1,22
 555 223 555 223 502.5 175 c 128,-1,23
 450 127 450 127 386.5 86.5 c 128,-1,24
 323 46 323 46 249.5 20 c 128,-1,25
 176 -6 176 -6 110 -6 c 0,26,27
 -0 -6 -0 -6 -47 45 c 128,-1,28
 -94 96 -94 96 -94 171 c 0,29,30
 -94 355 -94 355 78 506 c 0,0,1
80 326 m 1,31,32
 382 432 382 432 469 537 c 0,33,34
 498 572 498 572 498 605 c 0,35,36
 498 661 498 661 446 661 c 0,37,38
 354 661 354 661 216 500 c 0,39,40
 120 388 120 388 80 326 c 1,31,32
EndSplineSet
Validated: 1
EndChar

StartChar: f
Encoding: 89 102 89
Width: 554
GlyphClass: 2
Flags: W
LayerCount: 2
Back
Fore
SplineSet
172 159 m 0,0,1
 64 159 64 159 -4 208 c 1,2,-1
 -45 144 l 1,3,4
 -73 -216 -73 -216 -212 -496 c 0,5,6
 -302 -678 -302 -678 -414 -750 c 0,7,8
 -471 -787 -471 -787 -521 -787 c 128,-1,9
 -571 -787 -571 -787 -598 -760 c 0,10,11
 -627 -731 -627 -731 -627 -695 c 0,12,13
 -627 -658 -627 -658 -622 -629.5 c 128,-1,14
 -617 -601 -617 -601 -598 -558 c 0,15,16
 -559 -469 -559 -469 -463 -313 c 1,17,-1
 -338 -116 l 1,18,-1
 -74 284 l 1,19,20
 -123 360 -123 360 -123 436 c 0,21,22
 -123 478 -123 478 -103 502 c 128,-1,23
 -83 526 -83 526 -58.5 526 c 128,-1,24
 -34 526 -34 526 -18.5 510 c 128,-1,25
 -3 494 -3 494 -3 474 c 0,26,27
 -3 441 -3 441 -23.5 410.5 c 128,-1,28
 -44 380 -44 380 -68 368 c 1,29,30
 -64 346 -64 346 -51 319 c 1,31,-1
 440 1080 l 2,32,33
 502 1175 502 1175 590 1286 c 0,34,35
 824 1579 824 1579 935 1579 c 0,36,37
 1022 1579 1022 1579 1022 1470 c 0,38,39
 1022 1418 1022 1418 983 1325.5 c 128,-1,40
 944 1233 944 1233 874 1126 c 0,41,42
 735 915 735 915 512.5 694.5 c 128,-1,43
 290 474 290 474 82 342 c 1,44,-1
 11 232 l 1,45,46
 66 185 66 185 147 185 c 0,47,48
 293 185 293 185 407 258 c 0,49,50
 477 303 477 303 560 405 c 1,51,-1
 583 389 l 1,52,53
 572 379 572 379 553 356 c 128,-1,54
 534 333 534 333 506 306 c 0,55,56
 354 159 354 159 174 159 c 0,57,58
 173 159 173 159 172 159 c 0,0,1
118 398 m 1,59,60
 406 594 406 594 688 945 c 0,61,62
 893 1200 893 1200 957 1388 c 0,63,64
 978 1450 978 1450 978 1487 c 128,-1,65
 978 1524 978 1524 963.5 1540 c 128,-1,66
 949 1556 949 1556 932 1556 c 0,67,68
 859 1556 859 1556 683 1280 c 2,69,-1
 118 398 l 1,59,60
-78 94 m 1,70,-1
 -415 -422 l 1,71,-1
 -495 -554 l 1,72,73
 -567 -679 -567 -679 -567 -720 c 0,74,75
 -567 -737 -567 -737 -554.5 -749.5 c 128,-1,76
 -542 -762 -542 -762 -517.5 -762 c 128,-1,77
 -493 -762 -493 -762 -452.5 -734 c 128,-1,78
 -412 -706 -412 -706 -366 -654 c 0,79,80
 -264 -537 -264 -537 -182 -340.5 c 128,-1,81
 -100 -144 -100 -144 -78 94 c 1,70,-1
EndSplineSet
Validated: 1
EndChar

StartChar: g
Encoding: 90 103 90
Width: 918
GlyphClass: 2
Flags: W
LayerCount: 2
Back
Fore
SplineSet
204 -168 m 1,0,1
 624 44 624 44 925 406 c 1,2,-1
 945 389 l 1,3,4
 626 3 626 3 166 -214 c 1,5,-1
 -12 -427 l 1,6,7
 -237 -683 -237 -683 -378 -748 c 0,8,9
 -465 -787 -465 -787 -579 -787 c 0,10,11
 -641 -787 -641 -787 -670 -744 c 0,12,13
 -680 -729 -680 -729 -680 -711 c 0,14,15
 -680 -694 -680 -694 -671 -674 c 0,16,17
 -651 -630 -651 -630 -622 -598 c 0,18,19
 -590 -564 -590 -564 -537 -525 c 128,-1,20
 -484 -486 -484 -486 -405 -441 c 0,21,22
 -243 -349 -243 -349 31 -233 c 1,23,-1
 434 268 l 1,24,-1
 426 272 l 1,25,26
 243 64 243 64 98 13 c 0,27,28
 55 -2 55 -2 24 -2 c 0,29,30
 -97 -2 -97 -2 -101 129 c 1,31,32
 -101 284 -101 284 18 423 c 0,33,34
 233 685 233 685 486 685 c 0,35,36
 552 685 552 685 590 663 c 0,37,38
 630 640 630 640 630 597 c 0,39,40
 630 574 630 574 618 544 c 1,41,-1
 712 665 l 1,42,43
 741 657 741 657 765 657 c 0,44,45
 823 657 823 657 849 661 c 1,46,-1
 204 -168 l 1,0,1
602 594 m 0,47,48
 600 654 600 654 512 654 c 0,49,50
 414 654 414 654 244 490 c 0,51,52
 186 434 186 434 117 348 c 0,53,54
 -18 180 -18 180 -18 83 c 0,55,56
 -18 81 -18 81 -18 80 c 0,57,58
 -18 53 -18 53 -5 40 c 0,59,60
 6 28 6 28 32.5 28 c 128,-1,61
 59 28 59 28 101 44.5 c 128,-1,62
 143 61 143 61 197 100 c 0,63,64
 322 189 322 189 461 351 c 1,65,-1
 539 446 l 1,66,67
 602 538 602 538 602 594 c 0,47,48
-4 -276 m 1,68,69
 -515 -500 -515 -500 -611 -630 c 0,70,71
 -645 -677 -645 -677 -645 -720 c 0,72,73
 -645 -731 -645 -731 -626.5 -745.5 c 128,-1,74
 -608 -760 -608 -760 -575 -760 c 128,-1,75
 -542 -760 -542 -760 -509 -751.5 c 128,-1,76
 -476 -743 -476 -743 -440 -722.5 c 128,-1,77
 -404 -702 -404 -702 -362 -666.5 c 128,-1,78
 -320 -631 -320 -631 -267.5 -577.5 c 128,-1,79
 -215 -524 -215 -524 -150 -450 c 2,80,-1
 -4 -276 l 1,68,69
EndSplineSet
Validated: 1
EndChar

StartChar: h
Encoding: 91 104 91
Width: 907
GlyphClass: 2
Flags: W
LayerCount: 2
Back
Fore
SplineSet
-114 19 m 1,0,1
 -141 24 -141 24 -174 24 c 0,2,3
 -231 24 -231 24 -268 14 c 1,4,-1
 839 1595 l 1,5,6
 872 1590 872 1590 907 1590 c 128,-1,7
 942 1590 942 1590 978 1595 c 1,8,-1
 -14 218 l 1,9,-1
 -9 207 l 1,10,11
 404 685 404 685 596 685 c 0,12,13
 713 685 713 685 713 577 c 0,14,15
 713 463 713 463 388 104 c 0,16,17
 356 69 356 69 356 49 c 0,18,19
 356 26 356 26 440 26 c 0,20,21
 564 26 564 26 736 202 c 1,22,-1
 914 406 l 1,23,-1
 936 389 l 1,24,-1
 748 177 l 2,25,26
 587 -3 587 -3 433 -3 c 0,27,28
 282 -2 282 -2 282 76 c 0,29,30
 282 174 282 174 450 362 c 0,31,32
 634 570 634 570 634 624 c 0,33,34
 634 660 634 660 587 660 c 0,35,36
 395 660 395 660 -22 141 c 1,37,-1
 -114 19 l 1,0,1
EndSplineSet
Validated: 1
EndChar

StartChar: i
Encoding: 92 105 92
Width: 453
GlyphClass: 2
Flags: W
LayerCount: 2
Back
Fore
SplineSet
497 883.5 m 128,-1,1
 479 876 479 876 456 876 c 128,-1,2
 433 876 433 876 416.5 893.5 c 128,-1,3
 400 911 400 911 400 933 c 128,-1,4
 400 955 400 955 408 972 c 128,-1,5
 416 989 416 989 430 1002 c 0,6,7
 459 1032 459 1032 493.5 1032 c 128,-1,8
 528 1032 528 1032 544.5 1013.5 c 128,-1,9
 561 995 561 995 561 973 c 128,-1,10
 561 951 561 951 552.5 934 c 128,-1,11
 544 917 544 917 529.5 904 c 128,-1,0
 515 891 515 891 497 883.5 c 128,-1,1
-47 26 m 128,-1,13
 12 26 12 26 64.5 53 c 128,-1,14
 117 80 117 80 170.5 120.5 c 128,-1,15
 224 161 224 161 274 209 c 2,16,-1
 364 299 l 2,17,18
 404 341 404 341 430 371.5 c 128,-1,19
 456 402 456 402 461 407 c 1,20,-1
 481 389 l 1,21,22
 471 379 471 379 443.5 346.5 c 128,-1,23
 416 314 416 314 375 270.5 c 128,-1,24
 334 227 334 227 283 179 c 128,-1,25
 232 131 232 131 176 91 c 0,26,27
 47 -2 47 -2 -50 -2 c 0,28,29
 -112 -2 -112 -2 -149 20.5 c 128,-1,30
 -186 43 -186 43 -186 72 c 128,-1,31
 -186 101 -186 101 -180 124 c 128,-1,32
 -174 147 -174 147 -158 179 c 128,-1,33
 -142 211 -142 211 -113.5 254 c 128,-1,34
 -85 297 -85 297 -39.5 357 c 128,-1,35
 6 417 6 417 71 496 c 2,36,-1
 225 678 l 1,37,38
 237 675 237 675 274 675 c 2,39,-1
 321 675 l 2,40,41
 347 675 347 675 363 677 c 1,42,43
 32 282 32 282 -9.5 227.5 c 128,-1,44
 -51 173 -51 173 -71 142 c 0,45,46
 -106 89 -106 89 -106 57.5 c 128,-1,12
 -106 26 -106 26 -47 26 c 128,-1,13
EndSplineSet
Validated: 1
EndChar

StartChar: j
Encoding: 93 106 93
Width: 382
GlyphClass: 2
Flags: W
LayerCount: 2
Back
Fore
SplineSet
442 883.5 m 128,-1,1
 424 876 424 876 401.5 876 c 128,-1,2
 379 876 379 876 362 893.5 c 128,-1,3
 345 911 345 911 345 933 c 128,-1,4
 345 955 345 955 353 972 c 128,-1,5
 361 989 361 989 375 1002 c 0,6,7
 406 1032 406 1032 440 1032 c 128,-1,8
 474 1032 474 1032 490 1013.5 c 128,-1,9
 506 995 506 995 506 973 c 128,-1,10
 506 951 506 951 497.5 934 c 128,-1,11
 489 917 489 917 474.5 904 c 128,-1,0
 460 891 460 891 442 883.5 c 128,-1,1
171 677 m 5,12,13
 181 675 181 675 209 675 c 4,14,15
 244 675 244 675 269 675 c 4,16,17
 313 675 313 675 327 677 c 5,18,-1
 -179 24 l 5,19,-1
 -328 -160 l 5,20,21
 -71 -36 -71 -36 68 72 c 4,22,23
 175 155 175 155 253 243.5 c 132,-1,24
 331 332 331 332 390 406 c 5,25,-1
 410 389 l 5,26,27
 228 161 228 161 64 38 c 4,28,29
 -51 -47 -51 -47 -162 -105 c 6,30,-1
 -365 -205 l 5,31,32
 -573 -455 -573 -455 -677 -550 c 132,-1,33
 -781 -645 -781 -645 -840.5 -685.5 c 132,-1,34
 -900 -726 -900 -726 -954 -748 c 4,35,36
 -1048 -787 -1048 -787 -1170 -787 c 4,37,38
 -1233 -787 -1233 -787 -1254 -744 c 4,39,40
 -1259 -732 -1259 -732 -1259 -705.5 c 132,-1,41
 -1259 -679 -1259 -679 -1225 -631.5 c 132,-1,42
 -1191 -584 -1191 -584 -1107 -526 c 4,43,44
 -937 -408 -937 -408 -523 -236 c 5,45,-1
 -138 250 l 5,46,47
 100 563 100 563 135 614.5 c 132,-1,48
 170 666 170 666 171 677 c 5,12,13
-557 -277 m 5,49,50
 -924 -434 -924 -434 -1072 -532 c 4,51,52
 -1226 -634 -1226 -634 -1226 -720 c 4,53,54
 -1226 -731 -1226 -731 -1212.5 -745.5 c 132,-1,55
 -1199 -760 -1199 -760 -1165 -760 c 132,-1,56
 -1131 -760 -1131 -760 -1096 -753 c 132,-1,57
 -1061 -746 -1061 -746 -1022.5 -727.5 c 132,-1,58
 -984 -709 -984 -709 -939 -675.5 c 132,-1,59
 -894 -642 -894 -642 -838 -588.5 c 132,-1,60
 -782 -535 -782 -535 -713 -458 c 6,61,-1
 -557 -277 l 5,49,50
EndSplineSet
Validated: 1
EndChar

StartChar: k
Encoding: 94 107 94
Width: 861
GlyphClass: 2
Flags: W
LayerCount: 2
Back
Fore
SplineSet
839 1595 m 1,0,1
 872 1590 872 1590 906 1590 c 0,2,3
 941 1590 941 1590 977 1595 c 1,4,-1
 154 450 l 1,5,6
 -80 110 -80 110 -139 19 c 1,7,8
 -166 24 -166 24 -184.5 24 c 128,-1,9
 -203 24 -203 24 -213 23 c 128,-1,10
 -223 22 -223 22 -233.5 20.5 c 128,-1,11
 -244 19 -244 19 -253 17 c 128,-1,12
 -262 15 -262 15 -268 14 c 1,13,-1
 839 1595 l 1,0,1
323 57 m 0,14,15
 323 26 323 26 372 26 c 128,-1,16
 421 26 421 26 477 53.5 c 128,-1,17
 533 81 533 81 587.5 122 c 128,-1,18
 642 163 642 163 691.5 211.5 c 128,-1,19
 741 260 741 260 780 302 c 0,20,21
 839 366 839 366 869 407 c 1,22,-1
 889 389 l 1,23,24
 885 385 885 385 859.5 355 c 128,-1,25
 834 325 834 325 793.5 281.5 c 128,-1,26
 753 238 753 238 700.5 188.5 c 128,-1,27
 648 139 648 139 590 96 c 0,28,29
 457 -2 457 -2 359 -2 c 0,30,31
 259 -2 259 -2 259 105 c 0,32,33
 259 194 259 194 381 313 c 0,34,35
 430 364 430 364 430 382 c 0,36,37
 430 422 430 422 371 442 c 1,38,39
 312 409 312 409 267 409 c 0,40,41
 192 409 192 409 192 440 c 0,42,43
 192 458 192 458 220.5 472 c 128,-1,44
 249 486 249 486 290.5 486 c 128,-1,45
 332 486 332 486 370 475 c 1,46,47
 402 491 402 491 420 510 c 0,48,49
 464 556 464 556 501 601 c 128,-1,50
 538 646 538 646 572 676 c 0,51,52
 649 744 649 744 727 744 c 0,53,54
 774 744 774 744 804 719 c 0,55,56
 833 695 833 695 833 661 c 0,57,58
 833 660 833 660 833 659 c 0,59,60
 833 625 833 625 811 608 c 0,61,62
 790 592 790 592 765 592 c 128,-1,63
 740 592 740 592 721.5 609 c 128,-1,64
 703 626 703 626 704 648 c 0,65,66
 707 690 707 690 745 702 c 1,67,68
 730 714 730 714 706.5 714 c 128,-1,69
 683 714 683 714 660.5 705.5 c 128,-1,70
 638 697 638 697 612 676 c 0,71,72
 559 635 559 635 480 534 c 0,73,74
 443 492 443 492 403 462 c 1,75,76
 498 418 498 418 498 332 c 0,77,78
 498 262 498 262 434 186 c 0,79,80
 407 154 407 154 376 125 c 0,81,82
 323 77 323 77 323 57 c 0,14,15
EndSplineSet
Validated: 1
EndChar

StartChar: l
Encoding: 95 108 95
Width: 572
GlyphClass: 2
Flags: W
LayerCount: 2
Back
Fore
SplineSet
493 256 m 1,0,1
 488 250 488 250 429 185 c 0,2,3
 293 35 293 35 133 0 c 0,4,5
 88 -10 88 -10 53.5 -10 c 128,-1,6
 19 -10 19 -10 -5 0.5 c 128,-1,7
 -29 11 -29 11 -45 28 c 0,8,9
 -76 62 -76 62 -76 114.5 c 128,-1,10
 -76 167 -76 167 -59 220.5 c 128,-1,11
 -42 274 -42 274 -10 336 c 0,12,13
 23 401 23 401 68 471 c 2,14,-1
 169 628 l 1,15,-1
 262 760 l 2,16,17
 306 823 306 823 380 910 c 2,18,-1
 513 1067 l 1,19,20
 843 1444 843 1444 1060 1551 c 0,21,22
 1117 1579 1117 1579 1162 1579 c 0,23,24
 1235 1579 1235 1579 1235 1524.5 c 128,-1,25
 1235 1470 1235 1470 1207.5 1405 c 128,-1,26
 1180 1340 1180 1340 1128.5 1268.5 c 128,-1,27
 1077 1197 1077 1197 1002 1122.5 c 128,-1,28
 927 1048 927 1048 832 977 c 4,29,30
 630 826 630 826 378 727 c 5,31,32
 155 454 155 454 86 342.5 c 128,-1,33
 17 231 17 231 -2 182 c 128,-1,34
 -21 133 -21 133 -21 100 c 0,35,36
 -21 15 -21 15 54 15 c 0,37,38
 167 15 167 15 354 160 c 24,39,40
 594 461 l 24,41,42
 578 416 578 416 550.5 356 c 128,-1,43
 523 296 523 296 493 256 c 1,0,1
1201 1520 m 0,44,45
 1201 1558 1201 1558 1162 1558 c 0,46,47
 1079 1558 1079 1558 888 1342 c 1,48,-1
 768 1200 l 1,49,-1
 411 767 l 1,50,51
 607 843 607 843 804 1000 c 0,52,53
 975 1138 975 1138 1090 1292 c 0,54,55
 1201 1441 1201 1441 1201 1520 c 0,44,45
EndSplineSet
Validated: 1
EndChar

StartChar: m
Encoding: 96 109 96
Width: 1435
GlyphClass: 2
Flags: W
LayerCount: 2
Back
Fore
SplineSet
35 19 m 1,0,1
 12 24 12 24 -36 24 c 128,-1,2
 -84 24 -84 24 -117 14 c 1,3,-1
 230 510 l 1,4,5
 294 599 294 599 296 612 c 0,6,7
 298 623 298 623 298 626 c 0,8,9
 294 651 294 651 276 651 c 0,10,11
 239 651 239 651 92 468 c 2,12,-1
 28 389 l 1,13,14
 25 388 25 388 21 388 c 128,-1,15
 17 388 17 388 11 394 c 0,16,17
 6 399 6 399 6 402 c 128,-1,18
 6 405 6 405 21 421 c 0,19,20
 35 436 35 436 72 484 c 0,21,22
 227 685 227 685 310 685 c 128,-1,23
 393 685 393 685 393 624 c 0,24,25
 392 574 392 574 347 510 c 2,26,-1
 137 218 l 1,27,-1
 142 207 l 1,28,29
 411 518 411 518 537 609 c 0,30,31
 637 685 637 685 708.5 685 c 128,-1,32
 780 685 780 685 810 656 c 128,-1,33
 840 627 840 627 840 599 c 0,34,35
 838 521 838 521 786 439 c 1,36,37
 997 654 997 654 1110 680 c 0,38,39
 1132 685 1132 685 1158 685 c 0,40,41
 1212 685 1212 685 1241 656 c 128,-1,42
 1270 627 1270 627 1270 592 c 0,43,44
 1269 522 1269 522 1206 421 c 0,45,46
 1141 317 1141 317 1030 198 c 0,47,48
 918 78 918 78 915 66.5 c 128,-1,49
 912 55 912 55 912 49 c 1,50,-1
 905 48 l 1,51,52
 905 24 905 24 962 24 c 128,-1,53
 1019 24 1019 24 1066.5 49.5 c 128,-1,54
 1114 75 1114 75 1163 114 c 0,55,56
 1241 178 1241 178 1343 290 c 1,57,-1
 1407 364 l 1,58,59
 1433 396 1433 396 1442 406 c 1,60,-1
 1463 389 l 1,61,62
 1453 379 1453 379 1425.5 345.5 c 128,-1,63
 1398 312 1398 312 1358 268 c 0,64,65
 1259 157 1259 157 1153.5 76 c 128,-1,66
 1048 -5 1048 -5 963.5 -5 c 128,-1,67
 879 -5 879 -5 843 41 c 0,68,69
 832 55 832 55 832 74 c 0,70,71
 832 167 832 167 1002 358 c 0,72,73
 1191 570 1191 570 1191 624 c 0,74,75
 1191 660 1191 660 1140 660 c 0,76,77
 1040 660 1040 660 794 410 c 0,78,79
 689 304 689 304 560 141 c 1,80,-1
 467 19 l 1,81,82
 444 24 444 24 398 24 c 128,-1,83
 352 24 352 24 315 14 c 1,84,85
 463 195 463 195 478 214 c 0,86,87
 703 511 703 511 731.5 559 c 128,-1,88
 760 607 760 607 760 629 c 0,89,90
 760 660 760 660 703 660 c 128,-1,91
 646 660 646 660 559 590 c 0,92,93
 376 444 376 444 128 141 c 1,94,-1
 35 19 l 1,0,1
EndSplineSet
Validated: 1
EndChar

StartChar: n
Encoding: 97 110 97
Width: 1042
GlyphClass: 2
Flags: W
LayerCount: 2
Back
Fore
SplineSet
36 19 m 1,0,1
 9 24 9 24 -24 24 c 0,2,3
 -77 24 -77 24 -117 14 c 1,4,-1
 230 510 l 2,5,6
 295 601 295 601 297 618 c 0,7,8
 301 651 301 651 276 651 c 0,9,10
 239 651 239 651 92 468 c 2,11,-1
 28 389 l 2,12,13
 20 385 20 385 11.5 393.5 c 128,-1,14
 3 402 3 402 7 406 c 0,15,16
 36 437 36 437 72 484 c 0,17,18
 106 529 106 529 149 576 c 0,19,20
 249 685 249 685 312 685 c 0,21,22
 393 685 393 685 393 624 c 0,23,24
 393 602 393 602 382 572 c 0,25,26
 372 546 372 546 347 510 c 2,27,-1
 137 218 l 1,28,-1
 142 207 l 1,29,30
 394 483 394 483 500 572 c 0,31,32
 601 656 601 656 650.5 670.5 c 128,-1,33
 700 685 700 685 731.5 685 c 128,-1,34
 763 685 763 685 785.5 676 c 128,-1,35
 808 667 808 667 822 653 c 0,36,37
 848 627 848 627 848 592 c 0,38,39
 848 591 848 591 848 590 c 0,40,41
 847 554 847 554 833.5 516 c 128,-1,42
 820 478 820 478 788 426 c 0,43,44
 721 319 721 319 562 147 c 0,45,46
 496 78 496 78 493 66.5 c 128,-1,47
 490 55 490 55 490 49 c 0,48,49
 490 26 490 26 551.5 26 c 128,-1,50
 613 26 613 26 666.5 51.5 c 128,-1,51
 720 77 720 77 771.5 116 c 128,-1,52
 823 155 823 155 869.5 201.5 c 128,-1,53
 916 248 916 248 953 290.5 c 128,-1,54
 990 333 990 333 1015 364.5 c 128,-1,55
 1040 396 1040 396 1049 406 c 1,56,-1
 1070 389 l 1,57,58
 1060 378 1060 378 1034 345 c 128,-1,59
 1008 312 1008 312 969.5 269 c 128,-1,60
 931 226 931 226 882.5 178 c 128,-1,61
 834 130 834 130 780 90 c 0,62,63
 654 -2 654 -2 552 -2 c 0,64,65
 462 -2 462 -2 427 43 c 0,66,67
 416 57 416 57 416 76 c 128,-1,68
 416 95 416 95 421.5 119.5 c 128,-1,69
 427 144 427 144 448 182 c 0,70,71
 495 263 495 263 581.5 360 c 128,-1,72
 668 457 668 457 695 491 c 128,-1,73
 722 525 722 525 738 550 c 0,74,75
 768 598 768 598 768 624 c 0,76,77
 768 660 768 660 720 660 c 0,78,79
 621 660 621 660 393 436 c 0,80,81
 278 324 278 324 129 141 c 1,82,-1
 36 19 l 1,0,1
EndSplineSet
Validated: 1
EndChar

StartChar: o
Encoding: 98 111 98
Width: 734
GlyphClass: 2
Flags: W
LayerCount: 2
Back
Fore
SplineSet
450 161 m 0,0,1
 413 161 413 161 396 191 c 1,2,3
 277 56 277 56 139 12 c 0,4,5
 93 -2 93 -2 49.5 -2 c 128,-1,6
 6 -2 6 -2 -25 8 c 0,7,8
 -55 18 -55 18 -76 36 c 0,9,10
 -121 75 -121 75 -121 145 c 0,11,12
 -121 200 -121 200 -92 277 c 0,13,14
 -66 346 -66 346 -28 402 c 0,15,16
 12 460 12 460 61.5 509.5 c 128,-1,17
 111 559 111 559 168 598 c 0,18,19
 297 685 297 685 420 685 c 0,20,21
 473 685 473 685 512 658 c 0,22,23
 549 631 549 631 553 578 c 0,24,25
 554 565 554 565 554 553 c 0,26,27
 553 512 553 512 547 482 c 0,28,29
 538 437 538 437 520 392 c 0,30,31
 484 300 484 300 418 218 c 1,32,33
 425 189 425 189 456.5 189 c 128,-1,34
 488 189 488 189 516.5 203.5 c 128,-1,35
 545 218 545 218 573.5 239.5 c 128,-1,36
 602 261 602 261 629.5 287.5 c 128,-1,37
 657 314 657 314 680 338 c 2,38,-1
 718 380 l 2,39,40
 734 399 734 399 741 406 c 1,41,-1
 763 389 l 1,42,43
 750 377 750 377 730 355 c 128,-1,44
 710 333 710 333 685 308 c 2,45,46
 685 308 685 308 632 256 c 0,47,48
 529 161 529 161 450 161 c 0,0,1
35 36 m 0,49,50
 51 28 51 28 80 28 c 0,51,52
 145 28 145 28 247 101 c 0,53,54
 325 157 325 157 386 230 c 1,55,56
 386 347 386 347 482 379 c 1,57,58
 527 475 527 475 527 538 c 0,59,60
 527 542 527 542 527 546 c 0,61,62
 527 649 527 649 451 649 c 0,63,64
 331 649 331 649 120 383 c 0,65,66
 -9 220 -9 220 -9 126 c 0,67,68
 -9 121 -9 121 -9 115 c 1,69,70
 -9 60 -9 60 35 36 c 0,49,50
EndSplineSet
Validated: 1
EndChar

StartChar: p
Encoding: 99 112 99
Width: 858
GlyphClass: 2
Flags: W
LayerCount: 2
Back
Fore
SplineSet
367 -2 m 0,0,1
 251 -2 251 -2 251 97 c 0,2,3
 251 247 251 247 580 488 c 0,4,5
 694 571 694 571 706 608 c 0,6,7
 709 619 709 619 709 629.5 c 128,-1,8
 709 640 709 640 698.5 650 c 128,-1,9
 688 660 688 660 654 660 c 0,10,11
 497 660 497 660 167 353 c 0,12,13
 13 205 13 205 -47 139 c 2,14,-1
 -153 19 l 1,15,16
 -195 -36 -195 -36 -246 -109 c 2,17,-1
 -450 -414 l 1,18,-1
 -602 -654 l 2,19,20
 -628 -694 -628 -694 -632 -701 c 1,21,22
 -661 -709 -661 -709 -696.5 -709 c 128,-1,23
 -732 -709 -732 -709 -741.5 -708.5 c 128,-1,24
 -751 -708 -751 -708 -762 -707 c 0,25,26
 -781 -705 -781 -705 -799 -700 c 1,27,-1
 -288 -6 l 1,28,-1
 36 450 l 1,29,-1
 430 977 l 1,30,31
 484 971 484 971 511 971 c 0,32,33
 561 971 561 971 581 978 c 1,34,-1
 259 584 l 1,35,-1
 21 266 l 1,36,-1
 28 258 l 1,37,38
 339 557 339 557 487 634 c 0,39,40
 563 674 563 674 600.5 679.5 c 128,-1,41
 638 685 638 685 668 685 c 0,42,43
 763 685 763 685 763 602 c 0,44,45
 763 438 763 438 462 227 c 0,46,47
 327 130 327 130 308 94 c 0,48,49
 302 82 302 82 302 71 c 0,50,51
 302 26 302 26 373 26 c 0,52,53
 545 26 545 26 812 344 c 2,54,-1
 865 406 l 1,55,-1
 887 389 l 1,56,-1
 835 329 l 1,57,58
 556 -2 556 -2 367 -2 c 0,0,1
EndSplineSet
Validated: 1
EndChar

StartChar: q
Encoding: 100 113 100
Width: 876
GlyphClass: 2
Flags: W
LayerCount: 2
Back
Fore
SplineSet
-277 -787 m 0,0,1
 -344 -787 -344 -787 -344 -715 c 0,2,3
 -344 -540 -344 -540 -18 -146 c 0,4,5
 89 -18 89 -18 229 126 c 1,6,7
 143 58 143 58 71.5 28 c 128,-1,8
 0 -2 0 -2 -41 -2 c 0,9,10
 -163 -2 -163 -2 -163 127 c 0,11,12
 -163 275 -163 275 -41 414 c 0,13,14
 138 621 138 621 322 658 c 0,15,16
 377 670 377 670 431 670 c 0,17,18
 554 670 554 670 554 571 c 0,19,20
 554 535 554 535 543 502 c 1,21,22
 583 551 583 551 608 585 c 2,23,-1
 658 650 l 1,24,25
 674 643 674 643 702 643 c 0,26,27
 764 643 764 643 790 645 c 1,28,29
 525 316 525 316 469 251 c 2,30,-1
 350 115 l 1,31,32
 357 97 357 97 359 69 c 0,33,34
 364 49 364 49 385.5 36.5 c 128,-1,35
 407 24 407 24 440.5 24 c 128,-1,36
 474 24 474 24 520 49.5 c 128,-1,37
 566 75 566 75 613.5 114.5 c 128,-1,38
 661 154 661 154 706 201 c 128,-1,39
 751 248 751 248 788 290 c 2,40,-1
 882 406 l 1,41,-1
 904 389 l 1,42,-1
 870 345 l 2,43,44
 683 104 683 104 532 24 c 0,45,46
 482 -2 482 -2 432 -2 c 128,-1,47
 382 -2 382 -2 351 31 c 1,48,49
 281 -286 281 -286 80 -540 c 0,50,51
 -42 -695 -42 -695 -164 -756 c 0,52,53
 -225 -787 -225 -787 -277 -787 c 0,0,1
59 347 m 0,54,55
 -81 176 -81 176 -81 77 c 0,56,57
 -81 28 -81 28 -36 28 c 0,58,59
 88 28 88 28 272 196 c 0,60,61
 339 256 339 256 385 311 c 0,62,63
 466 407 466 407 482 429 c 0,64,65
 529 493 529 493 529 580 c 0,66,67
 529 623 529 623 482 637 c 0,68,69
 468 641 468 641 449.5 641 c 128,-1,70
 431 641 431 641 390.5 623.5 c 128,-1,71
 350 606 350 606 298 570 c 0,72,73
 177 488 177 488 59 347 c 0,54,55
-312 -732 m 0,74,75
 -312 -765 -312 -765 -276.5 -765 c 128,-1,76
 -241 -765 -241 -765 -187.5 -731.5 c 128,-1,77
 -134 -698 -134 -698 -74 -640 c 128,-1,78
 -14 -582 -14 -582 48.5 -503 c 128,-1,79
 111 -424 111 -424 166 -332 c 0,80,81
 289 -130 289 -130 329 57 c 0,82,83
 333 79 333 79 329 91 c 1,84,-1
 58 -226 l 1,85,86
 -219 -565 -219 -565 -265.5 -639.5 c 128,-1,87
 -312 -714 -312 -714 -312 -732 c 0,74,75
EndSplineSet
Validated: 1
EndChar

StartChar: r
Encoding: 101 114 101
Width: 684
GlyphClass: 2
Flags: W
LayerCount: 2
Back
Fore
SplineSet
212.5 32 m 128,-1,1
 252 32 252 32 299.5 56 c 128,-1,2
 347 80 347 80 396.5 117 c 128,-1,3
 446 154 446 154 494 199 c 2,4,-1
 581 286 l 2,5,6
 621 327 621 327 650 360 c 2,7,-1
 691 406 l 1,8,-1
 711 389 l 1,9,10
 692 372 692 372 660 336 c 2,11,-1
 588 256 l 1,12,13
 344 -2 344 -2 168 -2 c 0,14,15
 111 -2 111 -2 76.5 26 c 128,-1,16
 42 54 42 54 42 101 c 0,17,18
 42 250 42 250 476 541 c 1,19,20
 264 576 264 576 183 612 c 1,21,22
 117 476 117 476 -20 335 c 0,23,24
 -52 302 -52 302 -59.5 299 c 128,-1,25
 -67 296 -67 296 -69 294.5 c 128,-1,26
 -71 293 -71 293 -72 300 c 128,-1,27
 -73 307 -73 307 -72 310.5 c 128,-1,28
 -71 314 -71 314 -68 318 c 0,29,30
 -21 371 -21 371 19 420 c 0,31,32
 112 536 112 536 156 626 c 1,33,34
 120 649 120 649 115 675 c 128,-1,35
 110 701 110 701 115.5 723.5 c 128,-1,36
 121 746 121 746 133 764 c 0,37,38
 159 803 159 803 193 803 c 0,39,40
 256 803 256 803 256 757 c 0,41,42
 256 734 256 734 247 718 c 2,43,-1
 229 687 l 1,44,45
 211 664 211 664 211 634 c 0,46,47
 211 616 211 616 287.5 600 c 128,-1,48
 364 584 364 584 396 578 c 0,49,50
 466 565 466 565 507 563 c 0,51,52
 535 562 535 562 535 548 c 0,53,54
 535 539 535 539 502.5 513 c 128,-1,55
 470 487 470 487 431 450 c 128,-1,56
 392 413 392 413 355 372.5 c 128,-1,57
 318 332 318 332 285 290 c 128,-1,58
 252 248 252 248 227 209 c 0,59,60
 173 125 173 125 173 78.5 c 128,-1,0
 173 32 173 32 212.5 32 c 128,-1,1
EndSplineSet
Validated: 1
EndChar

StartChar: s
Encoding: 102 115 102
Width: 596
GlyphClass: 2
Flags: W
LayerCount: 2
Back
Fore
SplineSet
287 642 m 2,0,-1
 287 626 l 2,1,2
 287 623 287 623 287 612 c 128,-1,3
 287 601 287 601 292 570 c 0,4,5
 326 358 326 358 326 285 c 0,6,7
 326 248 326 248 308 184 c 1,8,9
 320 182 320 182 338.5 182 c 128,-1,10
 357 182 357 182 383 196 c 128,-1,11
 409 210 409 210 436.5 232 c 128,-1,12
 464 254 464 254 491 280 c 0,13,14
 538 327 538 327 580 376 c 1,15,-1
 603 406 l 1,16,-1
 625 389 l 1,17,18
 613 377 613 377 594 356 c 2,19,-1
 552 308 l 1,20,21
 413 158 413 158 332 158 c 2,22,-1
 315 158 l 2,23,24
 307 158 307 158 299 160 c 1,25,26
 215 -23 215 -23 -58 -23 c 0,27,28
 -179 -23 -179 -23 -231 34 c 0,29,30
 -254 59 -254 59 -254 98 c 0,31,32
 -254 165 -254 165 -197.5 206 c 128,-1,33
 -141 247 -141 247 -100.5 247 c 128,-1,34
 -60 247 -60 247 -60 209 c 0,35,36
 -63 183 -63 183 -104 170 c 0,37,38
 -117 166 -117 166 -129.5 166 c 128,-1,39
 -142 166 -142 166 -153.5 174.5 c 128,-1,40
 -165 183 -165 183 -172 187 c 1,41,42
 -178 181 -178 181 -187.5 173 c 128,-1,43
 -197 165 -197 165 -212.5 146 c 128,-1,44
 -228 127 -228 127 -228 98 c 0,45,46
 -228 49 -228 49 -164 27 c 0,47,48
 -123 13 -123 13 -82 13 c 0,49,50
 13 13 13 13 95 91 c 0,51,52
 216 206 216 206 226 432 c 0,53,54
 232 584 232 584 263 670 c 0,55,56
 264 673 264 673 264 679 c 1,57,-1
 28 389 l 2,58,59
 8 365 8 365 -2 358 c 2,60,-1
 -11 351 l 2,61,62
 -14 351 -14 351 -14 351 c 0,63,64
 -27 350 -27 350 -27 358 c 0,65,66
 -28 364 -28 364 -18 376 c 0,67,68
 254 703 254 703 272 726 c 1,69,70
 288 804 288 804 324 804 c 0,71,72
 341 804 341 804 352.5 795 c 128,-1,73
 364 786 364 786 363.5 769.5 c 128,-1,74
 363 753 363 753 333.5 718.5 c 128,-1,75
 304 684 304 684 298 674 c 0,76,77
 287 659 287 659 287 642 c 2,0,-1
EndSplineSet
Validated: 1
EndChar

StartChar: t
Encoding: 103 116 103
Width: 433
GlyphClass: 2
Flags: W
LayerCount: 2
Back
Fore
SplineSet
-100 58 m 0,0,1
 -100 27 -100 27 -52 27 c 0,2,3
 -38 27 -38 27 -20 27 c 128,-1,4
 -2 27 -2 27 46 48 c 0,5,6
 202 119 202 119 388 344 c 1,7,-1
 440 406 l 1,8,-1
 462 389 l 1,9,-1
 410 329 l 1,10,11
 131 -2 131 -2 -59 -2 c 0,12,13
 -114 -2 -114 -2 -141.5 20 c 128,-1,14
 -169 42 -169 42 -169 68 c 0,15,16
 -169 116 -169 116 -154.5 153 c 128,-1,17
 -140 190 -140 190 -91 265 c 1,18,-1
 65 490 l 1,19,-1
 323 853 l 1,20,-1
 244 853 l 2,21,22
 214 853 214 853 214 867.5 c 128,-1,23
 214 882 214 882 252 882 c 2,24,-1
 343 882 l 1,25,-1
 528 1142 l 1,26,27
 563 1136 563 1136 597.5 1136 c 128,-1,28
 632 1136 632 1136 667 1142 c 1,29,-1
 474 882 l 1,30,-1
 732 882 l 2,31,32
 760 882 760 882 760 867.5 c 128,-1,33
 760 853 760 853 735 853 c 2,34,-1
 452 853 l 1,35,-1
 38 290 l 1,36,37
 -69 139 -69 139 -84.5 104 c 128,-1,38
 -100 69 -100 69 -100 58 c 0,0,1
EndSplineSet
Validated: 1
EndChar

StartChar: u
Encoding: 104 117 104
Width: 887
GlyphClass: 2
Flags: W
HStem: 2 25<-67.8657 24.8035 363.764 462.468> 663 20G<216.24 260 367.877 373.5 411.5 708 819.382 823>
VStem: -164 83<28.6084 173.702> 298 51<34.2329 123.129>
LayerCount: 2
Back
Fore
SplineSet
407 2 m 0,0,1
 298 2 298 2 298 105 c 0,2,3
 298 161 298 161 349 250 c 1,4,5
 119 2 119 2 -41 2 c 0,6,7
 -164 2 -164 2 -164 118 c 0,8,9
 -164 209 -164 209 -36 362 c 2,10,-1
 233 683 l 1,11,12
 287 674 287 674 328 674 c 0,13,14
 362 675 362 675 385 680 c 1,15,-1
 22 256 l 2,16,17
 -81 136 -81 136 -81 68 c 0,18,19
 -81 27 -81 27 -24 27 c 0,20,21
 139 27 139 27 684 683 c 1,22,23
 732 677 732 677 771 677 c 128,-1,24
 810 677 810 677 836 680 c 1,25,-1
 384 136 l 2,26,27
 349 93 349 93 349 66 c 0,28,29
 349 30 349 30 405 30 c 0,30,31
 551 30 551 30 789 294 c 2,32,-1
 894 410 l 1,33,-1
 914 393 l 1,34,-1
 711 182 l 2,35,36
 538 2 538 2 407 2 c 0,0,1
EndSplineSet
Validated: 3073
EndChar

StartChar: v
Encoding: 105 118 105
Width: 796
GlyphClass: 2
Flags: W
LayerCount: 2
Back
Fore
SplineSet
502 168 m 0,0,1
 436 168 436 168 436 221 c 0,2,3
 436 243 436 243 450 274 c 1,4,5
 233 92 233 92 46 24 c 0,6,7
 -23 -2 -23 -2 -80 -2 c 128,-1,8
 -137 -2 -137 -2 -165 20.5 c 128,-1,9
 -193 43 -193 43 -193 89.5 c 128,-1,10
 -193 136 -193 136 -156.5 201 c 128,-1,11
 -120 266 -120 266 -37.5 369 c 128,-1,12
 45 472 45 472 109 538 c 1,13,-1
 249 679 l 1,14,15
 297 673 297 673 338 673 c 128,-1,16
 379 673 379 673 406 676 c 1,17,18
 317 596 317 596 273 546 c 2,19,-1
 139 398 l 2,20,21
 123 380 123 380 97 354 c 1,22,-1
 -16 234 l 1,23,24
 -123 117 -123 117 -123 77 c 128,-1,25
 -123 37 -123 37 -108 30.5 c 128,-1,26
 -93 24 -93 24 -52 24 c 0,27,28
 34 24 34 24 165.5 101 c 128,-1,29
 297 178 297 178 390.5 260.5 c 128,-1,30
 484 343 484 343 517 385 c 128,-1,31
 550 427 550 427 572.5 478.5 c 128,-1,32
 595 530 595 530 595 625 c 0,33,34
 595 662 595 662 618 685.5 c 128,-1,35
 641 709 641 709 674 709 c 0,36,37
 730 709 730 709 730 654 c 0,38,39
 730 540 730 540 531 347 c 1,40,-1
 504 322 l 1,41,42
 462 265 462 265 462 229 c 128,-1,43
 462 193 462 193 516 193 c 128,-1,44
 570 193 570 193 672 278 c 0,45,46
 713 312 713 312 748 348 c 2,47,-1
 803 406 l 1,48,-1
 824 389 l 1,49,50
 619 168 619 168 502 168 c 0,0,1
EndSplineSet
Validated: 1
EndChar

StartChar: w
Encoding: 106 119 106
Width: 1162
GlyphClass: 2
Flags: W
LayerCount: 2
Back
Fore
SplineSet
48 288 m 2,0,1
 -132 97 -132 97 -132 48 c 0,2,3
 -132 26 -132 26 -110 26 c 0,4,5
 -16 26 -16 26 160 155 c 1,6,7
 330 287 330 287 438 401 c 2,8,9
 700 679 l 1,10,11
 748 673 748 673 790 673 c 128,-1,12
 832 673 832 673 853 676 c 1,13,-1
 497 296 l 1,14,-1
 392 178 l 1,15,16
 311 81 311 81 311 49 c 0,17,18
 311 26 311 26 340 26 c 0,19,20
 408 26 408 26 552 110 c 0,21,22
 752 227 752 227 904 410 c 0,23,24
 968 486 968 486 978 534.5 c 128,-1,25
 988 583 988 583 988 622.5 c 128,-1,26
 988 662 988 662 1007 690.5 c 128,-1,27
 1026 719 1026 719 1058 719 c 0,28,29
 1124 719 1124 719 1124 654 c 0,30,31
 1124 546 1124 546 925 347 c 0,32,33
 908 330 908 330 887 311 c 2,34,-1
 843 273 l 1,35,36
 833 248 833 248 833 231 c 0,37,38
 834 193 834 193 883 193 c 0,39,40
 984 193 984 193 1168 406 c 1,41,-1
 1190 389 l 1,42,-1
 1127 324 l 2,43,44
 975 168 975 168 874 168 c 0,45,46
 834 168 834 168 817 188.5 c 128,-1,47
 800 209 800 209 808 244 c 1,48,49
 604 85 604 85 426 20 c 0,50,51
 367 -2 367 -2 325 -2 c 0,52,53
 262 -2 262 -2 262 69.5 c 128,-1,54
 262 141 262 141 330 253 c 1,55,-1
 266 198 l 1,56,57
 25 -2 25 -2 -112 -2 c 0,58,59
 -177 -2 -177 -2 -177 62 c 0,60,61
 -177 208 -177 208 76 492 c 0,62,63
 157 583 157 583 261 679 c 1,64,65
 314 671 314 671 351 671 c 128,-1,66
 388 671 388 671 414 676 c 1,67,-1
 48 288 l 2,0,1
EndSplineSet
Validated: 1
EndChar

StartChar: x
Encoding: 107 120 107
Width: 905
GlyphClass: 2
Flags: W
LayerCount: 2
Back
Fore
SplineSet
-108 -2 m 0,0,1
 -193 -2 -193 -2 -193 51 c 0,2,3
 -193 68 -193 68 -175 83 c 128,-1,4
 -157 98 -157 98 -138 98 c 0,5,6
 -112 98 -112 98 -95 86 c 0,7,8
 -68 66 -68 66 -35.5 66 c 128,-1,9
 -3 66 -3 66 49 92.5 c 128,-1,10
 101 119 101 119 154 168 c 0,11,12
 261 267 261 267 350 435 c 1,13,14
 417 532 417 532 417 593 c 128,-1,15
 417 654 417 654 370 654 c 0,16,17
 312 654 312 654 262 618 c 0,18,19
 173 552 173 552 28 389 c 1,20,21
 20 387 20 387 12.5 394 c 128,-1,22
 5 401 5 401 7 406 c 0,23,24
 167 584 167 584 226 625 c 128,-1,25
 285 666 285 666 317 675.5 c 128,-1,26
 349 685 349 685 393.5 685 c 128,-1,27
 438 685 438 685 471 649 c 128,-1,28
 504 613 504 613 504 563 c 128,-1,29
 504 513 504 513 486 452 c 1,30,31
 600 607 600 607 739 666 c 0,32,33
 785 685 785 685 820 685 c 128,-1,34
 855 685 855 685 873 678 c 128,-1,35
 891 671 891 671 902 660 c 0,36,37
 922 641 922 641 922 611.5 c 128,-1,38
 922 582 922 582 903 567.5 c 128,-1,39
 884 553 884 553 857.5 553 c 128,-1,40
 831 553 831 553 812.5 575 c 128,-1,41
 794 597 794 597 792 635 c 1,42,43
 787 636 787 636 782 636 c 2,44,-1
 775 636 l 2,45,46
 712 636 712 636 612 546 c 0,47,48
 513 456 513 456 433 318 c 1,49,-1
 399 254 l 1,50,51
 349 145 349 145 349 82 c 0,52,53
 349 26 349 26 407.5 26 c 128,-1,54
 466 26 466 26 521.5 53.5 c 128,-1,55
 577 81 577 81 631.5 122 c 128,-1,56
 686 163 686 163 735.5 211.5 c 128,-1,57
 785 260 785 260 824 302 c 0,58,59
 883 366 883 366 913 407 c 1,60,-1
 934 389 l 1,61,62
 930 385 930 385 904.5 355 c 128,-1,63
 879 325 879 325 838 281.5 c 128,-1,64
 797 238 797 238 744.5 188.5 c 128,-1,65
 692 139 692 139 634 96 c 0,66,67
 500 -2 500 -2 402 -2 c 256,68,69
 304 -2 304 -2 270 79 c 0,70,71
 258 108 258 108 258 149.5 c 128,-1,72
 258 191 258 191 282 268 c 1,73,74
 143 76 143 76 -28 14 c 0,75,76
 -74 -2 -74 -2 -108 -2 c 0,0,1
EndSplineSet
Validated: 1
EndChar

StartChar: y
Encoding: 108 121 108
Width: 909
GlyphClass: 2
Flags: W
LayerCount: 2
Back
Fore
SplineSet
-91 70 m 0,0,1
 -91 24 -91 24 -32 24 c 128,-1,2
 27 24 27 24 98.5 54.5 c 128,-1,3
 170 85 170 85 239 134 c 0,4,5
 372 227 372 227 484 366 c 1,6,7
 660 567 660 567 695 609 c 2,8,9
 695 609 695 609 749 676 c 1,10,11
 788 669 788 669 806 669 c 0,12,13
 857 669 857 669 883 673 c 1,14,-1
 535 244 l 1,15,-1
 358 7 l 1,16,-1
 206 -191 l 1,17,18
 464 -67 464 -67 602 56 c 0,19,20
 692 136 692 136 771 232 c 2,21,-1
 915 406 l 1,22,-1
 936 389 l 1,23,-1
 810 240 l 2,24,25
 698 108 698 108 623 43 c 128,-1,26
 548 -22 548 -22 486 -64 c 0,27,28
 368 -142 368 -142 171 -235 c 1,29,30
 -15 -468 -15 -468 -109.5 -559 c 128,-1,31
 -204 -650 -204 -650 -259 -688.5 c 128,-1,32
 -314 -727 -314 -727 -366 -749 c 0,33,34
 -454 -787 -454 -787 -575 -787 c 0,35,36
 -636 -787 -636 -787 -656 -744 c 0,37,38
 -662 -732 -662 -732 -662 -706 c 128,-1,39
 -662 -680 -662 -680 -628.5 -633.5 c 128,-1,40
 -595 -587 -595 -587 -514 -530 c 0,41,42
 -352 -416 -352 -416 46 -248 c 1,43,-1
 453 268 l 1,44,-1
 442 272 l 1,45,46
 347 170 347 170 248 110 c 0,47,48
 63 -2 63 -2 -48 -2 c 0,49,50
 -104 -2 -104 -2 -132 20.5 c 128,-1,51
 -160 43 -160 43 -160 75.5 c 128,-1,52
 -160 108 -160 108 -154 134.5 c 128,-1,53
 -148 161 -148 161 -130 198 c 0,54,55
 -93 269 -93 269 11 415 c 1,56,57
 57 472 57 472 122 538 c 2,58,-1
 261 679 l 1,59,-1
 308 674 l 2,60,61
 324 673 324 673 357.5 673 c 128,-1,62
 391 673 391 673 418 676 c 1,63,64
 329 596 329 596 285 546 c 2,65,-1
 214 466 l 2,66,67
 -7 221 -7 221 -35 180 c 0,68,69
 -91 100 -91 100 -91 70 c 0,0,1
11 -291 m 1,70,71
 -492 -506 -492 -506 -594 -633 c 0,72,73
 -630 -678 -630 -678 -630 -720 c 0,74,75
 -630 -731 -630 -731 -616.5 -745.5 c 128,-1,76
 -603 -760 -603 -760 -559 -760 c 128,-1,77
 -515 -760 -515 -760 -461.5 -740.5 c 128,-1,78
 -408 -721 -408 -721 -342 -670 c 0,79,80
 -221 -574 -221 -574 11 -291 c 1,70,71
EndSplineSet
Validated: 1
EndChar

StartChar: z
Encoding: 109 122 109
Width: 868
GlyphClass: 2
Flags: W
LayerCount: 2
Back
Fore
SplineSet
160 158 m 1,0,1
 125 187 125 187 59 187 c 0,2,3
 -61 187 -61 187 -61 86 c 0,4,5
 -61 28 -61 28 9.5 28 c 128,-1,6
 80 28 80 28 160 158 c 1,0,1
403 61 m 0,7,8
 581 61 581 61 835 373 c 2,9,-1
 947 510 l 1,10,-1
 968 493 l 1,11,-1
 859 360 l 2,12,13
 759 238 759 238 618.5 119 c 128,-1,14
 478 0 478 0 385.5 0 c 152,-1,15
 293 0 293 0 214 106 c 1,16,17
 127 -4 127 -4 -15 -4 c 0,18,19
 -120 -4 -120 -4 -120 92 c 0,20,21
 -120 233 -120 233 54 233 c 0,22,23
 155 233 155 233 190 204 c 1,24,25
 260 321 260 321 319 477 c 1,26,27
 210 497 210 497 156 571 c 1,28,29
 62 398 62 398 -38 316 c 0,30,31
 -56 301 -56 301 -62.5 301 c 128,-1,32
 -69 301 -69 301 -69 306 c 1,33,-1
 13 406 l 2,34,35
 86 495 86 495 104 530 c 2,36,-1
 139 597 l 1,37,38
 117 641 117 641 117 689 c 128,-1,39
 117 737 117 737 145.5 770 c 128,-1,40
 174 803 174 803 204 803 c 0,41,42
 266 803 266 803 266 764 c 0,43,44
 266 733 266 733 229.5 699.5 c 128,-1,45
 193 666 193 666 193 628.5 c 128,-1,46
 193 591 193 591 232 550.5 c 128,-1,47
 271 510 271 510 333 495 c 1,48,49
 420 605 420 605 506.5 656.5 c 128,-1,50
 593 708 593 708 652 708 c 0,51,52
 756 708 756 708 756 650 c 0,53,54
 756 599 756 599 665 541.5 c 128,-1,55
 574 484 574 484 456 473 c 1,56,57
 379 299 379 299 250 150 c 1,58,59
 339 61 339 61 403 61 c 0,7,8
722 651 m 0,60,61
 722 687 722 687 652 687 c 0,62,63
 613 687 613 687 559 639 c 128,-1,64
 505 591 505 591 464 493 c 1,65,66
 567 507 567 507 644.5 556.5 c 128,-1,67
 722 606 722 606 722 651 c 0,60,61
EndSplineSet
Validated: 1
EndChar

StartChar: braceleft
Encoding: 110 123 110
Width: 1412
GlyphClass: 2
Flags: W
LayerCount: 2
Back
Fore
SplineSet
673 656 m 1,0,1
 712 621 712 621 712 574 c 0,2,3
 712 504 712 504 641 360 c 2,4,-1
 587 245 l 2,5,6
 513 82 513 82 513 -28 c 0,7,8
 513 -125 513 -125 563 -168 c 0,9,10
 572 -174 572 -174 572 -185 c 128,-1,11
 572 -196 572 -196 563 -196 c 0,12,13
 543 -196 543 -196 530 -177 c 0,14,15
 471 -107 471 -107 453 -63 c 0,16,17
 423 11 423 11 423 65.5 c 128,-1,18
 423 120 423 120 431.5 156 c 128,-1,19
 440 192 440 192 453.5 228 c 128,-1,20
 467 264 467 264 485 301 c 2,21,-1
 567 476 l 2,22,23
 608 568 608 568 608 598 c 0,24,25
 608 649 608 649 571 667 c 0,26,27
 557 672 557 672 557 682 c 256,28,29
 557 692 557 692 583.5 692 c 128,-1,30
 610 692 610 692 631 697 c 128,-1,31
 652 702 652 702 672 716 c 0,32,33
 706 739 706 739 772 837 c 2,34,-1
 896 1015 l 2,35,36
 1009 1171 1009 1171 1070.5 1230.5 c 128,-1,37
 1132 1290 1132 1290 1172 1319.5 c 128,-1,38
 1212 1349 1212 1349 1248 1366.5 c 128,-1,39
 1284 1384 1284 1384 1322 1396 c 0,40,41
 1398 1419 1398 1419 1468 1419 c 0,42,43
 1488 1419 1488 1419 1488 1410 c 128,-1,44
 1488 1401 1488 1401 1481 1399.5 c 128,-1,45
 1474 1398 1474 1398 1444.5 1395 c 128,-1,46
 1415 1392 1415 1392 1384.5 1385.5 c 128,-1,47
 1354 1379 1354 1379 1330 1368 c 0,48,49
 1246 1331 1246 1331 1184 1243 c 0,50,51
 1169 1221 1169 1221 1151 1192 c 2,52,-1
 1026 992 l 2,53,54
 977 917 977 917 904 823 c 0,55,56
 859 768 859 768 797 722 c 128,-1,57
 735 676 735 676 673 656 c 1,0,1
EndSplineSet
Validated: 1
EndChar

StartChar: bar
Encoding: 111 124 111
Width: 909
GlyphClass: 2
Flags: W
LayerCount: 2
Back
Fore
SplineSet
1263 1583 m 1,0,1
 1267 1579 1267 1579 1282 1579 c 0,2,3
 1308 1579 1308 1579 1327 1582 c 1,4,-1
 2 -423 l 1,5,6
 -6 -421 -6 -421 -18 -421 c 2,7,-1
 -38 -421 l 2,8,9
 -45 -421 -45 -421 -60 -423 c 1,10,-1
 1263 1583 l 1,0,1
EndSplineSet
Validated: 1
EndChar

StartChar: braceright
Encoding: 112 125 112
Width: 1412
GlyphClass: 2
Flags: W
LayerCount: 2
Back
Fore
SplineSet
653.5 -191 m 128,-1,1
 616 -197 616 -197 589 -197 c 128,-1,2
 562 -197 562 -197 562 -188 c 128,-1,3
 562 -179 562 -179 569 -177.5 c 128,-1,4
 576 -176 576 -176 605.5 -173 c 128,-1,5
 635 -170 635 -170 665.5 -163.5 c 128,-1,6
 696 -157 696 -157 720 -146 c 0,7,8
 804 -109 804 -109 866 -21 c 0,9,10
 881 1 881 1 899 30 c 2,11,12
 899 30 899 30 1024 230 c 1,13,14
 1152 427 1152 427 1252 500 c 0,15,16
 1315 546 1315 546 1377 566 c 1,17,18
 1338 599 1338 599 1338 646.5 c 128,-1,19
 1338 694 1338 694 1356 742.5 c 128,-1,20
 1374 791 1374 791 1406 858 c 2,21,-1
 1463 977 l 2,22,23
 1537 1140 1537 1140 1537 1250 c 0,24,25
 1537 1347 1537 1347 1487 1390 c 0,26,27
 1478 1396 1478 1396 1478 1407 c 128,-1,28
 1478 1418 1478 1418 1487 1418 c 0,29,30
 1507 1418 1507 1418 1528 1391 c 128,-1,31
 1549 1364 1549 1364 1569.5 1333.5 c 128,-1,32
 1590 1303 1590 1303 1602 1272 c 0,33,34
 1627 1211 1627 1211 1627 1156.5 c 128,-1,35
 1627 1102 1627 1102 1618.5 1066 c 128,-1,36
 1610 1030 1610 1030 1596.5 994 c 128,-1,37
 1583 958 1583 958 1565 921 c 2,38,-1
 1483 746 l 2,39,40
 1442 655 1442 655 1442 624 c 0,41,42
 1442 573 1442 573 1479 555 c 0,43,44
 1493 550 1493 550 1493 540 c 256,45,46
 1493 530 1493 530 1466.5 530 c 128,-1,47
 1440 530 1440 530 1419 525 c 128,-1,48
 1398 520 1398 520 1378 506 c 0,49,50
 1347 484 1347 484 1279 386 c 2,51,-1
 1154 207 l 2,52,53
 1041 51 1041 51 979.5 -8.5 c 128,-1,54
 918 -68 918 -68 878 -98 c 128,-1,55
 838 -128 838 -128 802 -145 c 128,-1,56
 766 -162 766 -162 728.5 -173.5 c 128,-1,0
 691 -185 691 -185 653.5 -191 c 128,-1,1
EndSplineSet
Validated: 1
EndChar

StartChar: asciitilde
Encoding: 113 126 113
Width: 1387
GlyphClass: 2
Flags: W
LayerCount: 2
Back
Fore
SplineSet
807 331 m 0,0,1
 917 331 917 331 982 475 c 1,2,-1
 1027 461 l 1,3,4
 982 339 982 339 876 296 c 0,5,6
 843 283 843 283 814 283 c 128,-1,7
 785 283 785 283 763 286 c 128,-1,8
 741 289 741 289 716 297 c 0,9,10
 668 313 668 313 613 346 c 2,11,-1
 534 394 l 2,12,13
 461 438 461 438 422 438 c 128,-1,14
 383 438 383 438 358 427.5 c 128,-1,15
 333 417 333 417 312 399 c 0,16,17
 268 363 268 363 243 300 c 1,18,-1
 198 319 l 1,19,20
 244 434 244 434 342 474 c 0,21,22
 375 488 375 488 404 488 c 128,-1,23
 433 488 433 488 454 483.5 c 128,-1,24
 475 479 475 479 498.5 468.5 c 128,-1,25
 522 458 522 458 552 441 c 2,26,-1
 621 400 l 2,27,28
 713 344 713 344 749.5 337.5 c 128,-1,29
 786 331 786 331 807 331 c 0,0,1
EndSplineSet
Validated: 1
EndChar

StartChar: exclamdown
Encoding: 115 161 115
Width: 807
GlyphClass: 2
Flags: W
LayerCount: 2
Back
Fore
SplineSet
886 983 m 128,-1,1
 868 975 868 975 843 975 c 128,-1,2
 818 975 818 975 802 992 c 128,-1,3
 786 1009 786 1009 786 1032.5 c 128,-1,4
 786 1056 786 1056 794.5 1073 c 128,-1,5
 803 1090 803 1090 818 1102 c 0,6,7
 851 1131 851 1131 882.5 1131 c 128,-1,8
 914 1131 914 1131 931 1113 c 128,-1,9
 948 1095 948 1095 948 1072.5 c 128,-1,10
 948 1050 948 1050 940 1033.5 c 128,-1,11
 932 1017 932 1017 918 1004 c 128,-1,0
 904 991 904 991 886 983 c 128,-1,1
182 -150 m 1,12,13
 147 -144 147 -144 117 -144 c 0,14,15
 105 -144 105 -144 105 -144 c 0,16,17
 90 -146 90 -146 62 -146 c 0,18,19
 53 -146 53 -146 44 -146 c 0,20,21
 38 -146 38 -146 8 -150 c 1,22,23
 95 -53 95 -53 166 34 c 0,24,25
 332 248 332 248 395 338 c 2,26,-1
 722 798 l 2,27,28
 733 814 733 814 743.5 814 c 128,-1,29
 754 814 754 814 754 806 c 0,30,31
 754 790 754 790 730 746 c 2,32,-1
 568 466 l 1,33,-1
 284 3 l 2,34,35
 246 -57 246 -57 223 -90 c 2,36,-1
 182 -150 l 1,12,13
EndSplineSet
Validated: 1
EndChar

StartChar: cent
Encoding: 116 162 116
Width: 943
GlyphClass: 2
Flags: W
LayerCount: 2
Back
Fore
SplineSet
187 22 m 1,0,1
 171 24 171 24 164 24 c 0,2,3
 155 24 155 24 149 22 c 2,4,-1
 397 365 l 1,5,6
 311 405 311 405 311 498 c 0,7,8
 311 631 311 631 423 767 c 0,9,10
 621 999 621 999 811 1007 c 0,11,12
 836 1007 836 1007 856 1000 c 1,13,-1
 1129 1379 l 1,14,15
 1136 1376 1136 1376 1146 1376 c 0,16,17
 1159 1376 1159 1376 1167 1378 c 1,18,-1
 885 988 l 1,19,20
 934 958 934 958 944 901 c 1,21,22
 944 820 944 820 900 802 c 0,23,24
 888 797 888 797 874.5 797 c 128,-1,25
 861 797 861 797 848.5 810 c 128,-1,26
 836 823 836 823 836 841.5 c 128,-1,27
 836 860 836 860 849.5 876.5 c 128,-1,28
 863 893 863 893 879 893 c 128,-1,29
 895 893 895 893 905 891 c 1,30,31
 910 908 910 908 910 922 c 0,32,33
 910 952 910 952 871 969 c 1,34,-1
 451 387 l 1,35,36
 470 376 470 376 494 376 c 0,37,38
 583 376 583 376 677 466 c 0,39,40
 710 497 710 497 729 525 c 128,-1,41
 748 553 748 553 751.5 556.5 c 128,-1,42
 755 560 755 560 760 560 c 0,43,44
 771 560 771 560 771 552 c 0,45,46
 771 542 771 542 747 506 c 128,-1,47
 723 470 723 470 688 439 c 128,-1,48
 653 408 653 408 617 388 c 0,49,50
 545 348 545 348 498 348 c 128,-1,51
 451 348 451 348 427 355 c 1,52,-1
 187 22 l 1,0,1
840 978 m 1,53,54
 830 980 830 980 811.5 980 c 128,-1,55
 793 980 793 980 751.5 952 c 128,-1,56
 710 924 710 924 664.5 879 c 128,-1,57
 619 834 619 834 574 777.5 c 128,-1,58
 529 721 529 721 493 664 c 0,59,60
 412 536 412 536 412 470 c 0,61,62
 412 432 412 432 428 409 c 1,63,-1
 840 978 l 1,53,54
EndSplineSet
Validated: 1
EndChar

StartChar: sterling
Encoding: 117 163 117
Width: 1720
GlyphClass: 2
Flags: W
LayerCount: 2
Back
Fore
SplineSet
514 85 m 1,0,1
 350 -2 350 -2 163 -2 c 0,2,3
 79 -2 79 -2 42 20 c 0,4,5
 -19 58 -19 58 -19 96 c 0,6,7
 -19 137 -19 137 40 168 c 0,8,9
 106 204 106 204 212 204 c 0,10,11
 310 204 310 204 380 185 c 128,-1,12
 450 166 450 166 513 144 c 1,13,14
 636 250 636 250 828 526 c 1,15,-1
 641 526 l 1,16,17
 646 530 646 530 667 555 c 1,18,-1
 848 555 l 1,19,-1
 943 694 l 2,20,21
 979 748 979 748 1016 798 c 2,22,23
 1016 798 1016 798 1088 893 c 1,24,25
 867 905 867 905 739 973 c 0,26,27
 618 1038 618 1038 618 1137 c 0,28,29
 618 1270 618 1270 805 1371 c 0,30,31
 928 1435 928 1435 1036 1435 c 0,32,33
 1058 1435 1058 1435 1058 1427 c 256,34,35
 1058 1419 1058 1419 1009.5 1413.5 c 128,-1,36
 961 1408 961 1408 899.5 1386 c 128,-1,37
 838 1364 838 1364 790 1330 c 0,38,39
 682 1255 682 1255 682 1153 c 0,40,41
 682 1055 682 1055 787 992 c 0,42,43
 898 925 898 925 1106 915 c 1,44,45
 1305 1158 1305 1158 1513 1290 c 0,46,47
 1700 1409 1700 1409 1851 1409 c 0,48,49
 1925 1409 1925 1409 1961 1382.5 c 128,-1,50
 1997 1356 1997 1356 1997 1308 c 128,-1,51
 1997 1260 1997 1260 1971 1210 c 128,-1,52
 1945 1160 1945 1160 1897 1115 c 128,-1,53
 1849 1070 1849 1070 1780 1031 c 128,-1,54
 1711 992 1711 992 1625 962 c 0,55,56
 1447 900 1447 900 1223 892 c 1,57,-1
 1098 696 l 1,58,-1
 1001 555 l 1,59,-1
 1373 555 l 1,60,61
 1364 544 1364 544 1361 526 c 1,62,-1
 980 526 l 1,63,64
 775 249 775 249 575 121 c 1,65,66
 848 19 848 19 1078 19 c 0,67,68
 1207 19 1207 19 1269 38 c 0,69,70
 1373 69 1373 69 1458 139 c 1,71,72
 1468 139 1468 139 1468 131 c 0,73,74
 1468 118 1468 118 1454.5 102 c 128,-1,75
 1441 86 1441 86 1404 58.5 c 128,-1,76
 1367 31 1367 31 1316 7 c 0,77,78
 1197 -50 1197 -50 1073 -50 c 0,79,80
 817 -50 817 -50 518 84 c 1,81,-1
 514 85 l 1,0,1
1238 915 m 1,82,83
 1536 929 1536 929 1736 1048 c 0,84,85
 1827 1102 1827 1102 1877 1170 c 128,-1,86
 1927 1238 1927 1238 1927 1310 c 0,87,88
 1927 1359 1927 1359 1881 1379 c 0,89,90
 1865 1386 1865 1386 1816.5 1386 c 128,-1,91
 1768 1386 1768 1386 1690.5 1352.5 c 128,-1,92
 1613 1319 1613 1319 1536 1258 c 0,93,94
 1381 1134 1381 1134 1238 915 c 1,82,83
17 98 m 0,95,96
 17 54 17 54 109 34 c 0,97,98
 142 27 142 27 205 27 c 0,99,100
 352 27 352 27 466 107 c 1,101,102
 348 160 348 160 289 164.5 c 128,-1,103
 230 169 230 169 167.5 169 c 128,-1,104
 105 169 105 169 61 148 c 128,-1,105
 17 127 17 127 17 98 c 0,95,96
EndSplineSet
Validated: 1
EndChar

StartChar: currency
Encoding: 118 164 118
Width: 1108
GlyphClass: 2
Flags: W
LayerCount: 2
Back
Fore
SplineSet
590 138 m 1,0,1
 495 80 495 80 399.5 80 c 128,-1,2
 304 80 304 80 251 133 c 1,3,-1
 85 8 l 1,4,5
 83 16 83 16 75 21 c 128,-1,6
 67 26 67 26 62 31 c 1,7,-1
 232 156 l 1,8,9
 206 194 206 194 206 241.5 c 128,-1,10
 206 289 206 289 220 329.5 c 128,-1,11
 234 370 234 370 259 406 c 0,12,13
 312 483 312 483 389 531 c 1,14,-1
 312 649 l 1,15,16
 322 653 322 653 326.5 658 c 128,-1,17
 331 663 331 663 339 669 c 1,18,-1
 416 546 l 1,19,20
 504 593 504 593 591.5 593 c 128,-1,21
 679 593 679 593 731 543 c 1,22,-1
 904 673 l 1,23,24
 906 665 906 665 914 659 c 128,-1,25
 922 653 922 653 927 648 c 1,26,-1
 750 518 l 1,27,28
 773 481 773 481 773 437 c 128,-1,29
 773 393 773 393 761.5 354 c 128,-1,30
 750 315 750 315 729 279 c 0,31,32
 687 207 687 207 614 155 c 1,33,-1
 695 34 l 2,34,35
 694 33 694 33 668 15 c 1,36,-1
 590 138 l 1,0,1
286.5 367 m 128,-1,38
 259 313 259 313 259 250 c 128,-1,39
 259 187 259 187 298 149.5 c 128,-1,40
 337 112 337 112 400 112 c 128,-1,41
 463 112 463 112 521.5 136.5 c 128,-1,42
 580 161 580 161 626 202 c 0,43,44
 728 295 728 295 728 410 c 0,45,46
 728 482 728 482 687.5 521 c 128,-1,47
 647 560 647 560 582.5 560 c 128,-1,48
 518 560 518 560 460.5 533.5 c 128,-1,49
 403 507 403 507 358.5 464 c 128,-1,37
 314 421 314 421 286.5 367 c 128,-1,38
EndSplineSet
Validated: 1
EndChar

StartChar: yen
Encoding: 119 165 119
Width: 1418
GlyphClass: 2
Flags: W
LayerCount: 2
Back
Fore
SplineSet
135 263 m 0,0,1
 177 263 177 263 177 220 c 0,2,3
 177 204 177 204 161 188.5 c 128,-1,4
 145 173 145 173 114 170 c 0,5,6
 113 166 113 166 113 162 c 2,7,-1
 113 156 l 2,8,9
 113 64 113 64 244 30 c 0,10,11
 286 19 286 19 335.5 19 c 128,-1,12
 385 19 385 19 435 33.5 c 128,-1,13
 485 48 485 48 538 80 c 0,14,15
 654 149 654 149 758 285 c 1,16,-1
 554 285 l 1,17,18
 575 301 575 301 578 312 c 1,19,-1
 778 312 l 1,20,-1
 806 354 l 2,21,22
 821 375 821 375 835 398 c 1,23,-1
 611 398 l 1,24,25
 632 416 632 416 636 426 c 1,26,-1
 853 426 l 1,27,28
 927 542 927 542 1008 643 c 2,29,-1
 1160 829 l 1,30,31
 934 605 934 605 788 562 c 0,32,33
 741 548 741 548 704.5 548 c 128,-1,34
 668 548 668 548 643.5 557.5 c 128,-1,35
 619 567 619 567 603 584 c 0,36,37
 571 616 571 616 571 659.5 c 128,-1,38
 571 703 571 703 582 738 c 128,-1,39
 593 773 593 773 612 806 c 0,40,41
 648 866 648 866 721 937.5 c 128,-1,42
 794 1009 794 1009 845 1067.5 c 128,-1,43
 896 1126 896 1126 925 1168 c 0,44,45
 976 1242 976 1242 976 1279.5 c 128,-1,46
 976 1317 976 1317 949.5 1336 c 128,-1,47
 923 1355 923 1355 881 1355 c 128,-1,48
 839 1355 839 1355 779.5 1321.5 c 128,-1,49
 720 1288 720 1288 660 1230 c 0,50,51
 520 1093 520 1093 458 922 c 0,52,53
 450 910 450 910 440 910 c 128,-1,54
 430 910 430 910 430 919 c 0,55,56
 430 930 430 930 452 982 c 128,-1,57
 474 1034 474 1034 527.5 1111 c 128,-1,58
 581 1188 581 1188 642 1248 c 0,59,60
 778 1379 778 1379 886 1379 c 0,61,62
 950 1379 950 1379 988.5 1347.5 c 128,-1,63
 1027 1316 1027 1316 1027 1268.5 c 128,-1,64
 1027 1221 1027 1221 1015.5 1174 c 128,-1,65
 1004 1127 1004 1127 978 1074 c 0,66,67
 920 957 920 957 804 852 c 2,68,-1
 702 756 l 2,69,70
 630 686 630 686 623.5 665 c 128,-1,71
 617 644 617 644 617 626.5 c 128,-1,72
 617 609 617 609 637 590 c 128,-1,73
 657 571 657 571 690 571 c 128,-1,74
 723 571 723 571 752 576.5 c 128,-1,75
 781 582 781 582 818.5 598.5 c 128,-1,76
 856 615 856 615 904 645.5 c 128,-1,77
 952 676 952 676 1012 726 c 0,78,79
 1136 827 1136 827 1252.5 952.5 c 128,-1,80
 1369 1078 1369 1078 1419.5 1122 c 128,-1,81
 1470 1166 1470 1166 1512 1196 c 0,82,83
 1594 1253 1594 1253 1639 1253 c 0,84,85
 1656 1253 1656 1253 1656 1241 c 0,86,87
 1656 1232 1656 1232 1642 1229 c 2,88,-1
 1612 1219 l 1,89,90
 1458 1161 1458 1161 1299 926 c 0,91,92
 1195 772 1195 772 1127 646 c 0,93,94
 1042 488 1042 488 1001 426 c 1,95,-1
 1212 426 l 1,96,97
 1202 413 1202 413 1202 398 c 1,98,-1
 982 398 l 1,99,-1
 949 354 l 2,100,101
 933 332 933 332 916 312 c 1,102,-1
 1156 312 l 1,103,104
 1149 304 1149 304 1143 285 c 1,105,-1
 893 285 l 1,106,107
 640 -2 640 -2 331 -2 c 0,108,109
 216 -2 216 -2 142 50 c 0,110,111
 67 103 67 103 67 184 c 0,112,113
 67 219 67 219 87 241 c 128,-1,114
 107 263 107 263 135 263 c 0,0,1
EndSplineSet
Validated: 1
EndChar

StartChar: brokenbar
Encoding: 120 166 120
Width: 909
GlyphClass: 2
Flags: W
LayerCount: 2
Back
Fore
SplineSet
1263 1583 m 1,0,1
 1267 1579 1267 1579 1282 1579 c 0,2,3
 1308 1579 1308 1579 1327 1582 c 1,4,-1
 811 804 l 1,5,-1
 746 804 l 1,6,-1
 1263 1583 l 1,0,1
2 -423 m 1,7,8
 -6 -421 -6 -421 -18 -421 c 2,9,10
 -18 -421 -18 -421 -38 -421 c 0,11,12
 -45 -421 -45 -421 -60 -423 c 1,13,-1
 473 388 l 1,14,-1
 537 388 l 1,15,-1
 2 -423 l 1,7,8
EndSplineSet
Validated: 1
EndChar

StartChar: section
Encoding: 121 167 121
Width: 1272
GlyphClass: 2
Flags: W
LayerCount: 2
Back
Fore
SplineSet
171 60 m 0,0,1
 217 60 217 60 217 16 c 0,2,3
 217 -5 217 -5 201 -19.5 c 128,-1,4
 185 -34 185 -34 162 -34 c 128,-1,5
 139 -34 139 -34 125 -15 c 1,6,7
 112 -35 112 -35 112 -80 c 0,8,9
 112 -126 112 -126 161 -166 c 128,-1,10
 210 -206 210 -206 276 -206 c 0,11,12
 565 -206 565 -206 565 47 c 0,13,14
 565 123 565 123 514 220 c 0,15,16
 384 467 384 467 384 581 c 0,17,18
 384 691 384 691 469 773.5 c 128,-1,19
 554 856 554 856 681 875 c 1,20,21
 660 938 660 938 660 998 c 0,22,23
 660 1134 660 1134 769.5 1259 c 128,-1,24
 879 1384 879 1384 1056 1384 c 0,25,26
 1145 1384 1145 1384 1201 1336 c 0,27,28
 1256 1289 1256 1289 1256 1220 c 0,29,30
 1256 1193 1256 1193 1245 1163 c 0,31,32
 1219 1091 1219 1091 1158 1091 c 256,33,34
 1112 1091 1112 1091 1112 1140 c 0,35,36
 1112 1156 1112 1156 1130 1172 c 0,37,38
 1146 1188 1146 1188 1168 1188 c 128,-1,39
 1190 1188 1190 1188 1205 1167 c 1,40,41
 1221 1193 1221 1193 1221 1226 c 0,42,43
 1221 1278 1221 1278 1163 1331 c 0,44,45
 1129 1362 1129 1362 1051 1362 c 0,46,47
 767 1362 767 1362 767 1113 c 0,48,49
 767 1033 767 1033 816 932 c 0,50,51
 945 666 945 666 945 602 c 0,52,53
 945 461 945 461 860 378 c 128,-1,54
 775 295 775 295 648 278 c 1,55,56
 668 218 668 218 668 144 c 0,57,58
 668 -93 668 -93 437 -199 c 0,59,60
 367 -231 367 -231 282 -231 c 128,-1,61
 197 -231 197 -231 135 -180 c 128,-1,62
 73 -129 73 -129 73 -62 c 0,63,64
 73 -13 73 -13 102.5 23.5 c 128,-1,65
 132 60 132 60 171 60 c 0,0,1
639 301 m 1,66,67
 821 330 821 330 821 503 c 0,68,69
 821 604 821 604 742 748 c 0,70,71
 707 812 707 812 690 853 c 1,72,73
 509 820 509 820 509 648 c 0,74,75
 509 551 509 551 589 406 c 0,76,77
 622 347 622 347 639 301 c 1,66,67
EndSplineSet
Validated: 1
EndChar

StartChar: dieresis
Encoding: 122 168 122
Width: 754
GlyphClass: 2
Flags: W
LayerCount: 2
Back
Fore
SplineSet
278.5 883.5 m 128,-1,1
 260 876 260 876 237.5 876 c 128,-1,2
 215 876 215 876 198 893.5 c 128,-1,3
 181 911 181 911 181 933 c 128,-1,4
 181 955 181 955 189 972 c 128,-1,5
 197 989 197 989 211 1002 c 0,6,7
 242 1032 242 1032 276 1032 c 128,-1,8
 310 1032 310 1032 326.5 1013.5 c 128,-1,9
 343 995 343 995 343 973 c 128,-1,10
 343 951 343 951 334 934 c 128,-1,11
 325 917 325 917 311 904 c 128,-1,0
 297 891 297 891 278.5 883.5 c 128,-1,1
-21 883.5 m 128,-1,13
 -39 876 -39 876 -61 876 c 128,-1,14
 -83 876 -83 876 -100 893.5 c 128,-1,15
 -117 911 -117 911 -117 933 c 128,-1,16
 -117 955 -117 955 -109 972 c 128,-1,17
 -101 989 -101 989 -88 1002 c 0,18,19
 -58 1032 -58 1032 -23.5 1032 c 128,-1,20
 11 1032 11 1032 26.5 1013.5 c 128,-1,21
 42 995 42 995 42 973 c 128,-1,22
 42 951 42 951 33.5 934 c 128,-1,23
 25 917 25 917 11 904 c 128,-1,12
 -3 891 -3 891 -21 883.5 c 128,-1,13
EndSplineSet
Validated: 1
EndChar

StartChar: copyright
Encoding: 123 169 123
Width: 1270
GlyphClass: 2
Flags: W
LayerCount: 2
Back
Fore
SplineSet
185 492 m 128,-1,1
 273 640 273 640 430.5 734.5 c 128,-1,2
 588 829 588 829 783 829 c 0,3,4
 921 829 921 829 1027 752.5 c 128,-1,5
 1133 676 1133 676 1133 543.5 c 128,-1,6
 1133 411 1133 411 1076 302 c 0,7,8
 965 89 965 89 748 -30 c 0,9,10
 610 -107 610 -107 446 -107 c 128,-1,11
 282 -107 282 -107 189.5 -19.5 c 128,-1,12
 97 68 97 68 97 206 c 128,-1,0
 97 344 97 344 185 492 c 128,-1,1
1009 247 m 24,13,14
 1089 425 1089 425 1089 528 c 0,15,16
 1089 663 1089 663 994 730.5 c 128,-1,17
 899 798 899 798 782 798 c 0,18,19
 575 798 575 798 434.5 709.5 c 128,-1,20
 294 621 294 621 217 485.5 c 128,-1,21
 140 350 140 350 140 212 c 0,22,23
 140 28 140 28 308 -46 c 0,24,25
 367 -72 367 -72 448 -72 c 0,26,27
 598 -72 598 -72 718 -14 c 0,28,29
 787 20 787 20 887.5 110 c 152,-1,30
 988 200 988 200 1009 247 c 24,13,14
752 222 m 256,31,32
 765 222 765 222 765 207 c 0,33,34
 765 201 765 201 734 172 c 128,-1,35
 703 143 703 143 641 115.5 c 128,-1,36
 579 88 579 88 530 88 c 0,37,38
 434 88 434 88 377.5 136.5 c 128,-1,39
 321 185 321 185 321 259 c 0,40,41
 321 416 321 416 447 520 c 128,-1,42
 573 624 573 624 733 624 c 0,43,44
 799 624 799 624 836.5 595 c 128,-1,45
 874 566 874 566 874 542 c 128,-1,46
 874 518 874 518 861 502.5 c 128,-1,47
 848 487 848 487 830 487 c 0,48,49
 799 487 799 487 799 512 c 0,50,51
 799 557 799 557 781.5 578.5 c 128,-1,52
 764 600 764 600 714 600 c 0,53,54
 606 600 606 600 511.5 502.5 c 128,-1,55
 417 405 417 405 417 254 c 0,56,57
 417 198 417 198 452.5 159.5 c 128,-1,58
 488 121 488 121 538 121 c 0,59,60
 641 121 641 121 735 211 c 0,61,62
 746 222 746 222 752 222 c 256,31,32
EndSplineSet
Validated: 1
EndChar

StartChar: ordfeminine
Encoding: 124 170 124
Width: 1221
GlyphClass: 2
Flags: W
LayerCount: 2
Back
Fore
SplineSet
906 1074 m 1,0,1
 731 869 731 869 617 869 c 0,2,3
 568 869 568 869 541 894.5 c 128,-1,4
 514 920 514 920 514 969 c 0,5,6
 514 1068 514 1068 617 1188 c 0,7,8
 786 1384 786 1384 977 1384 c 0,9,10
 1015 1384 1015 1384 1038 1367.5 c 128,-1,11
 1061 1351 1061 1351 1061 1327 c 128,-1,12
 1061 1303 1061 1303 1054 1282 c 1,13,-1
 1094 1329 l 2,14,15
 1112 1349 1112 1349 1127 1368 c 1,16,17
 1151 1362 1151 1362 1171 1362 c 0,18,19
 1220 1362 1220 1362 1237 1365 c 1,20,-1
 985 1062 l 2,21,22
 896 957 896 957 896 917 c 0,23,24
 896 898 896 898 918 898 c 0,25,26
 977 898 977 898 1057 967 c 0,27,28
 1073 982 1073 982 1081 982 c 128,-1,29
 1089 982 1089 982 1089 973 c 128,-1,30
 1089 964 1089 964 1059 936 c 128,-1,31
 1029 908 1029 908 980.5 888.5 c 128,-1,32
 932 869 932 869 894 869 c 0,33,34
 822 869 822 869 822 920 c 0,35,36
 822 961 822 961 913 1070 c 1,37,-1
 906 1074 l 1,0,1
702 1135 m 0,38,39
 593 1005 593 1005 593 934 c 0,40,41
 593 895 593 895 620 895 c 0,42,43
 729 895 729 895 927 1133 c 2,44,-1
 1008 1230 l 1,45,46
 1036 1284 1036 1284 1036 1318 c 128,-1,47
 1036 1352 1036 1352 994 1352 c 0,48,49
 923 1352 923 1352 795 1235 c 0,50,51
 750 1194 750 1194 702 1135 c 0,38,39
EndSplineSet
Validated: 1
EndChar

StartChar: guillemotleft
Encoding: 125 171 125
Width: 1581
GlyphClass: 2
Flags: W
LayerCount: 2
Back
Fore
SplineSet
1006 570 m 2,0,1
 1044 599 1044 599 1070 625.5 c 128,-1,2
 1096 652 1096 652 1106 652 c 128,-1,3
 1116 652 1116 652 1116 644 c 0,4,5
 1116 632 1116 632 1098 611 c 0,6,7
 1033 535 1033 535 1003 502 c 2,8,-1
 938 434 l 2,9,10
 903 399 903 399 865 366 c 1,11,12
 886 312 886 312 902 267 c 2,13,-1
 928 188 l 2,14,15
 935 161 935 161 935 154 c 0,16,17
 935 141 935 141 928 141 c 0,18,19
 914 141 914 141 904 160.5 c 128,-1,20
 894 180 894 180 876 209 c 0,21,22
 800 325 800 325 781 348 c 0,23,24
 752 384 752 384 752 392 c 0,25,26
 752 404 752 404 783.5 421.5 c 128,-1,27
 815 439 815 439 853 462.5 c 128,-1,28
 891 486 891 486 930 514 c 2,29,-1
 1006 570 l 2,0,1
506 320 m 2,30,31
 489 346 489 346 473.5 364.5 c 128,-1,32
 458 383 458 383 458 392 c 0,33,34
 458 404 458 404 489 421 c 2,35,-1
 558 462 l 2,36,37
 597 486 597 486 636 514 c 2,38,-1
 712 570 l 2,39,40
 750 599 750 599 772 620 c 0,41,42
 803 652 803 652 812.5 652 c 128,-1,43
 822 652 822 652 822 644 c 0,44,45
 822 632 822 632 804 611 c 2,46,-1
 710 502 l 2,47,48
 638 424 638 424 571 367 c 1,49,50
 592 313 592 313 608 268 c 2,51,-1
 634 188 l 2,52,53
 640 164 640 164 640 152.5 c 128,-1,54
 640 141 640 141 630 141 c 128,-1,55
 620 141 620 141 610 160.5 c 128,-1,56
 600 180 600 180 582 209 c 2,57,-1
 506 320 l 2,30,31
EndSplineSet
Validated: 1
EndChar

StartChar: logicalnot
Encoding: 126 172 126
Width: 1031
GlyphClass: 2
Flags: W
LayerCount: 2
Back
Fore
SplineSet
172 462 m 1,0,1
 207 508 207 508 210 518 c 1,2,-1
 883 518 l 1,3,-1
 707 213 l 1,4,5
 695 217 695 217 680 217 c 0,6,7
 655 217 655 217 643 214 c 1,8,-1
 786 462 l 1,9,-1
 172 462 l 1,0,1
EndSplineSet
Validated: 1
EndChar

StartChar: registered
Encoding: 128 174 128
Width: 1270
GlyphClass: 2
Flags: W
LayerCount: 2
Back
Fore
SplineSet
360 579 m 128,-1,1
 268 667 268 667 268 805.5 c 128,-1,2
 268 944 268 944 355 1089 c 0,3,4
 496 1324 496 1324 762 1402 c 0,5,6
 852 1428 852 1428 934 1428 c 0,7,8
 1091 1428 1091 1428 1197.5 1351.5 c 128,-1,9
 1304 1275 1304 1275 1304 1143 c 128,-1,10
 1304 1011 1304 1011 1242 890 c 0,11,12
 1141 693 1141 693 928 573 c 0,13,14
 782 491 782 491 617 491 c 128,-1,0
 452 491 452 491 360 579 c 128,-1,1
1179 845 m 24,15,16
 1259 1024 1259 1024 1259 1126 c 0,17,18
 1259 1263 1259 1263 1163.5 1329.5 c 128,-1,19
 1068 1396 1068 1396 952 1396 c 0,20,21
 748 1396 748 1396 606.5 1308.5 c 128,-1,22
 465 1221 465 1221 387.5 1085 c 128,-1,23
 310 949 310 949 310 822.5 c 128,-1,24
 310 696 310 696 387.5 612 c 128,-1,25
 465 528 465 528 625 528 c 0,26,27
 897 528 897 528 1082 729 c 24,28,29
 1169 824 1169 824 1179 845 c 24,15,16
966 1150 m 0,30,31
 966 1241 966 1241 868 1241 c 0,32,33
 863 1241 863 1241 837 1240 c 1,34,-1
 543 689 l 1,35,-1
 443 689 l 1,36,-1
 733 1235 l 1,37,38
 656 1222 656 1222 648 1219 c 1,39,40
 651 1227 651 1227 653 1237 c 128,-1,41
 655 1247 655 1247 657 1254 c 1,42,43
 772 1272 772 1272 855 1272 c 0,44,45
 1069 1271 1069 1271 1069 1155 c 0,46,47
 1069 1073 1069 1073 976 1016 c 128,-1,48
 883 959 883 959 774 943 c 1,49,50
 795 937 795 937 804 919.5 c 128,-1,51
 813 902 813 902 820 884 c 0,52,53
 877 725 877 725 927 725 c 0,54,55
 945 725 945 725 962.5 730.5 c 128,-1,56
 980 736 980 736 983 740 c 1,57,58
 985 734 985 734 981.5 725.5 c 128,-1,59
 978 717 978 717 985 711 c 1,60,61
 966 692 966 692 920.5 683.5 c 128,-1,62
 875 675 875 675 854 675 c 0,63,64
 810 675 810 675 788 718.5 c 128,-1,65
 766 762 766 762 750 836.5 c 128,-1,66
 734 911 734 911 722 928.5 c 128,-1,67
 710 946 710 946 710 956 c 128,-1,68
 710 966 710 966 715 970 c 128,-1,69
 720 974 720 974 784 992 c 0,70,71
 966 1041 966 1041 966 1150 c 0,30,31
EndSplineSet
Validated: 1
EndChar

StartChar: macron
Encoding: 129 175 129
Width: 870
GlyphClass: 2
Flags: W
LayerCount: 2
Back
Fore
SplineSet
-138 788 m 1,0,1
 -91 818 -91 818 -65 842 c 1,2,-1
 406 842 l 1,3,4
 365 816 365 816 345 788 c 1,5,-1
 -138 788 l 1,0,1
EndSplineSet
Validated: 1
EndChar

StartChar: degree
Encoding: 130 176 130
Width: 1064
GlyphClass: 2
Flags: W
LayerCount: 2
Back
Fore
SplineSet
694.5 1078.5 m 128,-1,1
 665 1067 665 1067 631 1067 c 128,-1,2
 597 1067 597 1067 568 1078.5 c 128,-1,3
 539 1090 539 1090 518 1110 c 0,4,5
 473 1154 473 1154 473 1203.5 c 128,-1,6
 473 1253 473 1253 486 1283 c 128,-1,7
 499 1313 499 1313 522 1336 c 0,8,9
 570 1384 570 1384 642 1384 c 0,10,11
 710 1384 710 1384 754 1339 c 0,12,13
 796 1295 796 1295 796 1243 c 128,-1,14
 796 1191 796 1191 782.5 1161.5 c 128,-1,15
 769 1132 769 1132 746.5 1111 c 128,-1,0
 724 1090 724 1090 694.5 1078.5 c 128,-1,1
589 1112.5 m 128,-1,17
 611 1104 611 1104 635.5 1104 c 128,-1,18
 660 1104 660 1104 681.5 1112 c 128,-1,19
 703 1120 703 1120 720 1136 c 0,20,21
 755 1170 755 1170 755 1224.5 c 128,-1,22
 755 1279 755 1279 722 1313 c 128,-1,23
 689 1347 689 1347 649.5 1347 c 128,-1,24
 610 1347 610 1347 587.5 1336.5 c 128,-1,25
 565 1326 565 1326 549 1309 c 0,26,27
 515 1273 515 1273 515 1234 c 128,-1,28
 515 1195 515 1195 524.5 1173.5 c 128,-1,29
 534 1152 534 1152 550.5 1136.5 c 128,-1,16
 567 1121 567 1121 589 1112.5 c 128,-1,17
EndSplineSet
Validated: 1
EndChar

StartChar: plusminus
Encoding: 131 177 131
Width: 1206
GlyphClass: 2
Flags: W
LayerCount: 2
Back
Fore
SplineSet
424 423 m 1,0,1
 404 427 404 427 394 427 c 0,2,3
 375 427 375 427 359 423 c 1,4,-1
 539 716 l 1,5,-1
 267 716 l 1,6,7
 298 751 298 751 308 771 c 1,8,-1
 573 771 l 1,9,-1
 743 1048 l 1,10,11
 763 1044 763 1044 772 1044 c 0,12,13
 786 1044 786 1044 812 1048 c 1,14,-1
 640 771 l 1,15,-1
 916 771 l 1,16,17
 902 757 902 757 894 745 c 2,18,-1
 876 716 l 1,19,-1
 606 716 l 1,20,-1
 424 423 l 1,0,1
172 130 m 1,21,-1
 196 157 l 2,22,23
 206 167 206 167 214 182 c 1,24,-1
 793 182 l 1,25,-1
 776 156 l 2,26,27
 768 144 768 144 765 130 c 1,28,-1
 172 130 l 1,21,-1
EndSplineSet
Validated: 1
EndChar

StartChar: twosuperior
Encoding: 132 178 132
Width: 1183
GlyphClass: 2
Flags: W
LayerCount: 2
Back
Fore
SplineSet
386 647 m 1,0,1
 506 709 506 709 605 709 c 0,2,3
 691 709 691 709 751 667 c 0,4,5
 807 632 807 632 838 632 c 128,-1,6
 869 632 869 632 893.5 642.5 c 128,-1,7
 918 653 918 653 937 670 c 0,8,9
 979 708 979 708 983 738.5 c 128,-1,10
 987 769 987 769 996 769 c 0,11,12
 1010 769 1010 769 1010 742.5 c 128,-1,13
 1010 716 1010 716 990 681.5 c 128,-1,14
 970 647 970 647 938 618 c 0,15,16
 864 551 864 551 784 551 c 0,17,18
 718 551 718 551 668 592 c 0,19,20
 591 655 591 655 516 655 c 0,21,22
 419 655 419 655 312 564 c 0,23,24
 295 551 295 551 285 551 c 128,-1,25
 275 551 275 551 275 564 c 128,-1,26
 275 577 275 577 292 599.5 c 128,-1,27
 309 622 309 622 350 654 c 0,28,29
 441 726 441 726 580.5 798.5 c 128,-1,30
 720 871 720 871 791.5 918.5 c 128,-1,31
 863 966 863 966 912 1018 c 0,32,33
 1011 1126 1011 1126 1011 1264 c 0,34,35
 1011 1318 1011 1318 985 1350 c 128,-1,36
 959 1382 959 1382 918.5 1382 c 128,-1,37
 878 1382 878 1382 839 1362.5 c 128,-1,38
 800 1343 800 1343 761.5 1311.5 c 128,-1,39
 723 1280 723 1280 688 1240 c 128,-1,40
 653 1200 653 1200 626 1160 c 0,41,42
 568 1070 568 1070 568 1015.5 c 128,-1,43
 568 961 568 961 617 961 c 0,44,45
 710 961 710 961 813 1097 c 0,46,47
 825 1109 825 1109 833.5 1109 c 128,-1,48
 842 1109 842 1109 842 1098.5 c 128,-1,49
 842 1088 842 1088 818.5 1057.5 c 128,-1,50
 795 1027 795 1027 757 996 c 0,51,52
 680 935 680 935 614 935 c 0,53,54
 532 935 532 935 512 1004 c 0,55,56
 507 1021 507 1021 507 1047 c 128,-1,57
 507 1073 507 1073 523.5 1115.5 c 128,-1,58
 540 1158 540 1158 569 1199.5 c 128,-1,59
 598 1241 598 1241 637.5 1279.5 c 128,-1,60
 677 1318 677 1318 722 1347 c 0,61,62
 821 1410 821 1410 917 1410 c 0,63,64
 1054 1410 1054 1410 1096 1304 c 0,65,66
 1109 1272 1109 1272 1109 1223 c 128,-1,67
 1109 1174 1109 1174 1078.5 1115.5 c 128,-1,68
 1048 1057 1048 1057 991 1002 c 0,69,70
 879 893 879 893 665 798 c 2,71,-1
 560 750 l 2,72,73
 447 697 447 697 386 647 c 1,0,1
EndSplineSet
Validated: 1
EndChar

StartChar: threesuperior
Encoding: 133 179 133
Width: 1065
GlyphClass: 2
Flags: W
LayerCount: 2
Back
Fore
SplineSet
353 660 m 0,0,1
 353 645 353 645 349 631 c 1,2,3
 403 577 403 577 491 577 c 128,-1,4
 579 577 579 577 639.5 601 c 128,-1,5
 700 625 700 625 742 665 c 0,6,7
 830 747 830 747 830 866 c 0,8,9
 830 932 830 932 774 962 c 0,10,11
 757 972 757 972 735 972 c 128,-1,12
 713 972 713 972 694 966.5 c 128,-1,13
 675 961 675 961 657.5 951 c 128,-1,14
 640 941 640 941 623 927 c 2,15,-1
 587 897 l 2,16,17
 577 886 577 886 562 894 c 0,18,19
 551 902 551 902 561 915.5 c 128,-1,20
 571 929 571 929 584 940.5 c 128,-1,21
 597 952 597 952 615 963 c 128,-1,22
 633 974 633 974 656 986 c 2,23,-1
 711 1012 l 2,24,25
 952 1122 952 1122 952 1262 c 0,26,27
 952 1315 952 1315 921.5 1349 c 128,-1,28
 891 1383 891 1383 840 1383 c 128,-1,29
 789 1383 789 1383 743.5 1360 c 128,-1,30
 698 1337 698 1337 660 1301 c 0,31,32
 573 1219 573 1219 573 1132 c 0,33,34
 573 1088 573 1088 617 1088 c 0,35,36
 693 1088 693 1088 742 1184 c 0,37,38
 757 1213 757 1213 762 1235.5 c 128,-1,39
 767 1258 767 1258 769.5 1261 c 128,-1,40
 772 1264 772 1264 779.5 1264 c 128,-1,41
 787 1264 787 1264 787 1239 c 128,-1,42
 787 1214 787 1214 773.5 1180.5 c 128,-1,43
 760 1147 760 1147 736 1121 c 0,44,45
 682 1062 682 1062 612 1062 c 0,46,47
 574 1062 574 1062 547 1085.5 c 128,-1,48
 520 1109 520 1109 520 1153.5 c 128,-1,49
 520 1198 520 1198 548 1243 c 128,-1,50
 576 1288 576 1288 622 1325 c 0,51,52
 726 1410 726 1410 837.5 1410 c 128,-1,53
 949 1410 949 1410 999.5 1368 c 128,-1,54
 1050 1326 1050 1326 1050 1258.5 c 128,-1,55
 1050 1191 1050 1191 984.5 1122.5 c 128,-1,56
 919 1054 919 1054 781 999 c 1,57,58
 844 988 844 988 876 956 c 0,59,60
 934 896 934 896 934 836.5 c 128,-1,61
 934 777 934 777 898 725 c 128,-1,62
 862 673 862 673 802 634 c 0,63,64
 672 551 672 551 504 551 c 0,65,66
 410 551 410 551 340 592 c 0,67,68
 275 629 275 629 275 669 c 0,69,70
 275 684 275 684 285.5 696.5 c 128,-1,71
 296 709 296 709 315 709 c 0,72,73
 353 709 353 709 353 660 c 0,0,1
EndSplineSet
Validated: 1
EndChar

StartChar: acute
Encoding: 134 180 134
Width: 612
GlyphClass: 2
Flags: W
LayerCount: 2
Back
Fore
SplineSet
-103 820 m 0,0,1
 -18 870 -18 870 23 937 c 0,2,3
 48 979 48 979 62 1086 c 0,4,5
 71 1149 71 1149 114.5 1149 c 128,-1,6
 158 1149 158 1149 158 1094 c 0,7,8
 158 1037 158 1037 94 954 c 0,9,10
 16 853 16 853 -96 794 c 0,11,12
 -108 788 -108 788 -118 788 c 128,-1,13
 -128 788 -128 788 -128 796 c 128,-1,14
 -128 804 -128 804 -122 807.5 c 128,-1,15
 -116 811 -116 811 -103 820 c 0,0,1
EndSplineSet
Validated: 1
EndChar

StartChar: mu
Encoding: 135 181 135
AltUni2: 0003bc.ffffffff.0
Width: 1028
GlyphClass: 2
Flags: W
LayerCount: 2
Back
Fore
SplineSet
511 51 m 0,0,1
 511 26 511 26 552 26 c 0,2,3
 619 26 619 26 710 88 c 0,4,5
 741 109 741 109 771 139 c 1,6,7
 776 136 776 136 776 126 c 0,8,9
 776 108 776 108 771 103 c 0,10,11
 653 -2 653 -2 534 -2 c 0,12,13
 501 -2 501 -2 482.5 18 c 128,-1,14
 464 38 464 38 464 74 c 0,15,16
 464 150 464 150 518 249 c 1,17,18
 315 70 315 70 168 14 c 0,19,20
 124 -2 124 -2 85 -2 c 128,-1,21
 46 -2 46 -2 22 22 c 1,22,23
 -182 -271 -182 -271 -233 -348 c 0,24,25
 -370 -563 -370 -563 -383 -585 c 1,26,27
 -431 -593 -431 -593 -458 -593 c 128,-1,28
 -485 -593 -485 -593 -495 -592.5 c 128,-1,29
 -505 -592 -505 -592 -516 -590 c 2,30,-1
 -538 -588 l 2,31,32
 -548 -586 -548 -586 -554 -584 c 1,33,-1
 224 428 l 1,34,-1
 414 670 l 1,35,36
 435 663 435 663 476 663 c 2,37,-1
 528 663 l 2,38,39
 568 663 568 663 583 666 c 1,40,-1
 460 536 l 1,41,42
 209 256 209 256 163 200 c 0,43,44
 82 103 82 103 82 64.5 c 128,-1,45
 82 26 82 26 109 26 c 0,46,47
 157 26 157 26 300 120 c 0,48,49
 492 246 492 246 615 390 c 1,50,-1
 654 438 l 1,51,-1
 653 436 l 1,52,53
 697 487 697 487 752 544 c 2,54,-1
 877 670 l 1,55,56
 933 663 933 663 957 663 c 0,57,58
 989 663 989 663 1031 666 c 1,59,-1
 806 426 l 1,60,-1
 587 178 l 2,61,62
 522 102 522 102 516.5 80 c 128,-1,63
 511 58 511 58 511 51 c 0,0,1
EndSplineSet
Validated: 1
EndChar

StartChar: paragraph
Encoding: 136 182 136
Width: 1748
GlyphClass: 2
Flags: W
LayerCount: 2
Back
Fore
SplineSet
730.5 511 m 128,-1,1
 663 565 663 565 663 678 c 128,-1,2
 663 791 663 791 774.5 918.5 c 128,-1,3
 886 1046 886 1046 1089 1137.5 c 128,-1,4
 1292 1229 1292 1229 1488 1229 c 0,5,6
 1589 1229 1589 1229 1679 1210 c 1,7,8
 1866 1425 1866 1425 2032 1425 c 0,9,10
 2127 1425 2127 1425 2127 1332 c 0,11,12
 2127 1290 2127 1290 2085 1290 c 256,13,14
 2031 1290 2031 1290 2031 1356 c 0,15,16
 2031 1378 2031 1378 2055 1389 c 1,17,18
 2037 1399 2037 1399 2005 1399 c 128,-1,19
 1973 1399 1973 1399 1923 1350.5 c 128,-1,20
 1873 1302 1873 1302 1787 1181 c 1,21,22
 1798 1177 1798 1177 1820 1170 c 0,23,24
 1862 1159 1862 1159 1862 1142.5 c 128,-1,25
 1862 1126 1862 1126 1849.5 1126 c 128,-1,26
 1837 1126 1837 1126 1827 1133 c 128,-1,27
 1817 1140 1817 1140 1797 1148 c 2,28,-1
 1771 1158 l 1,29,30
 1699 1057 1699 1057 1596 900 c 2,31,-1
 1345 516 l 2,32,33
 1129 184 1129 184 963 47 c 128,-1,34
 797 -90 797 -90 673 -90 c 0,35,36
 625 -90 625 -90 591 -69 c 1,37,38
 420 -220 420 -220 275.5 -220 c 128,-1,39
 131 -220 131 -220 83 -131 c 0,40,41
 64 -96 64 -96 64 -64 c 0,42,43
 64 19 64 19 146 19 c 0,44,45
 206 19 206 19 206 -30.5 c 128,-1,46
 206 -80 206 -80 139 -80 c 0,47,48
 120 -80 120 -80 106 -72 c 1,49,50
 106 -156 106 -156 208 -185 c 0,51,52
 243 -195 243 -195 285 -195 c 0,53,54
 380 -195 380 -195 564 -34.5 c 128,-1,55
 748 126 748 126 1008 480 c 1,56,57
 953 457 953 457 900 457 c 0,58,0
 798 457 798 457 730.5 511 c 128,-1,1
1504 1205 m 1,59,60
 1327 1198 1327 1198 1162 1107.5 c 128,-1,61
 997 1017 997 1017 892 873 c 128,-1,62
 787 729 787 729 787 606 c 128,-1,63
 787 483 787 483 895 483 c 0,64,65
 968 483 968 483 1040 523 c 1,66,67
 1149 675 1149 675 1181 724 c 2,68,-1
 1354 990 l 1,69,-1
 1504 1205 l 1,59,60
1662 1190 m 1,70,71
 1610 1200 1610 1200 1544 1204 c 1,72,-1
 1088 538 l 1,73,-1
 921 304 l 1,74,75
 751 79 751 79 614 -48 c 1,76,77
 636 -64 636 -64 666 -64 c 128,-1,78
 696 -64 696 -64 724 -52 c 0,79,80
 859 4 859 4 1142 421 c 1,81,-1
 1325 706 l 1,82,83
 1512 1011 1512 1011 1662 1190 c 1,70,71
EndSplineSet
Validated: 3073
EndChar

StartChar: periodcentered
Encoding: 137 183 137
Width: 726
GlyphClass: 2
Flags: W
LayerCount: 2
Back
Fore
SplineSet
96.5 380 m 128,-1,1
 75 371 75 371 48.5 371 c 128,-1,2
 22 371 22 371 2 391.5 c 128,-1,3
 -18 412 -18 412 -18 439 c 128,-1,4
 -18 466 -18 466 -8.5 485.5 c 128,-1,5
 1 505 1 505 17 520 c 0,6,7
 53 555 53 555 94 555 c 0,8,9
 173 555 173 555 173 481 c 0,10,11
 173 439 173 439 145.5 414 c 128,-1,0
 118 389 118 389 96.5 380 c 128,-1,1
EndSplineSet
Validated: 1
EndChar

StartChar: cedilla
Encoding: 138 184 138
Width: 614
GlyphClass: 2
Flags: W
LayerCount: 2
Back
Fore
SplineSet
60 -169 m 0,0,1
 60 -125 60 -125 -8 -125 c 0,2,3
 -30 -125 -30 -125 -51 -132 c 1,4,-1
 47 18 l 1,5,-1
 75 10 l 1,6,-1
 25 -65 l 1,7,8
 42 -60 42 -60 72 -60 c 128,-1,9
 102 -60 102 -60 127 -83.5 c 128,-1,10
 152 -107 152 -107 152 -134 c 128,-1,11
 152 -161 152 -161 144 -180.5 c 128,-1,12
 136 -200 136 -200 122 -217 c 0,13,14
 68 -285 68 -285 -51 -338 c 0,15,16
 -100 -359 -100 -359 -119 -359 c 128,-1,17
 -138 -359 -138 -359 -138 -345 c 0,18,19
 -138 -336 -138 -336 -117 -328 c 0,20,21
 -30 -300 -30 -300 15 -262 c 128,-1,22
 60 -224 60 -224 60 -169 c 0,0,1
EndSplineSet
Validated: 1
EndChar

StartChar: onesuperior
Encoding: 139 185 139
Width: 1118
GlyphClass: 2
Flags: W
LayerCount: 2
Back
Fore
SplineSet
1030.5 1354.5 m 128,-1,1
 999 1311 999 1311 951.5 1233 c 128,-1,2
 904 1155 904 1155 848 1052 c 0,3,4
 685 744 685 744 606 575 c 1,5,6
 601 575 601 575 592 576 c 128,-1,7
 583 577 583 577 572 578 c 2,8,-1
 552 578 l 2,9,10
 542 579 542 579 530 579 c 0,11,12
 486 579 486 579 465 572 c 1,13,-1
 867 1174 l 1,14,15
 751 1054 751 1054 674 990 c 0,16,17
 557 895 557 895 540 895 c 0,18,19
 514 895 514 895 514 911 c 128,-1,20
 514 927 514 927 528 933 c 2,21,-1
 550 944 l 2,22,23
 560 948 560 948 577.5 958.5 c 128,-1,24
 595 969 595 969 632.5 997.5 c 128,-1,25
 670 1026 670 1026 712 1062 c 2,26,-1
 796 1140 l 2,27,28
 932 1270 932 1270 1015 1391 c 0,29,30
 1038 1422 1038 1422 1050 1422 c 128,-1,31
 1062 1422 1062 1422 1062 1410 c 128,-1,0
 1062 1398 1062 1398 1030.5 1354.5 c 128,-1,1
EndSplineSet
Validated: 1
EndChar

StartChar: ordmasculine
Encoding: 140 186 140
Width: 1085
GlyphClass: 2
Flags: W
LayerCount: 2
Back
Fore
SplineSet
622 869 m 0,0,1
 572 869 572 869 543 897.5 c 128,-1,2
 514 926 514 926 514 960 c 128,-1,3
 514 994 514 994 521.5 1022 c 128,-1,4
 529 1050 529 1050 542 1078 c 0,5,6
 608 1226 608 1226 754 1319 c 0,7,8
 854 1383 854 1383 927 1383 c 0,9,10
 1053 1383 1053 1383 1053 1297 c 0,11,12
 1053 1169 1053 1169 936 1034 c 0,13,14
 789 869 789 869 622 869 c 0,0,1
969 1347 m 0,15,16
 888 1347 888 1347 709 1143 c 0,17,18
 612 1033 612 1033 612 944 c 0,19,20
 612 901 612 901 655 901 c 0,21,22
 762 901 762 901 880 1018 c 0,23,24
 965 1101 965 1101 1007 1200 c 0,25,26
 1027 1246 1027 1246 1027 1292 c 0,27,28
 1027 1347 1027 1347 969 1347 c 0,15,16
EndSplineSet
Validated: 1
EndChar

